<svg width="52" height="49" viewBox="0 0 52 49" fill="none" xmlns="http://www.w3.org/2000/svg">
<g clip-path="url(#clip0_4009_12095)">
<path d="M14.9412 48H37.0589M26 48V36.9412M26 36.9412C18.3655 36.9412 12.1765 30.7521 12.1765 23.1176V6.52941M26 36.9412C33.6345 36.9412 39.8236 30.7521 39.8236 23.1176V6.52941M12.1765 6.52941C12.1765 3.4756 14.6521 1 17.7059 1H34.2941C37.348 1 39.8236 3.4756 39.8236 6.52941M12.1765 6.52941H8.02944C4.21218 6.52941 1.11768 9.62392 1.11768 13.4412C1.11768 17.2584 4.21218 20.3529 8.02944 20.3529H12.1765M39.8236 6.52941H43.9706C47.7878 6.52941 50.8824 9.62392 50.8824 13.4412C50.8824 17.2584 47.7878 20.3529 43.9706 20.3529H39.8236" stroke="#141414" stroke-width="1.5" stroke-linecap="round" stroke-linejoin="round"/>
</g>
<defs>
<clipPath id="clip0_4009_12095">
<rect width="52" height="49" fill="white"/>
</clipPath>
</defs>
</svg>
