<svg width="48" height="48" viewBox="0 0 48 48" fill="none" xmlns="http://www.w3.org/2000/svg">
<path d="M36 20.75C36.4142 20.75 36.75 20.4142 36.75 20C36.75 19.5858 36.4142 19.25 36 19.25V20.75ZM26 19.25C25.5858 19.25 25.25 19.5858 25.25 20C25.25 20.4142 25.5858 20.75 26 20.75V19.25ZM34.7832 6.05134L34.8811 5.30776L34.8811 5.30776L34.7832 6.05134ZM39.9486 11.2168L39.205 11.3147L39.205 11.3149L39.9486 11.2168ZM4.1387 10.5168L4.8757 10.6558L4.8757 10.6558L4.1387 10.5168ZM10.5168 4.1387L10.6558 4.8757L10.6558 4.8757L10.5168 4.1387ZM15.4311 4.03476L15.3613 4.7815L15.3613 4.7815L15.4311 4.03476ZM19.7919 5.84102L20.2706 5.26364L20.2705 5.26361L19.7919 5.84102ZM20.8994 6.8995L20.369 7.42981L20.3691 7.42985L20.8994 6.8995ZM22 8L22.5303 7.46966L22.5303 7.46965L22 8ZM25.4242 10.9909L25.0595 11.6462L25.0595 11.6462L25.4242 10.9909ZM27.1208 11.6936L26.9152 12.4148L26.9152 12.4148L27.1208 11.6936ZM42.0124 13.5389L42.5139 12.9813L42.5139 12.9813L42.0124 13.5389ZM42.461 13.9877L41.9031 14.4889L41.9034 14.4892L42.461 13.9877ZM41.6568 41.6568L41.1265 41.1264L41.1264 41.1265L41.6568 41.6568ZM6.34314 41.6568L6.87347 41.1265L6.87345 41.1264L6.34314 41.6568ZM36 20V19.25H26V20V20.75H36V20ZM20 6V6.75H33V6V5.25H20V6ZM33 6V6.75C33.9526 6.75 34.3563 6.75162 34.6853 6.79493L34.7832 6.05134L34.8811 5.30776C34.4301 5.24838 33.905 5.25 33 5.25V6ZM34.7832 6.05134L34.6853 6.79492C37.0411 7.10508 38.8949 8.95888 39.205 11.3147L39.9486 11.2168L40.6922 11.119C40.2935 8.09 37.91 5.70652 34.8811 5.30776L34.7832 6.05134ZM39.9486 11.2168L39.205 11.3149C39.2484 11.6437 39.25 12.0473 39.25 13H40H40.75C40.75 12.095 40.7516 11.5698 40.6922 11.1188L39.9486 11.2168ZM4 13.8995H4.75C4.75 12.1003 4.75328 11.3047 4.8757 10.6558L4.1387 10.5168L3.4017 10.3777C3.24672 11.1991 3.25 12.1686 3.25 13.8995H4ZM4.1387 10.5168L4.8757 10.6558C5.42904 7.72306 7.72306 5.42904 10.6558 4.8757L10.5168 4.1387L10.3777 3.4017C6.83818 4.06952 4.06952 6.83818 3.4017 10.3777L4.1387 10.5168ZM10.5168 4.1387L10.6558 4.8757C11.3047 4.75328 12.1003 4.75 13.8995 4.75V4V3.25C12.1686 3.25 11.1991 3.24672 10.3777 3.4017L10.5168 4.1387ZM13.8995 4V4.75C14.6868 4.75 15.0326 4.75076 15.3613 4.7815L15.4311 4.03476L15.501 3.28802C15.0864 3.24924 14.6589 3.25 13.8995 3.25V4ZM15.4311 4.03476L15.3613 4.7815C16.8133 4.91728 18.1905 5.48776 19.3132 6.41843L19.7919 5.84102L20.2705 5.26361C18.9155 4.1404 17.2533 3.45188 15.501 3.28802L15.4311 4.03476ZM19.7919 5.84102L19.3132 6.4184C19.5673 6.62907 19.8124 6.8731 20.369 7.42981L20.8994 6.8995L21.4297 6.36919C20.8928 5.83222 20.5911 5.52937 20.2706 5.26364L19.7919 5.84102ZM20.8994 6.8995L20.3691 7.42985L21.4697 8.53035L22 8L22.5303 7.46965L21.4297 6.36915L20.8994 6.8995ZM22 8L21.4697 8.53034C23.0713 10.132 23.9699 11.0399 25.0595 11.6462L25.4242 10.9909L25.7889 10.3355C24.9249 9.85476 24.1919 9.13115 22.5303 7.46966L22 8ZM25.4242 10.9909L25.0595 11.6462C25.6465 11.9728 26.2693 12.2307 26.9152 12.4148L27.1208 11.6936L27.3264 10.9723C26.7911 10.8197 26.2751 10.606 25.7888 10.3355L25.4242 10.9909ZM27.1208 11.6936L26.9152 12.4148C28.1144 12.7567 29.3917 12.75 31.6568 12.75V12V11.25C29.3071 11.25 28.2772 11.2433 27.3264 10.9723L27.1208 11.6936ZM31.6568 12V12.75H32.4042V12V11.25H31.6568V12ZM32.4042 12V12.75C35.0563 12.75 36.9749 12.7514 38.4473 12.9365C39.901 13.1193 40.8149 13.4706 41.5109 14.0966L42.0124 13.5389L42.5139 12.9813C41.4987 12.0683 40.2409 11.6502 38.6345 11.4482C37.0467 11.2486 35.0169 11.25 32.4042 11.25V12ZM42.0124 13.5389L41.5109 14.0966C41.6486 14.2204 41.7796 14.3514 41.9031 14.4889L42.461 13.9877L43.0189 13.4864C42.8596 13.3091 42.691 13.1405 42.5139 12.9813L42.0124 13.5389ZM42.461 13.9877L41.9034 14.4892C42.5293 15.1851 42.8807 16.099 43.0635 17.5527C43.2486 19.0251 43.25 20.9438 43.25 23.5958H44H44.75C44.75 20.9831 44.7514 18.9533 44.5518 17.3655C44.3498 15.7591 43.9317 14.5012 43.0186 13.4861L42.461 13.9877ZM44 23.5958H43.25V28H44H44.75V23.5958H44ZM44 28H43.25C43.25 31.7924 43.2484 34.5613 42.9638 36.6782C42.6821 38.7736 42.1355 40.1175 41.1265 41.1264L41.6568 41.6568L42.1871 42.1871C43.5213 40.8531 44.1463 39.1398 44.4504 36.8781C44.7516 34.638 44.75 31.75 44.75 28H44ZM41.6568 41.6568L41.1264 41.1265C40.1175 42.1355 38.7736 42.6821 36.6782 42.9638C34.5613 43.2484 31.7924 43.25 28 43.25V44V44.75C31.75 44.75 34.638 44.7516 36.8781 44.4504C39.1398 44.1463 40.8531 43.5213 42.1871 42.1871L41.6568 41.6568ZM28 44V43.25H20V44V44.75H28V44ZM20 44V43.25C16.2076 43.25 13.4387 43.2484 11.3218 42.9638C9.22642 42.6821 7.88248 42.1355 6.87347 41.1265L6.34314 41.6568L5.81281 42.1871C7.14696 43.5213 8.86021 44.1463 11.1219 44.4504C13.362 44.7516 16.25 44.75 20 44.75V44ZM6.34314 41.6568L6.87345 41.1264C5.86448 40.1175 5.31792 38.7736 5.0362 36.6782C4.75159 34.5613 4.75 31.7924 4.75 28H4H3.25C3.25 31.75 3.24841 34.638 3.54958 36.8781C3.85365 39.1398 4.47866 40.8531 5.81283 42.1871L6.34314 41.6568ZM4 28H4.75V13.8995H4H3.25V28H4Z" fill="#141414"/>
</svg>
