<svg width="53" height="48" viewBox="0 0 53 48" fill="none" xmlns="http://www.w3.org/2000/svg">
<path d="M1.19971 47C2.51158 42.4764 5.21999 38.4833 8.93778 35.5918C12.6556 32.7002 17.1924 31.058 21.8997 30.9C31.3757 30.9 39.4487 37.593 42.5997 47M39.8869 6.61214C41.6388 7.51036 43.0565 8.94691 43.9314 10.7107C44.8063 12.4745 45.0924 14.4723 44.7474 16.4107C44.4024 18.3491 43.4447 20.1257 42.015 21.4794C40.5856 22.833 38.7592 23.6923 36.8049 23.931M38.7364 29.9112C41.8046 30.693 44.6189 32.2531 46.9074 34.4411C49.1961 36.6288 50.8813 39.3702 51.8004 42.4M22.3579 24C28.7091 24 33.8579 18.8513 33.8579 12.5C33.8579 6.14873 28.7091 1 22.3579 1C16.0066 1 10.8579 6.14873 10.8579 12.5C10.8579 18.8513 16.0066 24 22.3579 24Z" stroke="black" stroke-width="1.5" stroke-linecap="round" stroke-linejoin="round"/>
</svg>
