<svg width="48" height="48" viewBox="0 0 48 48" fill="none" xmlns="http://www.w3.org/2000/svg">
<path d="M15.2981 10.2V8.36C15.2981 4.289 15.2981 1 22.6581 1H26.3381C33.6981 1 33.6981 4.289 33.6981 8.36V10.2M29.0981 28.646C29.0981 28.623 29.0981 28.623 29.0981 28.6V26.3C29.0981 24 29.0981 24 26.7981 24H22.1981C19.8981 24 19.8981 24 19.8981 26.3V28.669C19.8981 31.176 19.9441 33.2 24.4981 33.2C29.0751 33.2 29.0981 31.153 29.0981 28.646ZM29.0981 28.646C35.3081 27.864 41.3801 25.564 46.6931 21.7M2.92215 22.3199C8.09715 25.8619 13.9391 28.0009 19.8961 28.6679M15.3 47H33.7C42.946 47 44.602 43.297 45.085 38.789L46.81 20.389C47.431 14.777 45.821 10.2 36 10.2H13C3.17897 10.2 1.56897 14.777 2.18997 20.389L3.91497 38.789C4.39797 43.297 6.05397 47 15.3 47Z" stroke="#292D32" stroke-width="1.5" stroke-miterlimit="10" stroke-linecap="round" stroke-linejoin="round"/>
</svg>
