<svg width="14" height="14" viewBox="0 0 14 14" fill="none" xmlns="http://www.w3.org/2000/svg">
<path d="M9.04297 4.37502L10.3846 5.71669C10.4937 5.82357 10.6403 5.88344 10.793 5.88344C10.9457 5.88344 11.0923 5.82357 11.2013 5.71669L12.4263 4.49169C12.5332 4.38264 12.5931 4.23604 12.5931 4.08335C12.5931 3.93066 12.5332 3.78406 12.4263 3.67502L11.0846 2.33335M12.2513 1.16669L6.6513 6.76669M7.58464 9.04169C7.58464 10.8136 6.14822 12.25 4.3763 12.25C2.60439 12.25 1.16797 10.8136 1.16797 9.04169C1.16797 7.26977 2.60439 5.83335 4.3763 5.83335C6.14822 5.83335 7.58464 7.26977 7.58464 9.04169Z" stroke="#494852" stroke-width="1.5" stroke-linecap="round" stroke-linejoin="round"/>
</svg>
