<svg width="24" height="24" viewBox="0 0 24 24" fill="none" xmlns="http://www.w3.org/2000/svg">
<path d="M9.00019 11.9996L11.0002 13.9996L15.0002 9.99961M3.85019 8.61961C3.70423 7.96213 3.72665 7.27845 3.91535 6.63195C4.10405 5.98544 4.45294 5.39705 4.92966 4.92133C5.40638 4.44561 5.9955 4.09795 6.6424 3.9106C7.2893 3.72325 7.97303 3.70227 8.63019 3.84961C8.9919 3.28391 9.4902 2.81837 10.0791 2.49589C10.6681 2.17342 11.3287 2.00439 12.0002 2.00439C12.6716 2.00439 13.3323 2.17342 13.9212 2.49589C14.5102 2.81837 15.0085 3.28391 15.3702 3.84961C16.0284 3.70163 16.7133 3.72252 17.3612 3.91032C18.0091 4.09813 18.599 4.44675 19.076 4.92376C19.5531 5.40077 19.9017 5.99068 20.0895 6.63861C20.2773 7.28654 20.2982 7.97144 20.1502 8.62961C20.7159 8.99132 21.1814 9.48961 21.5039 10.0786C21.8264 10.6675 21.9954 11.3282 21.9954 11.9996C21.9954 12.6711 21.8264 13.3317 21.5039 13.9207C21.1814 14.5096 20.7159 15.0079 20.1502 15.3696C20.2975 16.0268 20.2765 16.7105 20.0892 17.3574C19.9018 18.0043 19.5542 18.5934 19.0785 19.0701C18.6027 19.5469 18.0144 19.8957 17.3679 20.0844C16.7213 20.2732 16.0377 20.2956 15.3802 20.1496C15.019 20.7175 14.5203 21.185 13.9303 21.5089C13.3404 21.8328 12.6782 22.0027 12.0052 22.0027C11.3322 22.0027 10.67 21.8328 10.0801 21.5089C9.49011 21.185 8.99143 20.7175 8.63019 20.1496C7.97303 20.2969 7.2893 20.276 6.6424 20.0886C5.9955 19.9013 5.40638 19.5536 4.92966 19.0779C4.45294 18.6022 4.10405 18.0138 3.91535 17.3673C3.72665 16.7208 3.70423 16.0371 3.85019 15.3796C3.28015 15.0188 2.81061 14.5198 2.48524 13.9288C2.15988 13.3379 1.98926 12.6742 1.98926 11.9996C1.98926 11.325 2.15988 10.6614 2.48524 10.0704C2.81061 9.47943 3.28015 8.98036 3.85019 8.61961Z" stroke="#FF5622" stroke-opacity="0.98" stroke-width="2" stroke-linecap="round" stroke-linejoin="round"/>
</svg>
