<svg width="20" height="20" viewBox="0 0 20 20" fill="none" xmlns="http://www.w3.org/2000/svg">
<path d="M17.5 6.24996V4.99996C17.5 4.55793 17.3244 4.13401 17.0118 3.82145C16.6993 3.50889 16.2754 3.33329 15.8333 3.33329H4.16667C3.72464 3.33329 3.30072 3.50889 2.98816 3.82145C2.67559 4.13401 2.5 4.55793 2.5 4.99996V16.6666C2.5 17.1087 2.67559 17.5326 2.98816 17.8451C3.30072 18.1577 3.72464 18.3333 4.16667 18.3333H7.08333M13.3333 1.66663V4.99996M6.66667 1.66663V4.99996M2.5 8.33329H6.66667M14.5833 14.5833L13.3333 13.5833V11.6666M18.3333 13.3333C18.3333 16.0947 16.0948 18.3333 13.3333 18.3333C10.5719 18.3333 8.33333 16.0947 8.33333 13.3333C8.33333 10.5719 10.5719 8.33329 13.3333 8.33329C16.0948 8.33329 18.3333 10.5719 18.3333 13.3333Z" stroke="#494852" stroke-width="1.5" stroke-linecap="round" stroke-linejoin="round"/>
</svg>
