<svg width="16" height="17" viewBox="0 0 16 17" fill="none" xmlns="http://www.w3.org/2000/svg">
<path d="M11.9987 6.49967H13.332C13.6857 6.49967 14.0248 6.64015 14.2748 6.8902C14.5249 7.14025 14.6654 7.47939 14.6654 7.83301V15.1663L11.9987 12.4997H7.9987C7.64508 12.4997 7.30594 12.3592 7.05589 12.1091C6.80584 11.8591 6.66536 11.52 6.66536 11.1663V10.4997M9.33203 6.49967C9.33203 6.8533 9.19155 7.19243 8.94151 7.44248C8.69146 7.69253 8.35232 7.83301 7.9987 7.83301H3.9987L1.33203 10.4997V3.16634C1.33203 2.81272 1.47251 2.47358 1.72256 2.22353C1.9726 1.97348 2.31174 1.83301 2.66536 1.83301H7.9987C8.35232 1.83301 8.69146 1.97348 8.94151 2.22353C9.19155 2.47358 9.33203 2.81272 9.33203 3.16634V6.49967Z" stroke="#494852" stroke-width="1.5" stroke-linecap="round" stroke-linejoin="round"/>
</svg>
