<svg width="29" height="28" viewBox="0 0 29 28" fill="none" xmlns="http://www.w3.org/2000/svg">
<g clip-path="url(#clip0_308_1514)">
<path d="M25.7684 11.6667C26.3012 14.2815 25.9214 17 24.6925 19.3687C23.4636 21.7375 21.4597 23.6134 19.0151 24.6835C16.5705 25.7537 13.8329 25.9534 11.2589 25.2494C8.68482 24.5454 6.42991 22.9803 4.87018 20.815C3.31044 18.6497 2.54017 16.0151 2.6878 13.3506C2.83543 10.6861 3.89205 8.15276 5.68145 6.17302C7.47085 4.19328 9.88487 2.88682 12.5209 2.47152C15.157 2.05621 17.8558 2.55716 20.1672 3.89082M10.8339 12.8333L14.3339 16.3333L26.0005 4.66665" stroke="#141414" stroke-width="2" stroke-linecap="round" stroke-linejoin="round"/>
</g>
<defs>
<clipPath id="clip0_308_1514">
<rect width="28" height="28" fill="white" transform="translate(0.333984)"/>
</clipPath>
</defs>
</svg>
