<svg width="82" height="90" viewBox="0 0 82 90" fill="none" xmlns="http://www.w3.org/2000/svg">
<path d="M27.7583 1.89077C26.5175 1.89077 25.3834 2.32993 24.4995 3.06118C24.371 3.16713 24.2498 3.27609 24.1323 3.39395C24.019 3.5077 23.9133 3.62563 23.8111 3.74966C23.8094 3.75191 23.8127 3.75889 23.8111 3.76114C23.7091 3.88525 23.6028 4.00625 23.5127 4.1398C23.511 4.14262 23.5144 4.14876 23.5127 4.15123C23.423 4.28478 23.3373 4.42216 23.2603 4.56432C23.2586 4.56713 23.262 4.57294 23.2603 4.57575C23.1836 4.71798 23.1055 4.86177 23.0423 5.01179C23.0406 5.01516 23.0439 5.02006 23.0423 5.02322C22.9794 5.17327 22.9187 5.32519 22.8701 5.4822C22.869 5.48558 22.8713 5.49019 22.8701 5.49363C22.8219 5.65074 22.7771 5.8123 22.7439 5.97557C22.7434 5.97952 22.7445 5.9834 22.7439 5.987C22.711 6.15034 22.6806 6.31172 22.6636 6.48041C22.6632 6.48434 22.664 6.48806 22.6636 6.49189C22.6469 6.66077 22.6406 6.83483 22.6406 7.00825C22.6406 7.01219 22.6406 7.01591 22.6406 7.01968V33.4801V33.4916C22.641 33.6649 22.6465 33.8391 22.6636 34.0079C22.664 34.0119 22.6632 34.0158 22.6636 34.0194C22.6809 34.1881 22.7107 34.3495 22.7439 34.5128C22.7445 34.5168 22.7434 34.5207 22.7439 34.5243C22.7775 34.6875 22.8216 34.849 22.8701 35.0062C22.8713 35.0096 22.869 35.0142 22.8701 35.0177C22.9191 35.1748 22.9791 35.3265 23.0423 35.4767C23.0439 35.48 23.0406 35.4849 23.0423 35.4881C23.1058 35.6383 23.1833 35.7818 23.2603 35.9242C23.262 35.927 23.2586 35.9327 23.2603 35.9357C23.3376 36.078 23.4228 36.2151 23.5127 36.3487C23.5144 36.3516 23.511 36.3575 23.5127 36.3602C23.603 36.4939 23.7089 36.6146 23.8111 36.7388C23.8127 36.7411 23.8094 36.748 23.8111 36.7503C23.9135 36.8745 24.0188 36.9921 24.1323 37.106C24.2498 37.2239 24.371 37.3328 24.4995 37.4388C25.3834 38.1676 26.5175 38.6092 27.7583 38.6092H54.2417C55.4825 38.6092 56.6166 38.17 57.5005 37.4388C57.629 37.3329 57.7502 37.2239 57.8676 37.106C57.9812 36.9921 58.0865 36.8745 58.1889 36.7503C58.1912 36.7481 58.1867 36.7412 58.1889 36.7388C58.2911 36.6146 58.397 36.4939 58.4873 36.3602C58.489 36.3574 58.4856 36.3514 58.4873 36.3487C58.5772 36.215 58.6624 36.078 58.7397 35.9357C58.7414 35.9329 58.738 35.9272 58.7397 35.9242C58.8167 35.7818 58.8942 35.6383 58.9577 35.4881C58.9589 35.4848 58.9566 35.48 58.9577 35.4767C59.0209 35.3265 59.0809 35.1748 59.1298 35.0177C59.131 35.0137 59.1287 35.0097 59.1298 35.0062C59.1784 34.849 59.2225 34.6875 59.2561 34.5243C59.2566 34.5203 59.2555 34.5164 59.2561 34.5128C59.2893 34.3495 59.319 34.1881 59.3364 34.0194C59.3368 34.0155 59.336 34.0117 59.3364 34.0079C59.3534 33.8391 59.359 33.6649 59.3594 33.4916V33.4801V7.01968C59.3594 7.01574 59.3594 7.01202 59.3594 7.00825C59.3594 6.83483 59.3531 6.66077 59.3364 6.49189C59.336 6.48795 59.3368 6.48423 59.3364 6.48041C59.3194 6.31172 59.2889 6.15034 59.2561 5.987C59.2555 5.98306 59.2566 5.97912 59.2561 5.97552C59.2228 5.81225 59.1781 5.6507 59.1298 5.49359C59.1287 5.49021 59.131 5.48548 59.1298 5.48216C59.0813 5.32513 59.0206 5.17322 58.9577 5.02317C58.9566 5.0198 58.9589 5.0149 58.9577 5.01169C58.8945 4.86168 58.8164 4.71788 58.7397 4.57566C58.738 4.57284 58.7414 4.56698 58.7397 4.56423C58.6627 4.42207 58.577 4.28469 58.4873 4.15114C58.4856 4.14833 58.489 4.14213 58.4873 4.13966C58.3972 4.0061 58.2909 3.88511 58.1889 3.761C58.1872 3.75875 58.1906 3.75166 58.1889 3.74952C58.0867 3.62548 57.981 3.50756 57.8676 3.3938C57.7502 3.27595 57.629 3.16699 57.5005 3.06104C56.6166 2.3298 55.4825 1.89062 54.2417 1.89062H27.7583V1.89077ZM30.9368 2.75137H31.0745C29.8753 3.3162 29.0435 4.64353 29.0435 6.19374V13.6866C29.0435 15.4535 30.1322 16.9109 31.6023 17.3011C31.3094 18.2341 31.1433 19.2207 31.1433 20.2501C31.1433 21.2795 31.3094 22.2662 31.6023 23.1991C30.1322 23.5893 29.0435 25.0467 29.0435 26.8136V34.3065C29.0435 35.8567 29.8753 37.184 31.0745 37.7489H30.9368C29.5846 37.7489 28.3669 37.2071 27.4829 36.326C27.3744 36.2178 27.2596 36.1112 27.1616 35.9932C27.1599 35.991 27.1633 35.9841 27.1616 35.9818C27.0641 35.8638 26.9725 35.7415 26.8862 35.6146C26.8846 35.6118 26.8879 35.6058 26.8862 35.6031C26.8003 35.4761 26.7077 35.3482 26.6338 35.213C26.6321 35.2102 26.6355 35.2045 26.6338 35.2016C26.5603 35.0664 26.4879 34.9311 26.4272 34.7885C26.4256 34.7851 26.4289 34.7803 26.4272 34.777C26.3669 34.6343 26.3134 34.4903 26.2666 34.341C26.2655 34.337 26.2677 34.333 26.2666 34.3295C26.2202 34.1801 26.184 34.0258 26.1519 33.8705C26.1513 33.8671 26.1524 33.8627 26.1519 33.8591C26.1201 33.7037 26.0882 33.5492 26.0715 33.3886C26.0711 33.3847 26.0719 33.3809 26.0715 33.3771C26.0553 33.2164 26.049 33.0488 26.0486 32.8837V32.8723V7.62815C26.0486 7.6242 26.0486 7.62049 26.0486 7.61666C26.0486 7.45148 26.0556 7.2841 26.0715 7.12326C26.0719 7.11932 26.0711 7.11555 26.0715 7.11183C26.0878 6.95116 26.1205 6.79692 26.1519 6.64137C26.1524 6.63743 26.1513 6.63348 26.1519 6.62988C26.1836 6.47444 26.2205 6.32048 26.2666 6.1709C26.2677 6.16752 26.2655 6.16284 26.2666 6.15947C26.3131 6.00999 26.3672 5.86627 26.4272 5.72343C26.4289 5.72005 26.4256 5.71516 26.4272 5.71195C26.4876 5.56915 26.5606 5.43424 26.6338 5.29887C26.6355 5.29605 26.6321 5.29014 26.6338 5.28738C26.7074 5.15198 26.8005 5.02444 26.8862 4.89724C26.8879 4.89443 26.8846 4.88823 26.8862 4.88576C26.9722 4.75866 27.0643 4.63669 27.1616 4.51857C27.1633 4.51632 27.1599 4.50923 27.1616 4.50709C27.2594 4.38894 27.3746 4.2827 27.4829 4.17433C28.3669 3.29321 29.5846 2.75148 30.9368 2.75148V2.75137ZM50.9255 2.75137H51.0632C52.4154 2.75137 53.6359 3.29309 54.5171 4.17422C54.625 4.28252 54.7295 4.38889 54.8269 4.50698C54.8286 4.50923 54.8252 4.51627 54.8269 4.51847C54.9239 4.63664 55.028 4.75848 55.1137 4.88566C55.1154 4.88847 55.1121 4.89466 55.1137 4.89709C55.1991 5.02422 55.2814 5.1519 55.3547 5.28723C55.3564 5.29004 55.353 5.29584 55.3547 5.29871C55.4276 5.43409 55.5011 5.56899 55.5612 5.71179C55.5624 5.71516 55.5601 5.72006 55.5612 5.72327C55.621 5.86611 55.6757 6.00984 55.7219 6.15931C55.723 6.16269 55.7208 6.1673 55.7219 6.17074C55.7678 6.32032 55.805 6.47428 55.8366 6.62973C55.8372 6.63366 55.8361 6.63755 55.8366 6.64121C55.8679 6.79677 55.9008 6.95102 55.917 7.11167C55.9174 7.11561 55.9166 7.11933 55.917 7.12316C55.9328 7.284 55.9399 7.45137 55.9399 7.61655C55.9399 7.6205 55.9399 7.62421 55.9399 7.62804V32.8721V32.8836C55.9395 33.0487 55.9332 33.2163 55.917 33.377C55.9166 33.381 55.9174 33.3849 55.917 33.3885C55.9004 33.549 55.8682 33.7035 55.8366 33.8589C55.8361 33.8629 55.8372 33.8668 55.8366 33.8704C55.8047 34.0257 55.7681 34.18 55.7219 34.3294C55.7208 34.3328 55.723 34.3374 55.7219 34.3409C55.6753 34.4902 55.6213 34.6342 55.5612 34.7769C55.5601 34.7803 55.5624 34.7851 55.5612 34.7884C55.5008 34.931 55.4279 35.0663 55.3547 35.2015C55.353 35.2043 55.3564 35.21 55.3547 35.213C55.2812 35.3481 55.1993 35.4762 55.1137 35.6031C55.1121 35.6059 55.1154 35.6119 55.1137 35.6146C55.0278 35.7416 54.9241 35.8638 54.8269 35.9818C54.8252 35.984 54.8286 35.9909 54.8269 35.9933C54.7293 36.1112 54.6252 36.2179 54.5171 36.326C53.6359 37.2071 52.4154 37.7489 51.0632 37.7489H50.9255C52.1226 37.184 52.9565 35.8567 52.9565 34.3065V26.8136C52.9565 25.0455 51.8784 23.5766 50.4092 23.1876C50.6993 22.2587 50.8567 21.2744 50.8567 20.2501C50.8567 19.2258 50.6993 18.2415 50.4092 17.3126C51.8784 16.9237 52.9565 15.4547 52.9565 13.6867V6.19375C52.9565 4.64354 52.1226 3.3162 50.9255 2.75137ZM32.7727 4.94302H49.2273C50.989 4.94302 52.4057 6.54039 52.4057 8.51162V11.3688C52.4057 13.3181 51.0191 14.8912 49.2846 14.9259C47.5302 12.204 44.4782 10.3935 41 10.3935C37.5218 10.3935 34.4698 12.204 32.7153 14.9259C30.9811 14.8912 29.6057 13.3181 29.6057 11.3688V8.51162C29.6057 6.54039 31.011 4.94302 32.7727 4.94302ZM41 12.5048C43.6172 12.5048 45.9773 13.4349 47.6438 14.9259C47.6582 14.9389 47.6754 14.9474 47.6897 14.9603C47.8183 15.0768 47.9369 15.2043 48.0569 15.3275C48.1272 15.3997 48.1961 15.4711 48.2634 15.5455C48.4105 15.7081 48.5447 15.8665 48.6765 16.0389C48.6933 16.0608 48.7058 16.0857 48.7224 16.1078C48.7954 16.2055 48.8725 16.3055 48.9404 16.4061C49.013 16.5136 49.0803 16.6282 49.1469 16.7389C49.1932 16.8156 49.2414 16.8901 49.2846 16.9684C49.365 17.114 49.4443 17.2654 49.5141 17.4159C49.9213 18.2933 50.1452 19.2504 50.1452 20.2501C50.1452 21.2497 49.9213 22.2069 49.5141 23.0843C49.4443 23.2347 49.365 23.3862 49.2846 23.5318C49.2414 23.61 49.1931 23.6845 49.1469 23.7613C49.0803 23.872 49.013 23.9866 48.9404 24.0941C48.8725 24.1947 48.7954 24.2947 48.7224 24.3924C48.7058 24.4145 48.6933 24.4393 48.6765 24.4613C48.5447 24.6337 48.4105 24.7921 48.2634 24.9547C48.1569 25.0724 48.0448 25.1866 47.9306 25.2989C47.8494 25.3788 47.7746 25.4629 47.6897 25.5399C47.6753 25.5529 47.6582 25.5614 47.6438 25.5743C45.9773 27.0653 43.6172 27.9954 41 27.9954C38.3828 27.9954 36.0226 27.0653 34.3562 25.5743C34.3419 25.5615 34.3245 25.5527 34.3103 25.5399C34.226 25.4634 34.15 25.3782 34.0693 25.2989C34.0276 25.2579 33.9838 25.2145 33.9431 25.1727C33.8899 25.1181 33.8339 25.0679 33.7825 25.012C33.7656 24.9938 33.7532 24.973 33.7366 24.9547C33.6656 24.8762 33.5975 24.7945 33.53 24.7137C33.4908 24.6666 33.4533 24.6238 33.4153 24.576C33.3846 24.5374 33.3534 24.5003 33.3235 24.4613C33.3066 24.4391 33.2943 24.4147 33.2776 24.3924C33.2029 24.2928 33.129 24.1967 33.0596 24.0941C32.987 23.9866 32.9197 23.8719 32.8531 23.7613C32.8228 23.7111 32.7902 23.663 32.7613 23.6121C32.7461 23.5854 32.7302 23.5588 32.7154 23.5318C32.6672 23.4447 32.6222 23.3567 32.5777 23.2679C32.5477 23.2077 32.5142 23.1452 32.4859 23.0843C32.0787 22.2069 31.8548 21.2497 31.8548 20.2501C31.8548 19.2504 32.0787 18.2933 32.4859 17.4159C32.5148 17.3538 32.547 17.2936 32.5777 17.2323C32.6043 17.1789 32.63 17.1243 32.658 17.0716C32.6765 17.0368 32.6963 17.0029 32.7154 16.9684C32.7587 16.8899 32.8068 16.8159 32.8531 16.7389C32.9197 16.6282 32.987 16.5136 33.0596 16.4061C33.0976 16.3498 33.1348 16.2894 33.1744 16.234C33.2061 16.1897 33.2449 16.1514 33.2776 16.1078C33.2943 16.0855 33.3066 16.0611 33.3235 16.0389C33.3894 15.9531 33.4604 15.8699 33.5301 15.7865C33.5774 15.7297 33.6186 15.67 33.6678 15.6144C33.6893 15.59 33.7148 15.5696 33.7366 15.5455C33.8028 15.4724 33.874 15.3985 33.9432 15.3275C33.9841 15.2854 34.0274 15.2426 34.0694 15.2013C34.1235 15.148 34.1742 15.0926 34.23 15.0406C34.258 15.0145 34.2819 14.9861 34.3103 14.9603C34.3245 14.9475 34.3419 14.9387 34.3562 14.9259C36.0227 13.4349 38.3828 12.5048 41 12.5048ZM41 15.2243C38.2232 15.2243 35.9741 17.4733 35.9741 20.2501C35.9741 23.0269 38.2232 25.276 41 25.276C43.7768 25.276 46.0259 23.0269 46.0259 20.2501C46.0259 17.4733 43.7768 15.2243 41 15.2243ZM41 18.6437C43.277 18.6437 45.1194 19.3615 45.1194 20.2501C45.1194 21.1387 43.277 21.8566 41 21.8566C38.723 21.8566 36.8806 21.1387 36.8806 20.2501C36.8806 19.3615 38.723 18.6437 41 18.6437ZM32.7153 25.5743C34.4698 28.2962 37.5218 30.1068 41 30.1068C44.4782 30.1068 47.5302 28.2962 49.2846 25.5743C51.0191 25.609 52.4057 27.1821 52.4057 29.1315V31.9886C52.4057 33.9599 50.989 35.5572 49.2273 35.5572H32.7727C31.011 35.5572 29.6057 33.9599 29.6057 31.9886V29.1315C29.6057 27.1821 30.9811 25.609 32.7153 25.5743Z" fill="#494852"/>
<path d="M16.5547 80.0938H14.5391V66.4297L10.1328 80.0938H8.39844L4.01562 66.4297V80.0938H1.97656V62.9844H4.76562L9.28906 76.9297L13.7422 62.9844H16.5547V80.0938ZM27.5591 80.0938H25.4497V78.8516C25.2934 79.0547 24.9419 79.3281 24.395 79.6719C24.0044 79.8906 23.5669 80.0625 23.0825 80.1875C22.6138 80.2969 22.0591 80.3516 21.4184 80.3516C21.1059 80.3516 20.7466 80.2812 20.3403 80.1406C19.9341 79.9844 19.5903 79.7656 19.3091 79.4844C18.9966 79.2031 18.7544 78.8672 18.5825 78.4766C18.4263 78.0703 18.3481 77.6172 18.3481 77.1172C18.3481 76.2109 18.5903 75.4297 19.0747 74.7734C19.5591 74.1016 20.1528 73.6406 20.8559 73.3906C21.3247 73.2188 21.8169 73.0938 22.3325 73.0156C22.8638 72.9375 23.3169 72.8984 23.6919 72.8984H25.4497V71.9141C25.4497 71.7578 25.4184 71.5312 25.3559 71.2344C25.3091 70.9219 25.1997 70.6328 25.0278 70.3672C24.8716 70.1172 24.6294 69.9062 24.3013 69.7344C23.9731 69.5469 23.5825 69.4531 23.1294 69.4531C22.5513 69.4531 22.0434 69.6172 21.6059 69.9453C21.1841 70.2734 20.9731 70.75 20.9731 71.375H18.6294C18.6294 70.8438 18.7153 70.375 18.8872 69.9688C19.0747 69.5625 19.3481 69.1953 19.7075 68.8672C20.0825 68.5234 20.5669 68.25 21.1606 68.0469C21.7544 67.8281 22.4106 67.7188 23.1294 67.7188C24.5825 67.7188 25.6841 68.1172 26.4341 68.9141C27.1841 69.7109 27.5591 70.6797 27.5591 71.8203V80.0938ZM25.4497 75.5469V74.5156C25.2153 74.5156 24.8716 74.5234 24.4184 74.5391C23.9809 74.5391 23.4341 74.6016 22.7778 74.7266C22.2153 74.8203 21.7153 75.0312 21.2778 75.3594C20.7622 75.7812 20.5044 76.2891 20.5044 76.8828C20.5044 77.5078 20.6684 77.9531 20.9966 78.2188C21.3247 78.4688 21.7309 78.5938 22.2153 78.5938C22.4028 78.5938 22.6684 78.5547 23.0122 78.4766C23.3559 78.3828 23.6606 78.25 23.9263 78.0781C24.4888 77.7031 24.9263 77.25 25.2388 76.7188C25.3794 76.4219 25.4497 76.0312 25.4497 75.5469ZM37.2509 76.8594C37.2509 77.3594 37.1572 77.8359 36.9697 78.2891C36.7822 78.7266 36.5244 79.0859 36.1963 79.3672C35.8056 79.6953 35.2822 79.9453 34.6259 80.1172C33.9853 80.2734 33.2822 80.3516 32.5166 80.3516C31.6259 80.3516 30.5009 80.1406 29.1416 79.7188V77.4688C29.5947 77.7812 30.1494 78.0469 30.8056 78.2656C31.4619 78.4688 32.0322 78.5703 32.5166 78.5703C33.3291 78.5703 33.9306 78.4688 34.3213 78.2656C34.8681 77.9375 35.1416 77.5078 35.1416 76.9766C35.1416 76.6172 35.04 76.3125 34.8369 76.0625C34.6494 75.8125 34.3916 75.5938 34.0634 75.4062C33.7197 75.2188 33.2588 75.0156 32.6806 74.7969C32.1181 74.5625 31.5713 74.3125 31.04 74.0469C30.5869 73.8281 30.165 73.4766 29.7744 72.9922C29.3838 72.5078 29.1884 71.875 29.1884 71.0938C29.1884 70.0156 29.5713 69.1875 30.3369 68.6094C31.1025 68.0156 32.1025 67.7188 33.3369 67.7188C34.3525 67.7188 35.4306 67.9062 36.5713 68.2812V70.3906C36.1181 70.1406 35.6025 69.9219 35.0244 69.7344C34.4463 69.5312 33.8369 69.4297 33.1963 69.4297C32.665 69.4297 32.2041 69.5625 31.8134 69.8281C31.4384 70.0781 31.2509 70.4297 31.2509 70.8828C31.2509 71.1953 31.3056 71.4531 31.415 71.6562C31.54 71.8594 31.7588 72.0703 32.0713 72.2891C32.3525 72.4609 32.8213 72.6797 33.4775 72.9453C34.1494 73.2109 34.7275 73.4688 35.2119 73.7188C35.7588 74 36.2353 74.3984 36.6416 74.9141C37.0478 75.4297 37.2509 76.0781 37.2509 76.8594ZM46.2163 76.8594C46.2163 77.3594 46.1225 77.8359 45.935 78.2891C45.7475 78.7266 45.4897 79.0859 45.1616 79.3672C44.7709 79.6953 44.2475 79.9453 43.5913 80.1172C42.9506 80.2734 42.2475 80.3516 41.4819 80.3516C40.5913 80.3516 39.4663 80.1406 38.1069 79.7188V77.4688C38.56 77.7812 39.1147 78.0469 39.7709 78.2656C40.4272 78.4688 40.9975 78.5703 41.4819 78.5703C42.2944 78.5703 42.8959 78.4688 43.2866 78.2656C43.8334 77.9375 44.1069 77.5078 44.1069 76.9766C44.1069 76.6172 44.0053 76.3125 43.8022 76.0625C43.6147 75.8125 43.3569 75.5938 43.0288 75.4062C42.685 75.2188 42.2241 75.0156 41.6459 74.7969C41.0834 74.5625 40.5366 74.3125 40.0053 74.0469C39.5522 73.8281 39.1303 73.4766 38.7397 72.9922C38.3491 72.5078 38.1538 71.875 38.1538 71.0938C38.1538 70.0156 38.5366 69.1875 39.3022 68.6094C40.0678 68.0156 41.0678 67.7188 42.3022 67.7188C43.3178 67.7188 44.3959 67.9062 45.5366 68.2812V70.3906C45.0834 70.1406 44.5678 69.9219 43.9897 69.7344C43.4116 69.5312 42.8022 69.4297 42.1616 69.4297C41.6303 69.4297 41.1694 69.5625 40.7788 69.8281C40.4038 70.0781 40.2163 70.4297 40.2163 70.8828C40.2163 71.1953 40.2709 71.4531 40.3803 71.6562C40.5053 71.8594 40.7241 72.0703 41.0366 72.2891C41.3178 72.4609 41.7866 72.6797 42.4428 72.9453C43.1147 73.2109 43.6928 73.4688 44.1772 73.7188C44.7241 74 45.2006 74.3984 45.6069 74.9141C46.0131 75.4297 46.2163 76.0781 46.2163 76.8594ZM58.9081 80.0938H56.1894L49.955 72.3828V80.0938H47.8222V62.9844H49.955V69.9922L55.7441 62.9844H58.3456L51.6425 71.0234L58.9081 80.0938ZM67.0062 74.0469C67.0062 73.4219 66.9359 72.8047 66.7953 72.1953C66.6547 71.5859 66.4437 71.0781 66.1625 70.6719C65.8969 70.25 65.5687 69.9375 65.1781 69.7344C64.7875 69.5312 64.3891 69.4297 63.9828 69.4297C63.5766 69.4297 63.1781 69.5312 62.7875 69.7344C62.3969 69.9375 62.0687 70.25 61.8031 70.6719C61.5219 71.0781 61.3109 71.5859 61.1703 72.1953C61.0297 72.8047 60.9594 73.4219 60.9594 74.0469C60.9594 74.6719 61.0297 75.2891 61.1703 75.8984C61.3109 76.4922 61.5219 76.9922 61.8031 77.3984C62.0687 77.8203 62.3969 78.1328 62.7875 78.3359C63.1781 78.5234 63.5766 78.6172 63.9828 78.6172C64.3891 78.6172 64.7875 78.5234 65.1781 78.3359C65.5687 78.1328 65.8969 77.8203 66.1625 77.3984C66.4437 76.9922 66.6547 76.4922 66.7953 75.8984C66.9359 75.2891 67.0062 74.6719 67.0062 74.0469ZM69.2094 74.0469C69.2094 74.9062 69.0844 75.7344 68.8344 76.5312C68.5844 77.3281 68.2406 78.0078 67.8031 78.5703C67.3187 79.1484 66.7406 79.5938 66.0687 79.9062C65.3969 80.2031 64.7016 80.3516 63.9828 80.3516C63.2641 80.3516 62.5687 80.2031 61.8969 79.9062C61.225 79.5938 60.6469 79.1484 60.1625 78.5703C59.725 78.0078 59.3812 77.3281 59.1312 76.5312C58.8812 75.7344 58.7562 74.9062 58.7562 74.0469C58.7562 73.1875 58.8812 72.3594 59.1312 71.5625C59.3812 70.7656 59.725 70.0781 60.1625 69.5C60.6469 68.9062 61.225 68.4609 61.8969 68.1641C62.5687 67.8672 63.2641 67.7188 63.9828 67.7188C64.7016 67.7188 65.3969 67.8672 66.0687 68.1641C66.7406 68.4609 67.3187 68.9062 67.8031 69.5C68.2406 70.0781 68.5844 70.7656 68.8344 71.5625C69.0844 72.3594 69.2094 73.1875 69.2094 74.0469ZM80.2138 68L76.0419 80.0938H74.1903L69.62 68H71.7997L75.1044 77.1641L78.1747 68H80.2138Z" fill="#141414"/>
</svg>
