<svg width="96" height="86" viewBox="0 0 96 86" fill="none" xmlns="http://www.w3.org/2000/svg">
<path d="M50.2949 1.64063C51.9499 1.85481 53.5449 2.27498 55.0339 2.89138L52.1538 10.522C52.8078 10.8136 53.4384 11.1758 54.0127 11.5891L59.2107 5.28955C60.5154 6.28416 61.6761 7.44583 62.676 8.74344L56.3535 13.9185C56.7692 14.4894 57.1273 15.1044 57.4207 15.7544L65.0857 12.8973C65.709 14.3853 66.1451 15.9589 66.3594 17.6133L58.2812 18.9329C58.3179 19.2858 58.3271 19.6374 58.3271 20C58.3271 20.3585 58.3172 20.7181 58.2812 21.0672L66.3594 22.3982C66.1451 24.0527 65.709 25.6263 65.0857 27.1143L57.4207 24.2456C57.1264 24.8994 56.7713 25.5191 56.3535 26.093L62.676 31.2681C61.6756 32.5653 60.5154 33.7272 59.2107 34.722L54.0127 28.4224C53.4384 28.8356 52.8078 29.1978 52.1538 29.4895L55.0339 37.1201C53.5449 37.7365 51.9499 38.1452 50.2949 38.3594L48.9639 30.3501C48.6465 30.3824 48.3241 30.394 48 30.396C47.6759 30.3921 47.3535 30.3824 47.0361 30.3501L45.7051 38.3594C44.0501 38.1452 42.4551 37.7365 40.966 37.1201L43.8462 29.4895C43.1922 29.1978 42.5616 28.8356 41.9873 28.4224L36.7893 34.722C35.4845 33.7272 34.3243 32.5653 33.324 31.2681L39.6465 26.093C39.2287 25.5191 38.8736 24.8994 38.5793 24.2456L30.9143 27.1143C30.291 25.6263 29.8549 24.0527 29.6406 22.3982L37.7188 21.0672C37.6828 20.7181 37.6729 20.3585 37.6729 20C37.6729 19.6374 37.682 19.2858 37.7188 18.9329L29.6406 17.6133C29.8549 15.9588 30.291 14.3853 30.9143 12.8972L38.5793 15.7544C38.8727 15.1044 39.2308 14.4894 39.6465 13.9185L33.324 8.74343C34.3238 7.44582 35.4845 6.28416 36.7893 5.28955L41.9873 11.5891C42.5616 11.1758 43.1922 10.8136 43.8462 10.522L40.966 2.89137C42.4551 2.27498 44.0501 1.8548 45.7051 1.64062L47.0361 9.66139C47.3534 9.62873 47.6758 9.6173 48 9.6155C48.3242 9.61888 48.6465 9.62873 48.9639 9.66139L50.2949 1.64063ZM48 10.9466C43.0213 11.0077 39.0153 15.0362 39.0154 20L41.666 19.805C41.666 23.3094 44.4901 25.8641 48 25.9324C51.5099 25.8641 54.334 23.3094 54.334 19.805L56.9846 20C56.9847 15.0362 52.9787 11.0077 48 10.9466ZM49.79 12.3579C52.5491 12.3579 53.4275 17.4922 53.4275 19.9771C53.4275 23.12 51.014 24.7845 48 24.8538C44.986 24.7845 42.5725 23.12 42.5725 19.9771C42.5725 17.4922 43.4509 12.3579 46.21 12.3579V16.5462C46.21 17.6043 46.9969 18.4631 48 18.5313C49.0032 18.4631 49.79 17.6043 49.79 16.5462V12.3579Z" fill="#494852"/>
<path d="M5.592 77L0.36 59.456H3.552L6.336 68.72C6.6 69.68 6.864 70.664 7.128 72.2C7.416 70.64 7.68 69.728 7.992 68.72L10.752 59.456H14.136L16.848 68.72C17.136 69.704 17.4 70.712 17.688 72.2C18.024 70.568 18.264 69.632 18.528 68.744L21.36 59.456H24.48L19.152 77H16.176L12.432 64.232L8.616 77H5.592ZM29.4688 77.312C25.9408 77.312 23.4688 74.744 23.4688 71.072C23.4688 67.352 25.8928 64.784 29.3728 64.784C32.9248 64.784 35.1808 67.16 35.1808 70.856V71.744L26.2528 71.768C26.4688 73.856 27.5728 74.912 29.5168 74.912C31.1248 74.912 32.1808 74.288 32.5168 73.16H35.2288C34.7248 75.752 32.5648 77.312 29.4688 77.312ZM29.3968 67.184C27.6688 67.184 26.6128 68.12 26.3248 69.896H32.2768C32.2768 68.264 31.1488 67.184 29.3968 67.184ZM39.7562 77H37.0442V59.144H39.9722V66.872C40.7402 65.552 42.3242 64.76 44.1242 64.76C47.5082 64.76 49.5722 67.4 49.5722 71.144C49.5722 74.792 47.3402 77.312 43.9322 77.312C42.1562 77.312 40.6442 76.52 39.9482 75.152L39.7562 77ZM39.9962 71.024C39.9962 73.16 41.3162 74.624 43.3322 74.624C45.3962 74.624 46.6202 73.136 46.6202 71.024C46.6202 68.912 45.3962 67.4 43.3322 67.4C41.3162 67.4 39.9962 68.888 39.9962 71.024ZM50.2007 65.144H51.9047V63.704C51.9047 60.488 53.5367 59.144 55.9367 59.144C56.3927 59.144 56.9447 59.168 57.4487 59.264V61.76H56.4167C55.0967 61.76 54.8087 62.528 54.8087 63.704V65.144H59.5367V59.144H62.4647V77H59.5367V67.592H54.8087V77H51.9047V67.592H50.2007V65.144ZM64.3569 71.048C64.3569 67.352 67.0209 64.808 70.6929 64.808C74.3649 64.808 77.0289 67.352 77.0289 71.048C77.0289 74.744 74.3649 77.288 70.6929 77.288C67.0209 77.288 64.3569 74.744 64.3569 71.048ZM67.2849 71.048C67.2849 73.208 68.6769 74.672 70.6929 74.672C72.7089 74.672 74.1009 73.208 74.1009 71.048C74.1009 68.888 72.7089 67.424 70.6929 67.424C68.6769 67.424 67.2849 68.888 67.2849 71.048ZM80.8999 77L77.0599 65.144H80.1079L81.6679 70.232C81.9319 71.168 82.1719 72.2 82.3879 73.304C82.6039 72.152 82.8199 71.408 83.2039 70.232L84.8359 65.144H87.8119L89.3959 70.232C89.5399 70.712 90.0199 72.488 90.1639 73.28C90.3559 72.392 90.7399 70.976 90.9559 70.232L92.5399 65.144H95.6359L91.5319 77H88.7959L87.1639 71.864C86.6839 70.304 86.4199 69.176 86.3239 68.576C86.2039 69.128 85.9879 69.968 85.3879 71.912L83.7559 77H80.8999Z" fill="#141414"/>
</svg>
