<svg width="120" height="88" viewBox="0 0 120 88" fill="none" xmlns="http://www.w3.org/2000/svg">
<path d="M60 2.14062L54.6184 7.52221H47.0222V15.1184L41.6406 20.5L47.0222 25.8816V33.4892H54.6299L60 38.8594L65.3701 33.4892H72.9778V25.8816L78.3594 20.5L72.9778 15.1184V7.52221H65.3816L60 2.14062ZM60 7.10913L63.9243 11.0335H69.4665V16.5757L73.3794 20.5L69.4665 24.4128H66.8848C66.8893 24.3182 66.8963 24.2225 66.8963 24.126C66.8963 23.6815 66.8504 23.2504 66.77 22.8293L69.5125 19.2263L65.5996 20.1213C65.3366 19.7541 65.0445 19.4086 64.7161 19.1001L65.4963 14.5791L62.4326 17.6773C62.0751 17.5424 61.7026 17.4303 61.3196 17.356L60 12.8809L58.6804 17.356C58.2974 17.4303 57.9249 17.5424 57.5674 17.6773L54.5037 14.5791L55.2839 19.1001C54.9555 19.4086 54.6635 19.7541 54.4004 20.1213L50.4876 19.2263L53.23 22.8293C53.1497 23.2504 53.1038 23.6815 53.1038 24.126C53.1038 24.2226 53.1108 24.3181 53.1152 24.4128H50.5335L46.6091 20.5L50.5335 16.5757V11.0335H56.0757L60 7.10913ZM60 19.3296C60.1672 19.3296 60.3302 19.3451 60.4934 19.364C63.3206 19.6122 64.8973 21.9802 65.1636 24.4243H54.8364C55.1027 21.9802 56.6794 19.6122 59.5066 19.364C59.6673 19.3499 59.8312 19.3296 60 19.3296ZM50.5334 25.9734H69.4665V29.9551H63.9128L60 33.8909L56.0872 29.9551H50.5334V25.9734Z" fill="#494852"/>
<path d="M12.496 60.516C14.896 60.516 16.704 60.98 17.92 61.908C19.136 62.82 19.744 64.164 19.744 65.94C19.744 66.82 19.584 67.836 19.264 68.988C18.736 70.844 18.024 72.316 17.128 73.404C16.232 74.492 15.048 75.284 13.576 75.78C12.12 76.276 10.248 76.516 7.96 76.5L1.432 76.476C1.096 76.476 0.84 76.42 0.664 76.308C0.472 76.196 0.376 76.044 0.376 75.852C0.376 75.756 0.4 75.652 0.448 75.54C0.496 75.396 0.568 75.292 0.664 75.228C0.744 75.164 0.872 75.076 1.048 74.964C1.304 74.82 1.504 74.66 1.648 74.484C1.808 74.308 1.944 74.028 2.056 73.644L4.984 63.324C5.048 63.116 5.08 62.916 5.08 62.724C5.08 62.548 5.048 62.404 4.984 62.292C4.936 62.164 4.864 62.02 4.768 61.86C4.624 61.652 4.552 61.484 4.552 61.356C4.552 61.308 4.568 61.22 4.6 61.092C4.664 60.884 4.8 60.74 5.008 60.66C5.232 60.564 5.568 60.516 6.016 60.516H12.496ZM13.12 68.46C13.536 66.956 13.744 65.772 13.744 64.908C13.744 64.06 13.568 63.476 13.216 63.156C12.864 62.836 12.36 62.676 11.704 62.676H11.176L7.936 74.34H8.512C9.248 74.34 9.864 74.188 10.36 73.884C10.872 73.564 11.344 72.988 11.776 72.156C12.208 71.308 12.656 70.076 13.12 68.46ZM27.1951 63.684C29.2271 63.684 30.6991 64.012 31.6111 64.668C32.5231 65.308 32.9791 66.132 32.9791 67.14C32.9791 67.444 32.9471 67.724 32.8831 67.98C32.6431 69.036 31.9711 69.796 30.8671 70.26C29.7791 70.708 28.4911 70.932 27.0031 70.932C26.2511 70.932 25.5471 70.884 24.8911 70.788C24.8751 71.62 25.0991 72.204 25.5631 72.54C26.0271 72.876 26.6751 73.044 27.5071 73.044C27.8911 73.044 28.2591 73.004 28.6111 72.924C28.9631 72.828 29.4111 72.692 29.9551 72.516C30.4031 72.356 30.7071 72.276 30.8671 72.276C31.0431 72.276 31.1311 72.38 31.1311 72.588C31.1471 73.148 30.9391 73.74 30.5071 74.364C30.0751 74.972 29.4351 75.492 28.5871 75.924C27.7391 76.356 26.7151 76.572 25.5151 76.572C23.7391 76.572 22.2831 76.124 21.1471 75.228C20.0111 74.332 19.4431 73.028 19.4431 71.316C19.4431 70.836 19.5071 70.276 19.6351 69.636C20.0351 67.668 20.9071 66.188 22.2511 65.196C23.6111 64.188 25.2591 63.684 27.1951 63.684ZM25.0591 69.348C25.1231 69.364 25.2111 69.372 25.3231 69.372C25.9951 69.372 26.5071 69.06 26.8591 68.436C27.2111 67.812 27.3791 67.116 27.3631 66.348C27.3471 65.9 27.2191 65.676 26.9791 65.676C26.8031 65.676 26.5951 65.82 26.3551 66.108C26.1151 66.38 25.8751 66.796 25.6351 67.356C25.4111 67.916 25.2191 68.58 25.0591 69.348ZM43.7208 63.804C44.5688 63.804 45.2728 64.108 45.8328 64.716C46.3928 65.324 46.6728 66.156 46.6728 67.212C46.6728 68.636 46.1768 70.092 45.1848 71.58C44.1928 73.068 42.9368 74.3 41.4168 75.276C39.8968 76.236 38.4168 76.716 36.9768 76.716C35.6008 76.716 34.4808 76.436 33.6168 75.876C32.7688 75.316 32.3448 74.516 32.3448 73.476C32.3448 73.092 32.4168 72.66 32.5608 72.18L34.0728 67.02C34.1048 66.892 34.1208 66.796 34.1208 66.732C34.1208 66.572 34.0808 66.436 34.0008 66.324C33.9208 66.212 33.8088 66.092 33.6648 65.964C33.4248 65.756 33.3048 65.572 33.3048 65.412C33.2888 65.188 33.4248 64.948 33.7128 64.692C34.0008 64.436 34.4008 64.228 34.9128 64.068C35.4408 63.892 36.0328 63.804 36.6888 63.804C37.7608 63.804 38.5928 64.068 39.1848 64.596C39.7928 65.108 40.0968 65.78 40.0968 66.612C40.0968 66.98 40.0328 67.38 39.9048 67.812L38.3448 72.948C38.2968 73.092 38.2728 73.212 38.2728 73.308C38.2728 73.516 38.3448 73.676 38.4888 73.788C38.6328 73.9 38.8328 73.956 39.0888 73.956C39.4408 73.956 39.8488 73.804 40.3128 73.5C40.7928 73.18 41.2648 72.732 41.7288 72.156C42.1928 71.564 42.5688 70.868 42.8568 70.068C42.2168 69.508 41.7608 68.956 41.4888 68.412C41.2328 67.868 41.1048 67.308 41.1048 66.732C41.1048 65.916 41.3288 65.228 41.7768 64.668C42.2248 64.092 42.8728 63.804 43.7208 63.804ZM54.8719 60.372C55.7679 60.372 56.5919 60.484 57.3439 60.708C58.1119 60.916 58.8879 61.252 59.6719 61.716L60.2239 61.26C60.6079 60.956 60.9199 60.748 61.1599 60.636C61.4159 60.524 61.7039 60.468 62.0239 60.468C62.4079 60.468 62.7119 60.556 62.9359 60.732C63.1599 60.892 63.2719 61.132 63.2719 61.452C63.2719 61.58 63.2479 61.716 63.1999 61.86L62.1919 65.172C62.0799 65.556 61.9359 65.828 61.7599 65.988C61.5999 66.148 61.3519 66.228 61.0159 66.228C60.6639 66.228 60.3519 66.124 60.0799 65.916C59.8239 65.692 59.4159 65.244 58.8559 64.572C58.2959 63.932 57.7839 63.484 57.3199 63.228C56.8719 62.956 56.4079 62.82 55.9279 62.82C55.5759 62.82 55.2799 62.94 55.0399 63.18C54.7999 63.404 54.6799 63.684 54.6799 64.02C54.6799 64.404 54.8719 64.764 55.2559 65.1C55.6399 65.42 56.2399 65.828 57.0559 66.324C57.8879 66.82 58.5759 67.268 59.1199 67.668C59.6639 68.068 60.1279 68.564 60.5119 69.156C60.8959 69.748 61.0879 70.428 61.0879 71.196C61.0879 71.692 61.0079 72.188 60.8479 72.684C60.4639 73.964 59.7199 74.94 58.6159 75.612C57.5119 76.268 56.2239 76.596 54.7519 76.596C53.6479 76.596 52.7199 76.468 51.9679 76.212C51.2159 75.956 50.4479 75.524 49.6639 74.916L48.7999 75.636C48.3999 75.972 48.0719 76.204 47.8159 76.332C47.5599 76.444 47.2719 76.5 46.9519 76.5C46.5839 76.5 46.2879 76.412 46.0639 76.236C45.8559 76.06 45.7519 75.82 45.7519 75.516C45.7519 75.356 45.7839 75.188 45.8479 75.012L47.0239 71.436C47.1519 71.02 47.3279 70.724 47.5519 70.548C47.7759 70.372 48.0639 70.284 48.4159 70.284C48.7839 70.284 49.1119 70.412 49.3999 70.668C49.7039 70.924 50.0959 71.388 50.5759 72.06C51.0879 72.796 51.5599 73.308 51.9919 73.596C52.4399 73.884 52.9679 74.028 53.5759 74.028C54.0079 74.028 54.3359 73.964 54.5599 73.836C54.7999 73.692 54.9679 73.468 55.0639 73.164C55.0959 73.084 55.1119 72.964 55.1119 72.804C55.1119 72.42 54.9279 72.068 54.5599 71.748C54.1919 71.428 53.6239 71.044 52.8559 70.596C52.0399 70.1 51.3759 69.66 50.8639 69.276C50.3519 68.876 49.9039 68.38 49.5199 67.788C49.1519 67.196 48.9679 66.5 48.9679 65.7C48.9679 65.14 49.0559 64.588 49.2319 64.044C49.5679 62.94 50.2559 62.052 51.2959 61.38C52.3359 60.708 53.5279 60.372 54.8719 60.372ZM74.5148 63.708C75.7468 63.708 76.7148 64.116 77.4188 64.932C78.1228 65.748 78.4748 66.86 78.4748 68.268C78.4748 69.02 78.3708 69.812 78.1628 70.644C77.6828 72.628 76.7868 74.14 75.4748 75.18C74.1628 76.204 72.6428 76.716 70.9148 76.716C69.8108 76.716 68.8508 76.484 68.0348 76.02L67.2668 78.588C67.2028 78.764 67.1708 78.932 67.1708 79.092C67.1708 79.268 67.2108 79.412 67.2908 79.524C67.3708 79.652 67.4748 79.772 67.6028 79.884C67.7308 80.012 67.8108 80.116 67.8428 80.196C67.8908 80.276 67.8988 80.372 67.8668 80.484C67.8028 80.692 67.6508 80.836 67.4108 80.916C67.1708 81.012 66.8028 81.06 66.3068 81.06H60.8108C60.3948 81.06 60.0988 80.988 59.9228 80.844C59.7308 80.716 59.6748 80.548 59.7548 80.34C59.7868 80.212 59.8428 80.108 59.9228 80.028C60.0028 79.948 60.1148 79.876 60.2588 79.812C60.4988 79.652 60.6908 79.484 60.8348 79.308C60.9788 79.148 61.1068 78.884 61.2188 78.516L64.7228 67.02C64.7708 66.876 64.7948 66.756 64.7948 66.66C64.7948 66.484 64.7548 66.348 64.6748 66.252C64.5948 66.14 64.4748 66.028 64.3148 65.916C64.1548 65.788 64.0428 65.676 63.9788 65.58C63.9148 65.484 63.9068 65.356 63.9548 65.196C64.0508 64.828 64.5548 64.508 65.4668 64.236C66.3788 63.948 67.3308 63.804 68.3228 63.804C69.0268 63.804 69.6028 63.98 70.0508 64.332C70.5148 64.684 70.7788 65.172 70.8428 65.796C71.9308 64.404 73.1548 63.708 74.5148 63.708ZM71.7308 70.836C72.1148 69.412 72.3068 68.428 72.3068 67.884C72.3068 67.548 72.2508 67.332 72.1388 67.236C72.0428 67.124 71.8988 67.068 71.7068 67.068C71.5628 67.068 71.3788 67.14 71.1548 67.284C70.9308 67.412 70.7068 67.636 70.4828 67.956L68.5868 74.244C68.7788 74.436 69.0108 74.532 69.2828 74.532C69.7148 74.532 70.1228 74.292 70.5068 73.812C70.9068 73.316 71.3148 72.324 71.7308 70.836ZM86.6446 63.804C88.4846 63.804 89.9566 64.148 91.0606 64.836C92.1646 65.508 92.7166 66.54 92.7166 67.932C92.7166 68.46 92.6206 69.06 92.4286 69.732L91.4446 73.044C91.4286 73.108 91.4206 73.188 91.4206 73.284C91.4206 73.54 91.5246 73.668 91.7326 73.668C91.9246 73.668 92.0846 73.588 92.2126 73.428C92.3566 73.252 92.4526 73.164 92.5006 73.164C92.5806 73.164 92.6446 73.22 92.6926 73.332C92.7566 73.444 92.7886 73.572 92.7886 73.716C92.8046 74.148 92.6366 74.588 92.2846 75.036C91.9486 75.484 91.4926 75.852 90.9166 76.14C90.3406 76.428 89.7086 76.572 89.0206 76.572C88.1886 76.572 87.4766 76.42 86.8846 76.116C86.2926 75.812 85.8846 75.364 85.6606 74.772C85.1806 75.348 84.6126 75.796 83.9566 76.116C83.3006 76.42 82.5966 76.572 81.8446 76.572C80.9966 76.572 80.2846 76.412 79.7086 76.092C79.1326 75.756 78.7006 75.332 78.4126 74.82C78.1406 74.292 78.0046 73.74 78.0046 73.164C78.0046 72.908 78.0286 72.66 78.0766 72.42C78.3326 71.316 78.8846 70.484 79.7326 69.924C80.5966 69.364 81.6206 69.084 82.8046 69.084C84.1326 69.084 85.4366 69.292 86.7166 69.708L87.3166 68.124C87.5246 67.452 87.6286 66.932 87.6286 66.564C87.6126 66.18 87.4846 65.892 87.2446 65.7C87.0046 65.508 86.6366 65.412 86.1406 65.412C86.2366 65.668 86.2846 65.932 86.2846 66.204C86.2846 66.796 86.0606 67.308 85.6126 67.74C85.1646 68.172 84.5246 68.388 83.6926 68.388C82.9086 68.388 82.2926 68.22 81.8446 67.884C81.4126 67.532 81.1966 67.1 81.1966 66.588C81.1966 65.788 81.6446 65.124 82.5406 64.596C83.4366 64.068 84.8046 63.804 86.6446 63.804ZM85.3006 71.076C84.8526 71.076 84.4846 71.252 84.1966 71.604C83.9246 71.94 83.7886 72.308 83.7886 72.708C83.7886 72.964 83.8446 73.172 83.9566 73.332C84.0846 73.492 84.2606 73.572 84.4846 73.572C84.6926 73.572 84.9166 73.492 85.1566 73.332C85.4126 73.156 85.5966 72.9 85.7086 72.564L86.2126 71.148C85.9406 71.1 85.6366 71.076 85.3006 71.076ZM101.285 63.684C102.261 63.684 103.117 63.828 103.853 64.116C104.589 64.388 105.157 64.772 105.557 65.268C105.973 65.748 106.181 66.284 106.181 66.876C106.181 67.516 105.957 68.044 105.509 68.46C105.077 68.876 104.485 69.084 103.733 69.084C102.965 69.084 102.365 68.892 101.933 68.508C101.501 68.108 101.285 67.572 101.285 66.9C101.285 66.58 101.333 66.244 101.429 65.892C100.757 66.068 100.157 66.42 99.6291 66.948C99.1171 67.46 98.7731 68.14 98.5971 68.988C98.5011 69.468 98.4531 69.9 98.4531 70.284C98.4531 71.148 98.6931 71.804 99.1731 72.252C99.6531 72.7 100.341 72.924 101.237 72.924C101.749 72.924 102.189 72.876 102.557 72.78C102.925 72.668 103.301 72.524 103.685 72.348C104.005 72.188 104.237 72.108 104.381 72.108C104.477 72.108 104.541 72.132 104.573 72.18C104.605 72.212 104.621 72.292 104.621 72.42C104.637 73.012 104.389 73.636 103.877 74.292C103.381 74.932 102.685 75.476 101.789 75.924C100.909 76.356 99.9171 76.572 98.8131 76.572C97.6611 76.572 96.6371 76.364 95.7411 75.948C94.8611 75.516 94.1731 74.908 93.6771 74.124C93.1971 73.324 92.9571 72.396 92.9571 71.34C92.9571 70.844 93.0211 70.292 93.1491 69.684C93.5811 67.7 94.5331 66.204 96.0051 65.196C97.4931 64.188 99.2531 63.684 101.285 63.684ZM113.237 63.684C115.269 63.684 116.741 64.012 117.653 64.668C118.565 65.308 119.021 66.132 119.021 67.14C119.021 67.444 118.989 67.724 118.925 67.98C118.685 69.036 118.013 69.796 116.909 70.26C115.821 70.708 114.533 70.932 113.045 70.932C112.293 70.932 111.589 70.884 110.933 70.788C110.917 71.62 111.141 72.204 111.605 72.54C112.069 72.876 112.717 73.044 113.549 73.044C113.933 73.044 114.301 73.004 114.653 72.924C115.005 72.828 115.453 72.692 115.997 72.516C116.445 72.356 116.749 72.276 116.909 72.276C117.085 72.276 117.173 72.38 117.173 72.588C117.189 73.148 116.981 73.74 116.549 74.364C116.117 74.972 115.477 75.492 114.629 75.924C113.781 76.356 112.757 76.572 111.557 76.572C109.781 76.572 108.325 76.124 107.189 75.228C106.053 74.332 105.485 73.028 105.485 71.316C105.485 70.836 105.549 70.276 105.677 69.636C106.077 67.668 106.949 66.188 108.293 65.196C109.653 64.188 111.301 63.684 113.237 63.684ZM111.101 69.348C111.165 69.364 111.253 69.372 111.365 69.372C112.037 69.372 112.549 69.06 112.901 68.436C113.253 67.812 113.421 67.116 113.405 66.348C113.389 65.9 113.261 65.676 113.021 65.676C112.845 65.676 112.637 65.82 112.397 66.108C112.157 66.38 111.917 66.796 111.677 67.356C111.453 67.916 111.261 68.58 111.101 69.348Z" fill="#141414"/>
</svg>
