<svg width="112" height="88" viewBox="0 0 112 88" fill="none" xmlns="http://www.w3.org/2000/svg">
<path d="M56 1.64062L37.6406 10.981C40.4056 11.4074 43.4561 11.7365 46.7056 11.9563L55.0935 3.20117L48.0366 12.0366C49.0327 12.0936 50.0499 12.1377 51.0774 12.1743C51.8467 10.2042 53.7575 8.80077 56 8.80077C58.2424 8.80077 60.1533 10.2042 60.9226 12.1743C61.9511 12.1376 62.9664 12.0937 63.9634 12.0366L56.9065 3.20117L65.2944 11.9563C68.5434 11.7364 71.5925 11.4075 74.3594 10.981L56 1.64062ZM56 10.063C53.7766 10.063 51.9724 11.8672 51.9724 14.0906C51.9724 16.314 53.7766 18.1182 56 18.1182C58.2234 18.1182 60.0276 16.314 60.0276 14.0906C60.0276 11.8672 58.2234 10.063 56 10.063ZM37.6636 11.417L40.6699 15.8347C40.7903 15.7681 40.9161 15.7101 41.0486 15.6741C41.1761 15.6391 41.3066 15.6098 41.4387 15.6052C43.4209 15.5366 45.8643 18.7994 47.0728 23.2358C47.336 24.2023 47.515 25.1461 47.6235 26.0471L56 38.3594L64.388 26.0356C64.4967 25.1382 64.6766 24.1981 64.9387 23.2358C66.1472 18.7994 68.6021 15.5366 70.5843 15.6052C70.7164 15.6097 70.8469 15.6393 70.9744 15.6741C71.1019 15.709 71.2139 15.7602 71.3301 15.8232L74.3364 11.417C71.7003 12.0504 68.6676 12.5444 65.3748 12.8743L56.9065 34.699L63.929 13.012C63.0403 13.0859 62.1296 13.1466 61.2095 13.1955C61.2593 13.4871 61.2898 13.7848 61.2898 14.0906C61.2898 17.0115 58.9209 19.3804 56 19.3804C53.0791 19.3804 50.7102 17.0115 50.7102 14.0906C50.7102 13.7848 50.7407 13.4871 50.7905 13.1955C49.8692 13.1466 48.9607 13.0859 48.0711 13.012L55.0935 34.699L46.6253 12.8743C43.3319 12.5446 40.298 12.0503 37.6636 11.417ZM41.7715 16.9707C41.7029 16.9784 41.6441 16.9912 41.5764 17.0052C41.3635 17.0492 41.1585 17.1396 40.9683 17.2691C42.4946 18.6423 43.5627 23.4215 43.4812 29.1454C43.4394 32.083 43.1069 34.792 42.5747 36.9366C43.309 37.7616 44.076 38.1787 44.8123 38.0267C46.9775 37.5796 48.0158 32.5187 47.1187 26.7127C46.2776 21.2696 44.0381 17.1009 41.978 16.9708C41.9094 16.9663 41.8401 16.963 41.7715 16.9707ZM70.0335 16.9707C67.9734 17.1008 65.7339 21.2695 64.8928 26.7126C63.9957 32.5186 65.0341 37.5795 67.1992 38.0266C67.9355 38.1786 68.7025 37.7615 69.4368 36.9365C68.9047 34.7919 68.5721 32.0829 68.5303 29.1453C68.4488 23.4215 69.517 18.6422 71.0432 17.269C70.853 17.1395 70.648 17.0491 70.4351 17.0051C70.3674 16.9912 70.3086 16.9783 70.24 16.9706C70.1715 16.9629 70.1021 16.9661 70.0335 16.9706L70.0335 16.9707Z" fill="#494852"/>
<path d="M2.18 77V61.016C2.532 61 2.932 60.992 3.38 60.992C3.844 60.992 4.324 60.992 4.82 60.992C5.316 60.992 5.796 60.992 6.26 60.992C6.724 60.992 7.132 61 7.484 61.016C9.116 61.048 10.404 61.488 11.348 62.336C12.308 63.168 12.788 64.344 12.788 65.864C12.788 66.952 12.54 67.904 12.044 68.72C11.564 69.536 10.892 70.168 10.028 70.616C9.18 71.064 8.196 71.288 7.076 71.288H5.516V77H2.18ZM5.516 68.456H6.932C7.716 68.456 8.324 68.232 8.756 67.784C9.204 67.336 9.428 66.728 9.428 65.96C9.428 64.552 8.652 63.848 7.1 63.848H5.516V68.456ZM16.3794 62.6V59.48H20.2434V62.6H16.3794ZM14.5074 77V74.096H16.8114V67.544H14.5074V64.64H20.1954V74.096H22.2594V77H14.5074ZM31.6299 77.192L28.9659 73.208L26.4939 77H22.6539L27.2139 70.616L23.0859 64.64L26.8299 64.448L29.1579 67.952L31.3179 64.64H35.0139L30.9339 70.448L35.3739 77L31.6299 77.192ZM42.1004 77.36C40.1164 77.36 38.5484 76.784 37.3964 75.632C36.2444 74.48 35.6684 72.88 35.6684 70.832C35.6684 69.488 35.9164 68.328 36.4124 67.352C36.9084 66.376 37.6044 65.624 38.5004 65.096C39.4124 64.568 40.4764 64.304 41.6924 64.304C43.4844 64.304 44.8604 64.88 45.8204 66.032C46.7804 67.184 47.2604 68.848 47.2604 71.024C47.2604 71.168 47.2604 71.312 47.2604 71.456C47.2604 71.584 47.2524 71.712 47.2364 71.84H39.0764C39.3964 73.568 40.5404 74.432 42.5084 74.432C43.1164 74.432 43.7324 74.36 44.3564 74.216C44.9964 74.056 45.5564 73.848 46.0364 73.592L46.5884 76.304C45.2604 77.008 43.7644 77.36 42.1004 77.36ZM39.0524 69.296H44.0204C43.9724 68.608 43.7324 68.064 43.3004 67.664C42.8684 67.248 42.2924 67.04 41.5724 67.04C40.8844 67.04 40.3164 67.24 39.8684 67.64C39.4364 68.04 39.1644 68.592 39.0524 69.296ZM48.5255 77V74.096H50.7095V62.36H48.6455V59.48H54.0935V74.096H56.2775V77H48.5255ZM58.1394 77V61.016H67.9074V64.04H61.6194V67.688H66.8274V70.688H61.6194V77H58.1394ZM69.3858 77V74.096H71.5698V62.36H69.5058V59.48H74.9538V74.096H77.1378V77H69.3858ZM84.3104 77.36C83.0464 77.36 81.9424 77.088 80.9984 76.544C80.0544 76 79.3184 75.24 78.7904 74.264C78.2624 73.288 77.9984 72.144 77.9984 70.832C77.9984 69.52 78.2624 68.376 78.7904 67.4C79.3184 66.424 80.0544 65.664 80.9984 65.12C81.9424 64.576 83.0384 64.304 84.2864 64.304C85.5504 64.304 86.6464 64.576 87.5744 65.12C88.5184 65.648 89.2544 66.4 89.7824 67.376C90.3104 68.336 90.5744 69.464 90.5744 70.76C90.5744 72.072 90.3104 73.224 89.7824 74.216C89.2704 75.208 88.5424 75.984 87.5984 76.544C86.6544 77.088 85.5584 77.36 84.3104 77.36ZM84.2864 74.432C85.1504 74.432 85.8384 74.104 86.3504 73.448C86.8784 72.776 87.1424 71.896 87.1424 70.808C87.1424 69.72 86.8784 68.856 86.3504 68.216C85.8384 67.56 85.1504 67.232 84.2864 67.232C83.4224 67.232 82.7264 67.56 82.1984 68.216C81.6864 68.856 81.4304 69.72 81.4304 70.808C81.4304 71.896 81.6864 72.776 82.1984 73.448C82.7264 74.104 83.4224 74.432 84.2864 74.432ZM94.6936 77L91.0936 64.64H94.5496L96.7576 72.824L99.1336 64.712L102.95 64.4L105.518 73.064L107.774 64.64H110.99L107.222 77H103.526L100.982 68.024L98.3176 77H94.6936Z" fill="#141414"/>
</svg>
