<svg width="108" height="86" viewBox="0 0 108 86" fill="none" xmlns="http://www.w3.org/2000/svg">
<path d="M48 1.64062L45.369 7.10074C41.1429 7.01372 35.0946 4.69662 31.7385 3.52643C32.0697 5.86291 34.5634 11.3215 34.7057 14.2055L29.6406 15.258L34.8216 20.8716C34.7779 25.4716 31.6927 31.4886 30.4636 34.7193C31.5186 34.5848 36.1648 32.9589 37.3367 32.8554L36.8267 38.3594L45.8905 33.2391C45.8025 32.9886 45.7515 32.7194 45.7515 32.4387C45.7515 31.1613 46.7389 30.1202 48 30.0266C49.2611 30.1202 50.2486 31.1613 50.2486 32.4387C50.2486 32.7194 50.1976 32.9886 50.1095 33.2391L59.1733 38.3594L58.6633 32.8554C59.8352 32.9589 64.4815 34.5848 65.5365 34.7193C64.3074 31.4886 61.2221 25.4716 61.1784 20.8716L66.3594 15.258L61.2943 14.2055C61.4366 11.3215 63.9303 5.86291 64.2615 3.52643C60.9054 4.69662 54.8571 7.01372 50.631 7.10074L48 1.64062ZM34.0566 6.09204C36.9078 7.23303 41.2782 8.74112 44.3722 8.84403L43.4681 10.4119C44.3834 10.7603 45.0328 11.6265 45.0328 12.6595C45.0328 13.9986 43.9351 15.0826 42.5873 15.0826C41.3759 15.0826 40.3787 14.2034 40.188 13.0542L36.5254 13.8217C36.3972 11.7884 34.934 8.23418 34.0566 6.09204ZM61.9434 6.09204C61.066 8.23418 59.6028 11.7884 59.4746 13.8217L55.812 13.0542C55.6214 14.2034 54.6242 15.0826 53.4128 15.0826C52.0649 15.0826 50.9672 13.9986 50.9672 12.6595C50.9672 11.6265 51.6167 10.7603 52.5319 10.4119L51.6279 8.84403C54.7218 8.74111 59.0922 7.23303 61.9434 6.09204ZM48 12.5609L50.0052 16.0365C49.5795 16.1985 49.2866 16.5976 49.2866 17.0781C49.2866 17.7009 49.7955 18.2074 50.4225 18.2074C50.9859 18.2074 51.4465 17.8099 51.5351 17.2754L56.4379 18.2951L53.0998 21.9132C52.8925 21.6305 52.5513 21.4637 52.1726 21.4637C51.5457 21.4637 51.0367 21.9592 51.0367 22.582C51.0367 23.2048 51.5457 23.7113 52.1726 23.7113C52.3005 23.7113 52.4169 23.6841 52.5319 23.6455L53.0998 28.5574L48.8925 26.6497C48.9335 26.5332 48.9388 26.4184 48.9388 26.2879C48.9388 25.729 48.5354 25.2785 48 25.1915C47.4646 25.2785 47.0612 25.729 47.0612 26.2879C47.0612 26.4184 47.0668 26.5332 47.1076 26.6497L42.9002 28.5574L43.4681 23.6455C43.5831 23.6842 43.6995 23.7113 43.8274 23.7113C44.4543 23.7113 44.9633 23.2048 44.9633 22.582C44.9633 21.9592 44.4543 21.4637 43.8274 21.4637C43.4488 21.4637 43.1075 21.6305 42.9002 21.9132L39.5621 18.2951L44.4649 17.2754C44.5536 17.8099 45.0142 18.2074 45.5776 18.2074C46.2045 18.2074 46.7135 17.7009 46.7135 17.0781C46.7135 16.5976 46.4206 16.1985 45.9949 16.0365L48 12.5609ZM38.6581 21.979C39.0642 21.979 39.442 22.0706 39.7824 22.2312C39.8542 22.265 39.9231 22.3008 39.991 22.3408C40.0174 22.3562 40.0463 22.368 40.0721 22.3847C40.0791 22.3886 40.0883 22.3913 40.0952 22.3957C40.7991 22.8202 41.2659 23.5881 41.2659 24.4679C41.2659 25.807 40.1797 26.891 38.8319 26.891C38.5568 26.891 38.291 26.8426 38.0437 26.7594L37.5337 31.145C37.0007 31.2011 34.3377 31.8596 33.8364 31.9235C34.5 30.317 35.3134 27.3577 36.1429 24.7091C36.1271 24.6004 36.1197 24.4931 36.1197 24.3802C36.1197 23.826 36.3194 23.3173 36.6529 22.911C36.6569 22.8971 36.6614 22.8809 36.6647 22.8672L36.6765 22.8782C37.1415 22.3308 37.8583 21.9791 38.6584 21.9791L38.6581 21.979ZM57.342 21.979C58.1421 21.979 58.8589 22.3306 59.324 22.8781L59.3357 22.867C59.3397 22.881 59.3442 22.8971 59.3475 22.9109C59.681 23.3171 59.8806 23.8259 59.8806 24.38C59.8806 24.493 59.8733 24.6002 59.8575 24.709C60.687 27.3575 61.5003 30.3168 62.164 31.9233C61.6627 31.8595 58.9998 31.2009 58.4666 31.1449L57.9567 26.7593C57.7094 26.8424 57.4436 26.8908 57.1685 26.8908C55.8206 26.8908 54.7345 25.8068 54.7345 24.4678C54.7345 23.588 55.2012 22.82 55.9051 22.3955C55.9121 22.391 55.9213 22.389 55.9283 22.3845C55.954 22.368 55.983 22.3562 56.0094 22.3406C56.0772 22.3007 56.1461 22.2649 56.218 22.231C56.5585 22.0705 56.9361 21.9788 57.3423 21.9788L57.342 21.979Z" fill="#494852"/>
<path d="M10.7344 76.5312H1.28906V59.0469H3.84375V74.2109H10.7344V76.5312ZM19.1606 70.2969C19.1606 69.6875 19.0903 69.0859 18.9497 68.4922C18.8091 67.8984 18.6059 67.4141 18.3403 67.0391C18.0903 66.6328 17.7856 66.3359 17.4263 66.1484C17.0669 65.9609 16.6997 65.8672 16.3247 65.8672C15.9497 65.8672 15.5825 65.9609 15.2231 66.1484C14.8638 66.3359 14.5513 66.6328 14.2856 67.0391C14.0356 67.4141 13.8403 67.8984 13.6997 68.4922C13.5591 69.0859 13.4888 69.6875 13.4888 70.2969C13.4888 70.9062 13.5591 71.5078 13.6997 72.1016C13.8403 72.6797 14.0356 73.1562 14.2856 73.5312C14.5513 73.9375 14.8638 74.2344 15.2231 74.4219C15.5825 74.5938 15.9497 74.6797 16.3247 74.6797C16.6997 74.6797 17.0669 74.5938 17.4263 74.4219C17.7856 74.2344 18.0903 73.9375 18.3403 73.5312C18.6059 73.1562 18.8091 72.6797 18.9497 72.1016C19.0903 71.5078 19.1606 70.9062 19.1606 70.2969ZM21.7388 70.2969C21.7388 71.1719 21.6138 72.0234 21.3638 72.8516C21.1138 73.6641 20.7544 74.3672 20.2856 74.9609C19.7856 75.5547 19.1841 76.0078 18.4809 76.3203C17.7934 76.6328 17.0747 76.7891 16.3247 76.7891C15.5747 76.7891 14.8481 76.6328 14.145 76.3203C13.4575 76.0078 12.8638 75.5547 12.3638 74.9609C11.895 74.3672 11.5356 73.6641 11.2856 72.8516C11.0356 72.0234 10.9106 71.1719 10.9106 70.2969C10.9106 69.4219 11.0356 68.5781 11.2856 67.7656C11.5356 66.9375 11.895 66.2266 12.3638 65.6328C12.8638 65.0078 13.4575 64.5391 14.145 64.2266C14.8481 63.9141 15.5747 63.7578 16.3247 63.7578C17.0747 63.7578 17.7934 63.9141 18.4809 64.2266C19.1841 64.5391 19.7856 65.0078 20.2856 65.6328C20.7544 66.2266 21.1138 66.9375 21.3638 67.7656C21.6138 68.5781 21.7388 69.4219 21.7388 70.2969ZM30.1416 66.2656C29.4384 66.2656 28.8759 66.3203 28.4541 66.4297C28.0322 66.5391 27.6338 66.7031 27.2588 66.9219C26.8994 67.125 26.5634 67.4219 26.2509 67.8125C25.9541 68.2031 25.7588 68.6641 25.665 69.1953C25.54 69.8516 25.4775 70.5781 25.4775 71.375V76.5312H23.0166V64.0625H25.4775V65.7734C25.8056 65.3047 26.2275 64.8984 26.7431 64.5547C27.54 64.0391 28.6728 63.7734 30.1416 63.7578V66.2656ZM32.5444 69.0781H37.4428C37.4428 68.2188 37.3022 67.4844 37.0209 66.875C36.8491 66.5938 36.6225 66.3672 36.3412 66.1953C36.06 66.0078 35.7241 65.9141 35.3334 65.9141C34.5522 65.9141 33.8881 66.2734 33.3412 66.9922C32.9194 67.5078 32.6537 68.2031 32.5444 69.0781ZM32.6147 71.2109C32.6616 71.5078 32.7397 71.8047 32.8491 72.1016C32.9741 72.4922 33.1694 72.875 33.435 73.25C33.7162 73.6094 34.0678 73.9375 34.4897 74.2344C34.6303 74.3281 34.8569 74.4219 35.1694 74.5156C35.4975 74.5938 35.8803 74.6328 36.3178 74.6328C36.6303 74.6328 37.0444 74.5859 37.56 74.4922C38.0756 74.3984 38.7709 74.1016 39.6459 73.6016V75.8047C38.8803 76.2734 38.1225 76.5703 37.3725 76.6953C36.6225 76.8203 35.8725 76.8438 35.1225 76.7656C34.4662 76.7031 33.81 76.5156 33.1537 76.2031C32.5131 75.875 31.9897 75.4922 31.5834 75.0547C31.1147 74.4922 30.7162 73.7891 30.3881 72.9453C30.0756 72.1016 29.9194 71.1328 29.9194 70.0391C29.9194 69.1328 30.0366 68.3047 30.2709 67.5547C30.5053 66.7891 30.8491 66.1328 31.3022 65.5859C31.7553 65.0391 32.3178 64.6016 32.9897 64.2734C33.6616 63.9297 34.4428 63.7578 35.3334 63.7578C36.0678 63.7578 36.7631 63.9219 37.4194 64.25C38.0756 64.5625 38.5912 64.9688 38.9662 65.4688C39.6537 66.375 39.9975 67.8203 39.9975 69.8047V71.2109H32.6147ZM56.1816 76.5312H53.7675V69.4766C53.7675 69.0234 53.7441 68.5625 53.6972 68.0938C53.6503 67.625 53.58 67.2656 53.4863 67.0156C53.3613 66.7031 53.1972 66.4844 52.9941 66.3594C52.8066 66.2344 52.5644 66.1719 52.2675 66.1719C51.7519 66.1719 51.2909 66.4531 50.8847 67.0156C50.4784 67.5625 50.205 68.3594 50.0644 69.4062C50.0175 69.75 49.9863 70.0547 49.9706 70.3203C49.955 70.5703 49.9472 70.8516 49.9472 71.1641V76.5312H47.58V69.4766C47.58 69.0234 47.5566 68.5781 47.5097 68.1406C47.4784 67.6875 47.4081 67.3125 47.2988 67.0156C47.1738 66.7031 47.0097 66.4844 46.8066 66.3594C46.6191 66.2344 46.3613 66.1719 46.0331 66.1719C45.6738 66.1719 45.3534 66.2969 45.0722 66.5469C44.7909 66.7969 44.5488 67.1797 44.3456 67.6953C44.1581 68.2109 44.0175 68.75 43.9238 69.3125C43.8456 69.875 43.7988 70.4766 43.7831 71.1172V76.5312H41.3456V64.0625H43.7831V65.2109C44.0175 64.8672 44.3534 64.5391 44.7909 64.2266C45.2284 63.9141 45.705 63.7578 46.2206 63.7578C47.2363 63.7578 48.0488 64.0547 48.6581 64.6484C48.9394 64.9141 49.1894 65.2656 49.4081 65.7031C49.5331 65.4844 49.6972 65.25 49.9003 65C50.5253 64.1719 51.3847 63.7578 52.4784 63.7578C53.5409 63.7578 54.4238 64.1406 55.1269 64.9062C55.83 65.6562 56.1816 66.8047 56.1816 68.3516V76.5312ZM67.6547 71.6562C67.6547 73.4062 67.1078 74.7031 66.0141 75.5469C64.9359 76.375 63.4828 76.7891 61.6547 76.7891C60.9672 76.7891 60.2719 76.7109 59.5687 76.5547C58.8656 76.3984 58.2016 76.2188 57.5766 76.0156V73.3438C58.2953 73.6562 58.9437 73.9062 59.5219 74.0938C59.8344 74.1875 60.2016 74.2812 60.6234 74.375C61.0453 74.4531 61.4516 74.4922 61.8422 74.4922C62.2641 74.4922 62.6547 74.4531 63.0141 74.375C63.3891 74.2969 63.725 74.1484 64.0219 73.9297C64.3031 73.7422 64.5453 73.4922 64.7484 73.1797C64.9516 72.8516 65.0531 72.4453 65.0531 71.9609C65.0531 71.4922 64.9594 71.0938 64.7719 70.7656C64.5844 70.4375 64.3578 70.1641 64.0922 69.9453C63.5141 69.4453 62.8969 69.0234 62.2406 68.6797C61.7875 68.4297 61.2797 68.1484 60.7172 67.8359C60.1703 67.5078 59.6469 67.1406 59.1469 66.7344C58.6469 66.3281 58.2328 65.8516 57.9047 65.3047C57.5922 64.7422 57.4359 64.1094 57.4359 63.4062C57.4359 61.7969 57.9203 60.6172 58.8891 59.8672C59.8578 59.1016 61.1078 58.7188 62.6391 58.7188C63.0297 58.7188 63.4203 58.7578 63.8109 58.8359C64.2016 58.8984 64.5531 58.9688 64.8656 59.0469C65.4594 59.1875 66.0609 59.3594 66.6703 59.5625V62.0938C66.0766 61.7656 65.4047 61.5 64.6547 61.2969C63.9047 61.0781 63.1859 60.9688 62.4984 60.9688C61.7797 60.9688 61.1781 61.1719 60.6937 61.5781C60.2094 61.9688 59.9672 62.5234 59.9672 63.2422C59.9672 63.5391 60.0375 63.8047 60.1781 64.0391C60.3344 64.2578 60.5141 64.4688 60.7172 64.6719C60.9359 64.9062 61.1859 65.125 61.4672 65.3281C61.7484 65.5156 62.0609 65.6953 62.4047 65.8672C63.4984 66.4609 64.3266 66.9453 64.8891 67.3203C65.4516 67.6797 65.9125 68.0312 66.2719 68.375C66.6937 68.7656 67.0219 69.2188 67.2562 69.7344C67.4906 70.2344 67.6234 70.875 67.6547 71.6562ZM75.1669 66.1953H72.1434V72.2891C72.1434 72.6484 72.1434 72.9766 72.1434 73.2734C72.1434 73.5547 72.1981 73.8359 72.3075 74.1172C72.3856 74.2891 72.5106 74.4219 72.6825 74.5156C72.87 74.5938 73.1356 74.6328 73.4794 74.6328C73.8075 74.6328 74.3544 74.5625 75.12 74.4219V76.6484C74.4638 76.7422 73.7763 76.7891 73.0575 76.7891C71.9325 76.7891 71.0809 76.5156 70.5028 75.9688C69.9247 75.4062 69.6356 74.6328 69.6356 73.6484V66.1953H67.8075V64.0625H69.6356V61.4609L72.1434 60.1719V64.0625H75.1669V66.1953ZM85.2103 76.5312H82.7259V75.4297C82.5228 75.6328 82.265 75.8438 81.9525 76.0625C81.5619 76.3125 81.1166 76.5 80.6166 76.625C80.1166 76.7344 79.5306 76.7891 78.8587 76.7891C78.5462 76.7891 78.1712 76.7109 77.7337 76.5547C77.3119 76.3984 76.9525 76.1719 76.6556 75.875C76.3119 75.5781 76.0541 75.2188 75.8822 74.7969C75.7103 74.375 75.6244 73.8984 75.6244 73.3672C75.6244 72.4141 75.8744 71.5859 76.3744 70.8828C76.89 70.1797 77.515 69.7031 78.2494 69.4531C78.7337 69.2812 79.2416 69.1562 79.7728 69.0781C80.3041 69 80.7494 68.9609 81.1087 68.9609H82.7259V68.1406C82.7259 68.0156 82.6947 67.8125 82.6322 67.5312C82.5853 67.2344 82.4837 66.9688 82.3275 66.7344C82.1869 66.5 81.9681 66.3047 81.6712 66.1484C81.3744 65.9922 81.015 65.9141 80.5931 65.9141C80.0619 65.9141 79.6009 66.0625 79.2103 66.3594C78.8353 66.6406 78.6478 67.125 78.6478 67.8125H75.9056C75.9056 67.125 75.9916 66.5703 76.1634 66.1484C76.3509 65.7109 76.6478 65.3203 77.0541 64.9766C77.4447 64.6172 77.9447 64.3281 78.5541 64.1094C79.1791 63.875 79.8587 63.7578 80.5931 63.7578C82.0931 63.7578 83.2337 64.1797 84.015 65.0234C84.8119 65.8672 85.2103 66.875 85.2103 68.0469V76.5312ZM82.7259 71.8438V70.9766C82.6166 70.9766 82.3431 70.9844 81.9056 71C81.4681 71 80.9212 71.0547 80.265 71.1641C79.7337 71.2578 79.265 71.4531 78.8587 71.75C78.39 72.1406 78.1556 72.6016 78.1556 73.1328C78.1556 73.6953 78.2962 74.0938 78.5775 74.3281C78.8744 74.5469 79.2416 74.6562 79.6791 74.6562C79.8509 74.6562 80.1009 74.6172 80.4291 74.5391C80.7572 74.4609 81.0462 74.3359 81.2962 74.1641C81.8275 73.8047 82.2337 73.3672 82.515 72.8516C82.6556 72.6016 82.7259 72.2656 82.7259 71.8438ZM96.5428 68.4219H93.9178C93.9178 67.6562 93.7459 67.0469 93.4022 66.5938C93.0584 66.1406 92.5506 65.9141 91.8788 65.9141C91.0975 65.9141 90.4256 66.2734 89.8631 66.9922C89.3163 67.7109 89.0428 68.7344 89.0428 70.0625C89.0428 70.375 89.0663 70.7109 89.1131 71.0703C89.1756 71.4141 89.2694 71.7578 89.3944 72.1016C89.5194 72.5078 89.7147 72.8906 89.9803 73.25C90.2616 73.6094 90.6131 73.9375 91.035 74.2344C91.1756 74.3281 91.4022 74.4219 91.7147 74.5156C92.0428 74.5938 92.4256 74.6328 92.8631 74.6328C93.1756 74.6328 93.5819 74.5938 94.0819 74.5156C94.5819 74.4219 95.285 74.1172 96.1913 73.6016V75.8047C95.4256 76.2734 94.6678 76.5703 93.9178 76.6953C93.1678 76.8203 92.4178 76.8438 91.6678 76.7656C91.0116 76.7031 90.3553 76.5156 89.6991 76.2031C89.0584 75.875 88.535 75.4922 88.1288 75.0547C87.66 74.4922 87.2616 73.7891 86.9334 72.9453C86.6209 72.1016 86.4647 71.1328 86.4647 70.0391C86.4647 69.1328 86.5819 68.3047 86.8163 67.5547C87.0506 66.7891 87.3944 66.1328 87.8475 65.5859C88.3006 65.0234 88.8709 64.5781 89.5584 64.25C90.2459 63.9219 91.035 63.7578 91.9256 63.7578C92.5663 63.7578 93.16 63.8594 93.7069 64.0625C94.2538 64.2656 94.7303 64.5547 95.1366 64.9297C95.5584 65.2891 95.8944 65.7344 96.1444 66.2656C96.41 66.7969 96.5428 67.5156 96.5428 68.4219ZM107.969 76.5312H104.828L100.375 71.375V76.5312H97.8909V59.0469H100.375V68.3047L104.618 64.0625H107.922L102.086 69.6641L107.969 76.5312Z" fill="#141414"/>
</svg>
