<svg width="102" height="84" viewBox="0 0 102 84" fill="none" xmlns="http://www.w3.org/2000/svg">
<path d="M64.0976 7.40217C67.8125 11.117 67.8197 17.1403 64.1175 20.8425C60.4153 24.5447 54.4084 24.5211 50.6935 20.8062C46.9786 17.0913 46.9551 11.0844 50.6574 7.38221C54.3597 3.68003 60.3827 3.68722 64.0976 7.40217ZM67.8833 13.3377C70.7389 20.0309 69.4532 28.0567 64.0081 33.5019C63.828 33.682 63.6401 33.8522 63.4545 34.0232L63.4792 34.08C63.2994 34.2233 63.1172 34.3596 62.9337 34.4955C55.7302 40.6421 44.8725 40.2945 38.0391 33.4611C31.2057 26.6277 30.8581 15.7701 37.0048 8.56655C37.1407 8.38315 37.2769 8.20076 37.4202 8.02106L37.477 8.04553C37.648 7.85994 37.8182 7.67197 37.9983 7.4919C43.4434 2.04676 51.4693 0.761112 58.1624 3.61663C54.7031 3.11186 51.0528 4.1912 48.3964 6.84757C43.9226 11.3214 43.9327 18.5893 48.4219 23.0785C52.911 27.5677 60.1789 27.5778 64.6528 23.104C67.3092 20.4476 68.3885 16.7973 67.8837 13.3379L67.8833 13.3377ZM62.9738 8.52596C60.9306 6.48275 57.6173 6.48589 55.5702 8.53291C53.5232 10.5799 53.512 13.9014 55.5551 15.9446C57.5983 17.9878 60.9198 17.9765 62.9669 15.9295C65.0139 13.8825 65.0169 10.5691 62.9738 8.52596ZM66.3756 24.7618L66.3432 24.7944C64.8441 26.2935 63.0743 27.3677 61.1902 28.0291L62.5293 31.5832C64.4377 29.5973 65.6986 27.2477 66.3758 24.7618L66.3756 24.7618ZM46.738 5.12414C44.252 5.80128 41.9024 7.06225 39.9165 8.97063L43.4625 10.3016C44.1251 8.41914 45.2071 6.65506 46.7054 5.15671L46.7378 5.12417L46.738 5.12414ZM57.3981 28.7812C56.3086 28.8462 55.2125 28.7862 54.1358 28.5971L52.3712 36.4254C54.8252 36.2233 57.2438 35.4559 59.4108 34.1164L57.3981 28.7812ZM42.7186 14.1017L37.3834 12.089C36.0439 14.256 35.2765 16.6746 35.0744 19.1286L42.9027 17.364C42.7137 16.2872 42.6536 15.1912 42.7186 14.1017ZM50.492 27.429C49.6991 27.0457 48.929 26.5817 48.2072 26.0399L41.1876 33.0595C43.3769 34.7831 45.8917 35.8608 48.4986 36.2826L50.492 27.429ZM44.0708 21.0077L35.2091 23.0093C35.6348 25.6103 36.7194 28.1275 38.4402 30.3122L45.4599 23.2925C44.9181 22.5708 44.4541 21.8007 44.0708 21.0077Z" fill="#494852"/>
<path d="M16.7422 74.0312H14.3516V61.3516L10.2734 74.0312H8.25781L4.20312 61.3516V74.0312H1.78906V56.5469H4.90625L9.28906 70.0938L13.6016 56.5469H16.7422V74.0312ZM27.7466 74.0312H25.2622V72.9297C25.0591 73.1328 24.8013 73.3438 24.4888 73.5625C24.0981 73.8125 23.6528 74 23.1528 74.125C22.6528 74.2344 22.0669 74.2891 21.395 74.2891C21.0825 74.2891 20.7075 74.2109 20.27 74.0547C19.8481 73.8984 19.4888 73.6719 19.1919 73.375C18.8481 73.0781 18.5903 72.7188 18.4184 72.2969C18.2466 71.875 18.1606 71.3984 18.1606 70.8672C18.1606 69.9141 18.4106 69.0859 18.9106 68.3828C19.4263 67.6797 20.0513 67.2031 20.7856 66.9531C21.27 66.7812 21.7778 66.6562 22.3091 66.5781C22.8403 66.5 23.2856 66.4609 23.645 66.4609H25.2622V65.6406C25.2622 65.5156 25.2309 65.3125 25.1684 65.0312C25.1216 64.7344 25.02 64.4688 24.8638 64.2344C24.7231 64 24.5044 63.8047 24.2075 63.6484C23.9106 63.4922 23.5513 63.4141 23.1294 63.4141C22.5981 63.4141 22.1372 63.5625 21.7466 63.8594C21.3716 64.1406 21.1841 64.625 21.1841 65.3125H18.4419C18.4419 64.625 18.5278 64.0703 18.6997 63.6484C18.8872 63.2109 19.1841 62.8203 19.5903 62.4766C19.9809 62.1172 20.4809 61.8281 21.0903 61.6094C21.7153 61.375 22.395 61.2578 23.1294 61.2578C24.6294 61.2578 25.77 61.6797 26.5513 62.5234C27.3481 63.3672 27.7466 64.375 27.7466 65.5469V74.0312ZM25.2622 69.3438V68.4766C25.1528 68.4766 24.8794 68.4844 24.4419 68.5C24.0044 68.5 23.4575 68.5547 22.8013 68.6641C22.27 68.7578 21.8013 68.9531 21.395 69.25C20.9263 69.6406 20.6919 70.1016 20.6919 70.6328C20.6919 71.1953 20.8325 71.5938 21.1138 71.8281C21.4106 72.0469 21.7778 72.1562 22.2153 72.1562C22.3872 72.1562 22.6372 72.1172 22.9653 72.0391C23.2934 71.9609 23.5825 71.8359 23.8325 71.6641C24.3638 71.3047 24.77 70.8672 25.0513 70.3516C25.1919 70.1016 25.2622 69.7656 25.2622 69.3438ZM37.4384 70.6094C37.4384 71.1562 37.3369 71.6641 37.1338 72.1328C36.9463 72.5859 36.6728 72.9609 36.3134 73.2578C35.9072 73.6016 35.3681 73.8594 34.6963 74.0312C34.0244 74.2031 33.2978 74.2891 32.5166 74.2891C31.6103 74.2891 30.4228 74.0625 28.9541 73.6094V70.9375C29.6572 71.375 30.3056 71.6875 30.8994 71.875C31.5088 72.0469 32.0478 72.1328 32.5166 72.1328C33.2978 72.1328 33.8681 72.0391 34.2275 71.8516C34.7119 71.5703 34.9541 71.1953 34.9541 70.7266C34.9541 70.4141 34.8681 70.1484 34.6963 69.9297C34.5244 69.7109 34.2822 69.5078 33.9697 69.3203C33.6416 69.1484 33.1884 68.9453 32.6103 68.7109C32.0478 68.4766 31.4931 68.2266 30.9463 67.9609C30.4775 67.7266 30.0322 67.3594 29.6103 66.8594C29.2041 66.3438 29.0009 65.6719 29.0009 64.8438C29.0009 63.7031 29.3994 62.8203 30.1963 62.1953C31.0088 61.5703 32.0478 61.2578 33.3134 61.2578C34.3603 61.2578 35.5088 61.4688 36.7588 61.8906V64.4219C36.1338 64.0625 35.54 63.7969 34.9775 63.625C34.415 63.4531 33.8291 63.3672 33.2197 63.3672C32.7041 63.3672 32.2744 63.4844 31.9306 63.7188C31.6025 63.9375 31.4384 64.25 31.4384 64.6562C31.4384 64.9219 31.4853 65.1484 31.5791 65.3359C31.6884 65.5078 31.8838 65.6875 32.165 65.875C32.4463 66.0469 32.915 66.2656 33.5713 66.5312C34.2275 66.7969 34.8056 67.0547 35.3056 67.3047C35.8681 67.6016 36.3603 68.0156 36.7822 68.5469C37.2197 69.0781 37.4384 69.7656 37.4384 70.6094ZM46.4038 70.6094C46.4038 71.1562 46.3022 71.6641 46.0991 72.1328C45.9116 72.5859 45.6381 72.9609 45.2788 73.2578C44.8725 73.6016 44.3334 73.8594 43.6616 74.0312C42.9897 74.2031 42.2631 74.2891 41.4819 74.2891C40.5756 74.2891 39.3881 74.0625 37.9194 73.6094V70.9375C38.6225 71.375 39.2709 71.6875 39.8647 71.875C40.4741 72.0469 41.0131 72.1328 41.4819 72.1328C42.2631 72.1328 42.8334 72.0391 43.1928 71.8516C43.6772 71.5703 43.9194 71.1953 43.9194 70.7266C43.9194 70.4141 43.8334 70.1484 43.6616 69.9297C43.4897 69.7109 43.2475 69.5078 42.935 69.3203C42.6069 69.1484 42.1538 68.9453 41.5756 68.7109C41.0131 68.4766 40.4584 68.2266 39.9116 67.9609C39.4428 67.7266 38.9975 67.3594 38.5756 66.8594C38.1694 66.3438 37.9663 65.6719 37.9663 64.8438C37.9663 63.7031 38.3647 62.8203 39.1616 62.1953C39.9741 61.5703 41.0131 61.2578 42.2788 61.2578C43.3256 61.2578 44.4741 61.4688 45.7241 61.8906V64.4219C45.0991 64.0625 44.5053 63.7969 43.9428 63.625C43.3803 63.4531 42.7944 63.3672 42.185 63.3672C41.6694 63.3672 41.2397 63.4844 40.8959 63.7188C40.5678 63.9375 40.4038 64.25 40.4038 64.6562C40.4038 64.9219 40.4506 65.1484 40.5444 65.3359C40.6538 65.5078 40.8491 65.6875 41.1303 65.875C41.4116 66.0469 41.8803 66.2656 42.5366 66.5312C43.1928 66.7969 43.7709 67.0547 44.2709 67.3047C44.8334 67.6016 45.3256 68.0156 45.7475 68.5469C46.185 69.0781 46.4038 69.7656 46.4038 70.6094ZM50.3066 59.5703H47.4238V56.5469H50.3066V59.5703ZM50.1659 74.0312H47.6113V61.5625H50.1659V74.0312ZM69.1391 56.5469L66.0219 74.0312H63.3266L60.1625 60.8828L56.975 74.0312H54.2797L51.1625 56.5469H53.6234L55.7797 69.5078L58.9437 56.5469H61.3578L64.5453 69.5078L66.7016 56.5469H69.1391ZM78.1747 74.0312H75.6903V72.9297C75.4872 73.1328 75.2294 73.3438 74.9169 73.5625C74.5263 73.8125 74.0809 74 73.5809 74.125C73.0809 74.2344 72.495 74.2891 71.8231 74.2891C71.5106 74.2891 71.1356 74.2109 70.6981 74.0547C70.2763 73.8984 69.9169 73.6719 69.62 73.375C69.2763 73.0781 69.0184 72.7188 68.8466 72.2969C68.6747 71.875 68.5888 71.3984 68.5888 70.8672C68.5888 69.9141 68.8388 69.0859 69.3388 68.3828C69.8544 67.6797 70.4794 67.2031 71.2138 66.9531C71.6981 66.7812 72.2059 66.6562 72.7372 66.5781C73.2684 66.5 73.7138 66.4609 74.0731 66.4609H75.6903V65.6406C75.6903 65.5156 75.6591 65.3125 75.5966 65.0312C75.5497 64.7344 75.4481 64.4688 75.2919 64.2344C75.1513 64 74.9325 63.8047 74.6356 63.6484C74.3388 63.4922 73.9794 63.4141 73.5575 63.4141C73.0263 63.4141 72.5653 63.5625 72.1747 63.8594C71.7997 64.1406 71.6122 64.625 71.6122 65.3125H68.87C68.87 64.625 68.9559 64.0703 69.1278 63.6484C69.3153 63.2109 69.6122 62.8203 70.0184 62.4766C70.4091 62.1172 70.9091 61.8281 71.5184 61.6094C72.1434 61.375 72.8231 61.2578 73.5575 61.2578C75.0575 61.2578 76.1981 61.6797 76.9794 62.5234C77.7763 63.3672 78.1747 64.375 78.1747 65.5469V74.0312ZM75.6903 69.3438V68.4766C75.5809 68.4766 75.3075 68.4844 74.87 68.5C74.4325 68.5 73.8856 68.5547 73.2294 68.6641C72.6981 68.7578 72.2294 68.9531 71.8231 69.25C71.3544 69.6406 71.12 70.1016 71.12 70.6328C71.12 71.1953 71.2606 71.5938 71.5419 71.8281C71.8388 72.0469 72.2059 72.1562 72.6434 72.1562C72.8153 72.1562 73.0653 72.1172 73.3934 72.0391C73.7216 71.9609 74.0106 71.8359 74.2606 71.6641C74.7919 71.3047 75.1981 70.8672 75.4794 70.3516C75.62 70.1016 75.6903 69.7656 75.6903 69.3438ZM90.0462 61.5625L85.7572 74.0312H83.6244L78.9134 61.5625H81.515L84.6791 70.375L87.6087 61.5625H90.0462ZM92.8475 66.5781H97.7459C97.7459 65.7188 97.6053 64.9844 97.3241 64.375C97.1522 64.0938 96.9256 63.8672 96.6444 63.6953C96.3631 63.5078 96.0272 63.4141 95.6366 63.4141C94.8553 63.4141 94.1913 63.7734 93.6444 64.4922C93.2225 65.0078 92.9569 65.7031 92.8475 66.5781ZM92.9178 68.7109C92.9647 69.0078 93.0428 69.3047 93.1522 69.6016C93.2772 69.9922 93.4725 70.375 93.7381 70.75C94.0194 71.1094 94.3709 71.4375 94.7928 71.7344C94.9334 71.8281 95.16 71.9219 95.4725 72.0156C95.8006 72.0938 96.1834 72.1328 96.6209 72.1328C96.9334 72.1328 97.3475 72.0859 97.8631 71.9922C98.3788 71.8984 99.0741 71.6016 99.9491 71.1016V73.3047C99.1834 73.7734 98.4256 74.0703 97.6756 74.1953C96.9256 74.3203 96.1756 74.3438 95.4256 74.2656C94.7694 74.2031 94.1131 74.0156 93.4569 73.7031C92.8163 73.375 92.2928 72.9922 91.8866 72.5547C91.4178 71.9922 91.0194 71.2891 90.6913 70.4453C90.3788 69.6016 90.2225 68.6328 90.2225 67.5391C90.2225 66.6328 90.3397 65.8047 90.5741 65.0547C90.8084 64.2891 91.1522 63.6328 91.6053 63.0859C92.0584 62.5391 92.6209 62.1016 93.2928 61.7734C93.9647 61.4297 94.7459 61.2578 95.6366 61.2578C96.3709 61.2578 97.0663 61.4219 97.7225 61.75C98.3788 62.0625 98.8944 62.4688 99.2694 62.9688C99.9569 63.875 100.301 65.3203 100.301 67.3047V68.7109H92.9178Z" fill="#141414"/>
</svg>
