<svg width="94" height="86" viewBox="0 0 94 86" fill="none" xmlns="http://www.w3.org/2000/svg">
<path d="M29.6406 20C29.6406 23.3444 30.5205 26.4817 32.0617 29.1911V10.8088C30.5205 13.5183 29.6406 16.6555 29.6406 20ZM33.1748 30.9124C33.4427 31.2817 33.7303 31.643 34.0239 31.9909V8.00905C33.7303 8.35699 33.4427 8.71834 33.1748 9.08762V30.9124ZM34.4714 32.5073C37.2957 35.6144 41.1546 37.7504 45.4985 38.3594V32.9663H41.6201C39.6355 32.9663 38.0285 31.3611 38.0285 29.3633C38.0285 27.3655 39.6355 25.7603 41.6201 25.7603H45.4985V23.6145H41.6201C39.6355 23.6145 38.0285 21.9978 38.0285 20C38.0285 18.0022 39.6355 16.397 41.6201 16.397H45.4985V14.2512H41.6201C39.6355 14.2512 38.0285 12.646 38.0285 10.6482C38.0285 8.65031 39.6355 7.04519 41.6201 7.04519H45.4985V1.64062C41.1546 2.24964 37.2957 4.38564 34.4714 7.49267V32.5073ZM39.2564 29.3633C39.2564 30.7824 40.4054 31.9106 41.8152 31.9106H55.3397V26.8044H41.8152C40.4054 26.8044 39.2564 27.9441 39.2564 29.3633ZM39.2564 20C39.2564 21.4191 40.4054 22.5589 41.8152 22.5589H49.3114V17.4411H41.8152C40.4054 17.4411 39.2564 18.5809 39.2564 20ZM39.2564 10.6482C39.2564 12.0674 40.4054 13.1956 41.8152 13.1956H52.7163V8.08935H41.8152C40.4054 8.08935 39.2564 9.22913 39.2564 10.6482ZM55.7872 31.9106H63.812C65.2218 31.9106 66.3594 30.7824 66.3594 29.3633C66.3594 27.9441 65.2218 26.8044 63.812 26.8044H55.7872V31.9106ZM49.7589 22.5589H63.812C65.2218 22.5589 66.3594 21.4191 66.3594 20C66.3594 18.5809 65.2218 17.4411 63.812 17.4411H49.7589V22.5589ZM53.1638 13.1956H63.812C65.2218 13.1956 66.3594 12.0674 66.3594 10.6482C66.3594 9.2291 65.2218 8.08935 63.812 8.08935H53.1638V13.1956ZM56.6174 30.4189C56.6174 29.8792 57.0177 29.4436 57.5124 29.4436H63.9842C64.479 29.4436 64.8792 29.8792 64.8792 30.4189C64.8792 30.9587 64.479 31.3828 63.9842 31.3828H57.5124C57.0177 31.3828 56.6174 30.9587 56.6174 30.4189ZM56.6174 20.0115C56.6174 19.4718 57.0177 19.0247 57.5124 19.0247H63.9842C64.479 19.0247 64.8792 19.4718 64.8792 20.0115C64.8792 20.5511 64.479 20.9868 63.9842 20.9868H57.5124C57.0177 20.9868 56.6174 20.5513 56.6174 20.0115ZM56.6174 9.59251C56.6174 9.05281 57.0177 8.61719 57.5124 8.61719H63.9842C64.479 8.61719 64.8792 9.05285 64.8792 9.59251C64.8792 10.1322 64.479 10.5679 63.9842 10.5679H57.5124C57.0177 10.5679 56.6174 10.1323 56.6174 9.59251Z" fill="#494852"/>
<path d="M10.344 62.008H5.232L5.088 66.424H9.672L9.408 68.968H5.016L4.992 69.76L5.28 76H1.92L2.208 70.168L1.92 59.44H10.608L10.344 62.008ZM11.2652 64.408L14.1692 63.784C14.3132 65.016 14.4092 66.184 14.4572 67.288C15.9132 65.032 17.2812 63.904 18.5612 63.904L18.2972 67.648C17.3692 67.648 16.6332 67.736 16.0892 67.912C15.5612 68.072 15.0172 68.4 14.4572 68.896V69.76L14.7212 75.4L11.5052 76L11.7932 70.168C11.7292 68.024 11.5532 66.104 11.2652 64.408ZM18.8839 70.984C18.8839 68.936 19.4359 67.2 20.5399 65.776C21.6439 64.352 22.9319 63.64 24.4039 63.64C25.8919 63.64 27.0439 64.12 27.8599 65.08C28.6919 66.04 29.1079 67.312 29.1079 68.896C29.1079 71.008 28.5719 72.768 27.4999 74.176C26.4439 75.568 25.1079 76.264 23.4919 76.264C22.1639 76.264 21.0599 75.768 20.1799 74.776C19.3159 73.768 18.8839 72.504 18.8839 70.984ZM26.4199 70.144C26.4199 67.824 25.6279 66.664 24.0439 66.664C22.3959 66.664 21.5719 67.752 21.5719 69.928C21.5719 71.064 21.8039 71.952 22.2679 72.592C22.7319 73.232 23.3399 73.552 24.0919 73.552C24.8599 73.552 25.4359 73.264 25.8199 72.688C26.2199 72.096 26.4199 71.248 26.4199 70.144ZM37.662 69.928C37.662 68.824 37.566 68.088 37.374 67.72C37.182 67.352 36.734 67.168 36.03 67.168C35.326 67.168 34.526 67.448 33.63 68.008V69.76L33.894 75.4L30.678 76L30.966 70.168C30.902 68.024 30.726 66.104 30.438 64.408L33.342 63.784C33.454 64.712 33.534 65.616 33.582 66.496C33.822 66.176 34.094 65.864 34.398 65.56C34.702 65.24 35.182 64.888 35.838 64.504C36.494 64.104 37.182 63.904 37.902 63.904C38.638 63.904 39.254 64.192 39.75 64.768C40.246 65.328 40.494 66.096 40.494 67.072L40.35 69.76L40.614 75.52L37.374 76.12L37.662 69.928ZM43.7205 64.384V61.768L46.9605 61.144L46.6485 64.384H49.5525L49.2885 66.352H46.5525L46.4325 71.368C46.4325 72.12 46.5045 72.624 46.6485 72.88C46.7925 73.12 47.0565 73.24 47.4405 73.24C47.8245 73.24 48.3365 73.152 48.9765 72.976L49.1205 74.68C48.0645 75.56 47.1365 76 46.3365 76C45.5365 76 44.8805 75.712 44.3685 75.136C43.8565 74.544 43.6005 73.776 43.6005 72.832L43.7445 70.144L43.7205 66.352H42.0645L42.3285 64.384H43.7205ZM59.7877 62.008H54.6757L54.5317 66.424H59.1157L58.8517 68.968H54.4597L54.4357 69.76L54.7237 76H51.3637L51.6517 70.168L51.3637 59.44H60.0517L59.7877 62.008ZM64.2609 57.424L63.9489 69.76L64.2129 75.4L60.9729 76L61.2609 70.168L60.9729 58.024L64.2609 57.424ZM65.8432 70.984C65.8432 68.936 66.3952 67.2 67.4992 65.776C68.6032 64.352 69.8912 63.64 71.3632 63.64C72.8512 63.64 74.0032 64.12 74.8192 65.08C75.6512 66.04 76.0673 67.312 76.0673 68.896C76.0673 71.008 75.5312 72.768 74.4592 74.176C73.4032 75.568 72.0672 76.264 70.4512 76.264C69.1232 76.264 68.0192 75.768 67.1392 74.776C66.2752 73.768 65.8432 72.504 65.8432 70.984ZM73.3792 70.144C73.3792 67.824 72.5872 66.664 71.0032 66.664C69.3552 66.664 68.5312 67.752 68.5312 69.928C68.5312 71.064 68.7632 71.952 69.2272 72.592C69.6912 73.232 70.2992 73.552 71.0512 73.552C71.8192 73.552 72.3952 73.264 72.7792 72.688C73.1792 72.096 73.3792 71.248 73.3792 70.144ZM88.3654 73H88.6774L89.4454 69.712L90.6934 63.784L93.6214 64.144L91.8694 70.096L90.4054 75.712L86.4694 76.072L85.1494 70.24L85.0294 69.856L83.4214 75.712L79.6054 76.072L78.2134 70.24L76.5574 64.408L79.7014 63.808L80.6854 69.088L81.5494 73H81.8614L83.9254 66.16L83.4214 64.408L86.5174 63.808L87.5254 69.088L88.3654 73Z" fill="#141414"/>
</svg>
