<svg width="55" height="25" viewBox="0 0 55 25" fill="none" xmlns="http://www.w3.org/2000/svg">
<g clip-path="url(#clip0_13_691)">
<mask id="mask0_13_691" style="mask-type:luminance" maskUnits="userSpaceOnUse" x="0" y="0" width="55" height="25">
<path d="M54.6747 0.5H0.674683V24.4992H54.6747V0.5Z" fill="white"/>
</mask>
<g mask="url(#mask0_13_691)">
<path d="M24.2833 0.5C23.5504 0.5 22.8901 0.935112 22.61 1.60138C22.3301 2.26764 22.4856 3.03589 23.0042 3.54579C23.5227 4.05568 24.304 4.20866 24.9816 3.9333C25.6592 3.65456 26.0983 3.00189 26.0983 2.28125C26.0983 2.04669 26.0534 1.81554 25.96 1.59798C25.8701 1.38042 25.7353 1.18666 25.5693 1.0201C25.4 0.853529 25.1994 0.724355 24.9781 0.632573C24.7604 0.544191 24.5218 0.5 24.2833 0.5Z" fill="#141414"/>
<path fill-rule="evenodd" clip-rule="evenodd" d="M43.9265 6.37392H46.7129L46.7545 7.51609C46.948 7.28153 47.1659 7.07078 47.4043 6.88721C47.6464 6.70365 47.9057 6.54388 48.1823 6.41471C48.4589 6.28893 48.7457 6.19035 49.043 6.12576C49.3438 6.06118 49.648 6.02718 49.9523 6.03058C53.0084 6.03058 54.6747 7.89001 54.6747 11.1296V18.6727H51.788V11.2315C51.788 9.56588 50.7508 8.60727 49.2989 8.60727C47.8435 8.60727 46.8133 9.56588 46.8133 11.2315V18.6795H43.9265V6.37392ZM19.5574 18.6795H16.6741V0.792236H19.5643L19.5574 18.6795ZM22.8417 6.37392H25.7352V18.6795H22.8417V6.37392ZM10.5309 6.37392H13.3865V18.6795H10.5309L10.486 17.3911C10.2301 17.6427 9.95356 17.8704 9.65624 18.071C9.35893 18.2716 9.04088 18.4415 8.709 18.5843C8.38057 18.7236 8.03486 18.8324 7.68224 18.9073C7.32961 18.982 6.97007 19.0228 6.61054 19.0296C3.20183 19.0262 0.674683 16.3271 0.674683 12.5436C0.674683 8.50869 3.41271 6.03058 6.61054 6.03058C6.97353 6.02039 7.33652 6.04758 7.69261 6.11557C8.04869 6.18356 8.39786 6.28553 8.7332 6.4283C9.06508 6.57108 9.38313 6.74444 9.67699 6.9552C9.97084 7.16255 10.2439 7.40391 10.486 7.66906L10.5309 6.37392ZM3.62705 12.5436C3.62705 14.9062 5.09632 16.4801 7.14293 16.4801C9.00631 16.4801 10.6726 15.1339 10.6726 12.5436C10.6726 10.0146 9.07545 8.60727 7.1533 8.60727C5.00643 8.60727 3.62705 10.2627 3.62705 12.5436ZM40.6388 17.4625C40.6388 22.745 37.4998 24.4956 33.8041 24.4956C33.4169 24.5024 33.0309 24.4866 32.646 24.4481C32.2634 24.4095 31.8831 24.3483 31.5051 24.2646C31.1295 24.1829 30.7596 24.0787 30.3954 23.9518C30.0312 23.8249 29.6764 23.6787 29.3306 23.5132L30.0463 21.0726C30.3298 21.229 30.6224 21.3671 30.9244 21.4873C31.2263 21.6074 31.5351 21.7082 31.8508 21.7898C32.1644 21.8691 32.4824 21.9292 32.805 21.97C33.13 22.0108 33.455 22.03 33.7799 22.0278C35.9302 22.0278 37.7556 20.6715 37.7556 18.2274V17.3809C37.5101 17.6461 37.2335 17.8874 36.9362 18.0948C36.639 18.3022 36.3175 18.4789 35.9822 18.6217C35.6468 18.761 35.2942 18.8664 34.9346 18.9344C34.5785 19.0024 34.212 19.0296 33.8456 19.0228C30.4784 19.0228 27.934 16.3543 27.934 12.5199C27.934 8.84862 30.3298 6.02379 33.8594 6.02379C34.2224 6.01019 34.5854 6.03739 34.945 6.10537C35.3011 6.16996 35.6503 6.27534 35.9856 6.41811C36.3209 6.55748 36.6356 6.73425 36.9328 6.945C37.2266 7.15576 37.4963 7.39712 37.7383 7.66226L37.7764 6.36712H40.6388V17.4625ZM37.9146 12.5436C37.9146 9.97719 36.2725 8.60727 34.4022 8.60727C32.1689 8.60727 30.8794 10.3953 30.8794 12.5436C30.8794 14.811 32.2692 16.4801 34.4022 16.4801C36.3659 16.4801 37.9146 15.0422 37.9146 12.5436Z" fill="#141414"/>
</g>
</g>
<defs>
<clipPath id="clip0_13_691">
<rect width="54" height="24" fill="white" transform="translate(0.674683 0.5)"/>
</clipPath>
</defs>
</svg>
