<svg width="128" height="24" viewBox="0 0 128 24" fill="none" xmlns="http://www.w3.org/2000/svg">
<g clip-path="url(#clip0_13_688)">
<path d="M127.001 22.673C127.001 21.2927 126.222 20.7944 124.943 20.7944H115.225C110.662 20.7944 109.049 17.8806 108.845 15.8679H122.328C126.26 15.8679 127.428 12.935 127.428 11.0563C127.428 9.04356 126.167 6.24483 122.328 6.24483H115.039C108.4 6.24483 106.23 10.903 106.23 14.6985C106.23 18.8583 108.715 23.1523 115.021 23.1523H127.001V22.673ZM115.243 8.60267H121.994C124.331 8.60267 124.887 10.0979 124.887 11.0755C124.887 11.9381 124.368 13.5484 121.994 13.5484H108.845C109.012 11.8423 110.365 8.60267 115.243 8.60267ZM87.7391 22.0787C87.053 23.0564 86.5707 23.4014 85.9586 23.4014C85.1057 23.4014 84.7903 22.9222 84.1784 22.0787C82.7133 20.0084 72.9579 6.24483 72.9579 6.24483H74.4602C76.0924 6.24483 76.5558 6.83908 77.2237 7.81672C77.5204 8.23844 85.996 20.6026 85.996 20.6026C85.996 20.6026 94.4714 8.25761 94.8052 7.7592C95.4358 6.83908 95.9181 6.24483 97.5501 6.24483H98.8669C98.8669 6.24483 88.9449 20.3919 87.7391 22.0787ZM23.7922 23.1523C22.7722 23.1523 22.1231 22.6347 21.9377 21.5037L21.6038 19.6634C21.0474 20.7177 19.0073 23.1523 14.5748 23.1523H9.47464C2.53839 23.1523 0.57251 18.2832 0.57251 14.6985C0.57251 10.6538 2.92788 6.24483 9.47464 6.24483H14.5748C19.5452 6.24483 22.29 9.23525 22.9577 12.8774C23.514 15.9254 24.8123 23.1523 24.8123 23.1523H23.7922ZM13.9999 8.60267H9.64156C4.74538 8.60267 3.07623 11.8231 3.07623 14.6985C3.07623 17.574 4.74538 20.7944 9.64156 20.7944H13.9999C19.1186 20.7944 20.6023 17.4397 20.6023 14.6985C20.6023 12.2449 19.267 8.60267 13.9999 8.60267ZM102.187 4.30872C102.91 4.30872 103.466 3.84866 103.466 2.96686V2.41094C103.466 1.52915 102.892 1.06908 102.187 1.06908C101.482 1.06908 100.907 1.50998 100.907 2.41094V2.96686C100.889 3.84866 101.463 4.30872 102.187 4.30872ZM100.925 6.24483H101.519C102.687 6.24483 103.429 6.78156 103.429 8.43013V23.1523H102.799C101.519 23.1523 100.907 22.4429 100.907 21.0245C100.925 20.8136 100.925 6.24483 100.925 6.24483ZM28.6513 8.4493C29.727 7.39499 31.6559 6.24483 34.6972 6.24483H39.7975C46.7338 6.24483 48.6996 11.1138 48.6996 14.6985C48.6996 18.7433 46.3442 23.1523 39.7975 23.1523H34.6972C29.727 23.1523 26.1476 19.8359 26.1476 14.6985V0.570679H26.9266C28.0394 0.570679 28.6513 1.16493 28.6513 2.23842V8.4493ZM35.2538 20.7944H39.6122C44.5084 20.7944 46.1775 17.574 46.1775 14.6985C46.1775 11.8231 44.5084 8.60267 39.6122 8.60267H35.2538C30.135 8.60267 28.6513 11.9573 28.6513 14.6985C28.6513 17.1522 29.9681 20.7944 35.2538 20.7944ZM53.7257 8.4493C54.8014 7.39499 56.7301 6.24483 59.7716 6.24483H64.8719C71.8083 6.24483 73.7741 11.1138 73.7741 14.6985C73.7741 18.7433 71.4186 23.1523 64.8719 23.1523H59.7716C54.8014 23.1523 51.222 19.8359 51.222 14.6985V0.570679H52.0008C53.1136 0.570679 53.7257 1.16493 53.7257 2.23842V8.4493ZM60.3279 20.7944H64.6863C69.5826 20.7944 71.2517 17.574 71.2517 14.6985C71.2517 11.8231 69.5826 8.60267 64.6863 8.60267H60.3279C55.2095 8.60267 53.7257 11.9573 53.7257 14.6985C53.7257 17.1522 55.061 20.7944 60.3279 20.7944Z" fill="#141414"/>
</g>
<defs>
<clipPath id="clip0_13_688">
<rect width="128" height="24" fill="white"/>
</clipPath>
</defs>
</svg>
