<svg width="93" height="25" viewBox="0 0 93 25" fill="none" xmlns="http://www.w3.org/2000/svg">
<g clip-path="url(#clip0_13_699)">
<mask id="mask0_13_699" style="mask-type:luminance" maskUnits="userSpaceOnUse" x="0" y="0" width="93" height="25">
<path d="M92.6747 0.5H0.674683V24.4187H92.6747V0.5Z" fill="white"/>
</mask>
<g mask="url(#mask0_13_699)">
<path fill-rule="evenodd" clip-rule="evenodd" d="M27.6818 0.500003C28.9121 0.500003 30.0437 0.932573 30.9315 1.65624H24.4326C25.3485 0.90748 26.4967 0.498773 27.6818 0.500003ZM32.0007 2.83282C32.2318 3.18142 32.4213 3.56158 32.5639 3.9626H22.8001C22.9433 3.56158 23.1324 3.18142 23.3634 2.83282H32.0007ZM32.8338 5.14479C32.8758 5.52822 32.8758 5.91504 32.8338 6.29847H22.5298C22.4877 5.91506 22.4877 5.52822 22.5298 5.14479H32.8338ZM32.5639 7.47812C32.4254 7.86672 32.2417 8.23786 32.0165 8.58397H23.3475C23.1223 8.23789 22.9383 7.86675 22.7996 7.47812H32.5639ZM30.9626 9.76361C30.0413 10.5269 28.8804 10.9443 27.6818 10.9433C26.4362 10.9433 25.2944 10.5005 24.4015 9.76361H30.9626ZM0.674683 21.4863V7.38041H9.57925C17.3083 7.38041 17.0098 12.615 12.2549 13.8679C17.7366 14.1723 18.6944 21.4857 9.57925 21.4857L0.674683 21.4863ZM3.96061 13.3259H7.43821C14.695 13.3259 14.3755 8.82774 9.57977 8.82774H3.96011V13.3265L3.96061 13.3259ZM3.96061 20.0129C5.16991 20.0129 6.91893 20.0028 8.12873 20.0028C15.4085 20.0129 14.5856 14.5555 9.58181 14.5555H3.96112L3.96061 20.0129Z" fill="#141414"/>
<path fill-rule="evenodd" clip-rule="evenodd" d="M18.972 16.1911V7.38087H21.8916V16.1911C22.0346 18.2119 23.0282 19.7718 25.6993 20.4196C26.7685 20.5112 27.8403 20.5238 28.909 20.4196C31.3153 20.1992 33.1686 18.4715 33.4957 16.1437V7.38342H35.5019V15.9C35.5019 19.0877 32.5895 21.2633 30.1736 21.4914C27.757 21.7193 26.6311 21.7141 24.1393 21.4914C21.6502 21.2633 18.972 19.0221 18.972 16.1911ZM38.6187 21.4862V7.38037H40.3472L53.0724 17.6033V7.38087H55.032V21.4862H53.4384L40.5654 11.1895V21.4862H38.6187ZM66.833 8.57884C70.5263 8.10708 73.1109 9.17121 75.2157 10.8959L75.9948 8.56052C72.7323 7.27604 69.223 7.23126 66.6382 7.38087C56.8223 7.72438 54.048 19.2766 64.0949 21.4862C68.1588 22.1386 72.3714 21.9371 75.8726 20.873V14.705C74.2425 14.6628 72.6127 14.6236 70.9828 14.5819V16.1045C71.6548 16.0547 72.33 16.0053 73.0022 15.958V20.0129C70.1496 21.0277 67.3339 20.928 64.5463 20.0079C58.5694 17.0827 60.1941 9.50148 66.833 8.57884ZM92.6747 19.953V21.4862H78.6468V7.60123H92.6747V9.28673C88.8624 9.00072 85.1405 8.96154 81.4574 9.04042V13.4308C85.1247 13.4832 88.6569 13.6038 92.0416 13.3417V14.9305L81.4574 14.7727V20.2465C85.8336 20.3641 89.5968 20.275 92.6747 19.953Z" fill="#141414"/>
</g>
</g>
<defs>
<clipPath id="clip0_13_699">
<rect width="92" height="24" fill="white" transform="translate(0.674683 0.5)"/>
</clipPath>
</defs>
</svg>
