<svg width="99" height="25" viewBox="0 0 99 25" fill="none" xmlns="http://www.w3.org/2000/svg">
<g clip-path="url(#clip0_13_1172)">
<mask id="mask0_13_1172" style="mask-type:luminance" maskUnits="userSpaceOnUse" x="0" y="0" width="99" height="25">
<path d="M98.6748 0.5H0.674805V24.4013H98.6748V0.5Z" fill="white"/>
</mask>
<g mask="url(#mask0_13_1172)">
<path fill-rule="evenodd" clip-rule="evenodd" d="M35.5973 0.564209L43.8842 19.6532C43.8842 19.6532 45.1354 22.1331 47.1593 23.0366C47.9575 23.3954 49.7195 23.28 49.7195 23.28C49.7195 23.28 53.0778 22.8763 53.1479 18.8907C53.1926 16.5134 51.6283 15.5073 50.6964 14.9499C48.9918 13.9118 42.5498 12.124 42.7286 7.37577C42.8372 4.32562 45.442 1.3716 48.7811 1.3716C51.0154 1.3716 51.5454 2.35841 52.7904 2.35841C54.2651 2.35841 54.9292 1.14732 54.9292 1.14732L55.5548 7.19634H54.9292C54.9292 7.19634 53.5948 2.08928 48.7811 2.08928C45.3079 2.08928 45.3207 5.26758 45.3079 5.62642C45.2186 8.00374 47.9063 9.22123 50.9198 10.3298C54.4439 11.6306 56.6211 14.4565 56.7104 16.8722C56.7998 19.2944 54.5972 23.7735 49.1832 23.9785C46.0676 24.0938 45.0398 22.7417 43.0798 23.0557C41.9114 23.2481 41.3879 24.4015 41.3879 24.4015L37.602 14.7704H30.2536L28.6511 18.3973C28.6511 18.3973 27.4892 20.9539 28.3829 22.2035C29.2704 23.4596 31.141 23.2351 31.141 23.2351V23.953H18.6723V23.2351C18.6723 23.2351 20.096 23.6838 21.0792 22.3381C22.0561 20.9988 21.8773 19.8326 21.8773 19.8326V3.30037L13.7691 23.953L5.22048 3.69765L5.1311 18.5767C5.1311 18.5767 5.26516 21.7101 6.15259 22.5175C7.04639 23.325 8.29135 23.325 8.29135 23.325V23.953H0.674805V23.325C0.674805 23.325 2.60927 23.4914 3.34985 22.1587C4.37135 20.326 4.41603 18.3076 4.41603 18.3076V5.0433C4.41603 5.0433 4.21174 3.81299 3.79038 3.34522C3.0817 2.53782 1.38985 2.35841 1.38985 2.35841V1.90986H8.78295L15.2886 17.7693L21.5645 1.90986H28.4723V2.35841C28.4723 2.35841 27.0742 2.48016 26.5123 2.89668C25.6632 3.52463 25.6186 4.14619 25.6186 4.14619V22.7866L26.0207 22.1138C26.0207 22.1138 26.9145 20.0569 27.4445 19.0252C27.9807 17.9936 29.6726 14.3219 29.9854 13.5145C30.2983 12.7071 35.5973 0.564209 35.5973 0.564209ZM37.3339 14.0528L34.0395 5.80583L30.477 14.0528H37.3339ZM75.0654 20.0569C72.5435 23.8823 68.8279 23.9978 67.5767 24.0427C65.1761 24.1324 56.9786 22.2932 57.0679 13.0211C57.1573 3.51824 64.8186 1.3716 67.9342 1.28189C71.0561 1.19218 71.586 2.44812 72.9267 2.2687C74.2611 2.08928 75.1101 0.967904 75.1101 0.967904L75.506 7.28606H75.0654C75.0654 7.28606 73.6801 1.90986 68.0682 1.95472C61.6965 2.00598 61.2049 10.3618 61.1667 13.0659C61.122 15.9751 62.0158 23.3955 67.8001 23.1903C74.127 22.966 75.3271 17.1413 75.3271 17.1413C75.3271 17.1413 76.802 17.4105 75.0654 20.0569ZM75.7742 12.5277C75.7742 5.85069 80.9709 1.10247 87.266 1.10247C93.5673 1.10247 98.6684 5.31244 98.6684 12.5277C98.6684 18.8394 93.5226 23.953 87.2214 23.953C80.9262 23.953 75.5061 19.4738 75.7742 12.5277ZM87.2214 23.1903C91.767 23.1903 94.5633 18.519 94.5633 12.5277C94.5633 6.53634 92.2586 1.68558 87.266 1.77529C82.5926 1.73044 79.8729 6.53634 79.8729 12.5277C79.8729 18.519 82.4586 23.1006 87.2214 23.1903Z" fill="#141414"/>
</g>
</g>
<defs>
<clipPath id="clip0_13_1172">
<rect width="98" height="24" fill="white" transform="translate(0.674805 0.5)"/>
</clipPath>
</defs>
</svg>
