<svg width="81" height="25" viewBox="0 0 81 25" fill="none" xmlns="http://www.w3.org/2000/svg">
<g clip-path="url(#clip0_13_1159)">
<mask id="mask0_13_1159" style="mask-type:luminance" maskUnits="userSpaceOnUse" x="0" y="0" width="81" height="25">
<path d="M80.6747 0.5H0.674683V24.4053H80.6747V0.5Z" fill="white"/>
</mask>
<g mask="url(#mask0_13_1159)">
<path d="M0.674683 0.619908C0.743812 0.609469 0.811213 0.60077 0.876886 0.593811C0.946015 0.586852 1.01515 0.579892 1.08427 0.572933C1.14995 0.565974 1.21735 0.560754 1.28648 0.557274C1.35561 0.553795 1.42474 0.552055 1.49387 0.552055C1.63212 0.545095 1.76866 0.550315 1.90346 0.567713C2.04172 0.588591 2.17652 0.621648 2.30787 0.666884C2.43575 0.71212 2.56019 0.771274 2.68116 0.844347C2.79868 0.91742 2.90929 1.00093 3.01299 1.09488C3.10631 1.19579 3.18753 1.30714 3.25667 1.42893C3.32926 1.54724 3.38974 1.67251 3.43812 1.80474C3.48307 1.93348 3.5159 2.06745 3.53663 2.20664C3.55391 2.34582 3.55911 2.48501 3.55219 2.62421V23.8833H0.674683V0.619908Z" fill="#141414"/>
<path d="M6.42432 8.37074C6.46926 8.36727 6.51592 8.36379 6.56432 8.36031C6.60924 8.35683 6.6559 8.35335 6.7043 8.34987C6.74923 8.34639 6.79417 8.34465 6.8391 8.34465C6.88748 8.34117 6.93416 8.33943 6.97908 8.33943C7.10697 8.33247 7.23486 8.33769 7.36275 8.35509C7.48718 8.36901 7.61163 8.3951 7.73606 8.43337C7.85704 8.46818 7.97456 8.51341 8.08862 8.56909C8.20268 8.62824 8.31156 8.69436 8.41524 8.76742C8.51203 8.84398 8.59844 8.92924 8.67449 9.02317C8.75052 9.11365 8.81793 9.21282 8.87668 9.32069C8.932 9.42857 8.9752 9.54165 9.0063 9.65996C9.04088 9.77479 9.06334 9.8931 9.07371 10.0149C9.22925 9.85831 9.39516 9.71041 9.57144 9.57123C9.74427 9.43204 9.92572 9.30156 10.1158 9.17977C10.3025 9.06146 10.496 8.95185 10.6965 8.85094C10.8935 8.7535 11.0975 8.66477 11.3083 8.58475C11.5364 8.50123 11.768 8.42641 12.0031 8.36031C12.2381 8.29419 12.4749 8.24026 12.7134 8.19851C12.9553 8.15674 13.1973 8.12543 13.4392 8.10455C13.6812 8.08368 13.9249 8.07496 14.1703 8.07844C14.4537 8.06453 14.7371 8.07323 15.0206 8.10455C15.3075 8.13587 15.5874 8.18979 15.8605 8.26635C16.137 8.33943 16.4066 8.43513 16.6693 8.55343C16.9286 8.67174 17.1791 8.80745 17.421 8.96055C17.6319 9.11365 17.8273 9.2859 18.007 9.47727C18.1902 9.66518 18.3526 9.86875 18.4943 10.088C18.6394 10.3072 18.7622 10.5368 18.8625 10.7769C18.9662 11.0205 19.0457 11.2693 19.1009 11.5233C19.1494 11.7739 19.189 12.0244 19.2202 12.2749C19.2548 12.5255 19.2807 12.7777 19.298 13.0318C19.3186 13.2823 19.3308 13.5346 19.3343 13.7886C19.3412 14.0426 19.3394 14.2966 19.329 14.5506V23.8831H16.5552V14.6498C16.5622 14.4584 16.5639 14.2688 16.5604 14.0809C16.5535 13.8895 16.5431 13.6999 16.5293 13.5119C16.512 13.3206 16.4896 13.1309 16.4619 12.943C16.4343 12.7551 16.3997 12.569 16.3582 12.3845C16.3237 12.2419 16.2753 12.1044 16.2131 11.9722C16.1508 11.8434 16.0765 11.7217 15.9901 11.6068C15.9002 11.4885 15.8017 11.3824 15.6946 11.2885C15.5874 11.191 15.4716 11.1058 15.3472 11.0327C15.1882 10.9561 15.024 10.8883 14.8547 10.8291C14.6888 10.7735 14.5176 10.7265 14.3414 10.6882C14.1685 10.6534 13.994 10.629 13.8177 10.6151C13.6414 10.6012 13.4651 10.5977 13.2889 10.6047C13.1091 10.6047 12.9294 10.6099 12.7497 10.6203C12.5734 10.6343 12.3971 10.6551 12.2208 10.683C12.0445 10.7108 11.8683 10.7456 11.692 10.7874C11.5192 10.8291 11.3481 10.8778 11.1787 10.9335C11.0439 10.9788 10.9108 11.0309 10.7795 11.0901C10.6481 11.1458 10.522 11.2102 10.401 11.2832C10.28 11.3563 10.1625 11.4363 10.0484 11.5233C9.93437 11.6103 9.82549 11.7043 9.72179 11.8052C9.64576 11.8783 9.57489 11.9583 9.50923 12.0453C9.44701 12.1323 9.39344 12.2245 9.34849 12.3219C9.30357 12.4193 9.269 12.5202 9.2448 12.6246C9.2206 12.7256 9.20505 12.8299 9.19814 12.9378V23.8831H6.42432V8.37074Z" fill="#141414"/>
<path d="M31.3111 12.0558C31.1971 11.9201 31.0743 11.793 30.943 11.6747C30.8116 11.5529 30.6751 11.4398 30.5334 11.3355C30.3918 11.2311 30.2431 11.1371 30.0875 11.0536C29.9319 10.9666 29.7731 10.8883 29.6105 10.8187C29.4412 10.7422 29.2667 10.6743 29.0868 10.6152C28.9071 10.556 28.7257 10.5073 28.5425 10.469C28.3593 10.4273 28.1743 10.396 27.9878 10.3751C27.7977 10.3542 27.6092 10.3438 27.4227 10.3438C27.2395 10.3333 27.0545 10.3368 26.8678 10.3542C26.6846 10.3716 26.5031 10.4029 26.3235 10.4482C26.1438 10.4899 25.9692 10.5456 25.7998 10.6152C25.627 10.6813 25.4593 10.7613 25.2969 10.8553C25.1102 10.9805 24.9443 11.1371 24.8199 11.325C24.6902 11.5129 24.6022 11.7269 24.5503 11.9462C24.5036 12.1706 24.5036 12.4003 24.5451 12.6247C24.5865 12.8491 24.6695 13.0631 24.794 13.251C24.8527 13.331 24.9166 13.4076 24.9859 13.4807C25.055 13.5503 25.1292 13.6147 25.2087 13.6738C25.2883 13.7364 25.3711 13.7921 25.4575 13.8408C25.5406 13.893 25.6287 13.9383 25.722 13.9765C25.8844 14.0461 26.0486 14.1105 26.2145 14.1696C26.3804 14.2323 26.5481 14.2897 26.7175 14.3419C26.8868 14.3976 27.0579 14.448 27.2308 14.4933C27.4001 14.5385 27.5713 14.5785 27.7441 14.6133C28.0033 14.669 28.2591 14.7334 28.5115 14.8064C28.7638 14.8795 29.0143 14.9613 29.2631 15.0518C29.5086 15.1422 29.7523 15.2414 29.9942 15.3493C30.2327 15.4571 30.4695 15.5737 30.7046 15.699C30.867 15.7894 31.0225 15.8921 31.1711 16.0069C31.3198 16.1183 31.4615 16.2401 31.5963 16.3723C31.7276 16.5045 31.8503 16.6454 31.9644 16.7951C32.0785 16.9412 32.1804 17.0961 32.2703 17.2596C32.3567 17.43 32.4327 17.6058 32.4983 17.7868C32.5641 17.9677 32.6195 18.1521 32.6643 18.3401C32.7059 18.5245 32.7369 18.7123 32.7577 18.9037C32.775 19.0951 32.7819 19.2866 32.7783 19.4779C32.7887 19.8172 32.7577 20.1564 32.6902 20.4904C32.6177 20.8194 32.514 21.143 32.3687 21.4456C32.2236 21.7536 32.0422 22.0406 31.8295 22.3069C31.6222 22.5678 31.3785 22.808 31.1089 23.0116C30.803 23.2411 30.4764 23.4447 30.1342 23.6222C29.7919 23.7944 29.4342 23.9406 29.0662 24.0502C28.7031 24.165 28.3247 24.2485 27.9462 24.2955C27.5627 24.3425 27.179 24.3581 26.7953 24.3425C26.4911 24.3528 26.1852 24.3477 25.8775 24.3267C25.5734 24.306 25.271 24.2694 24.9702 24.2172C24.666 24.165 24.3671 24.0972 24.0732 24.0136C23.7795 23.9302 23.4891 23.8327 23.2022 23.7214C22.2241 23.3247 21.735 22.8635 21.735 22.3381C21.735 22.2755 21.7385 22.213 21.7454 22.1503C21.7558 22.0877 21.7678 22.025 21.7817 21.9623C21.7955 21.8997 21.811 21.8388 21.8283 21.7797C21.8491 21.717 21.8715 21.6561 21.8956 21.597C21.9441 21.4926 21.9924 21.39 22.0409 21.289C22.0927 21.1882 22.1463 21.0872 22.2015 20.9864C22.2534 20.8854 22.3087 20.7862 22.3675 20.6889C22.4263 20.5914 22.4868 20.4958 22.5489 20.4017C22.7011 20.5306 22.8583 20.6541 23.0207 20.7723C23.1867 20.8907 23.3561 21.002 23.5289 21.1064C23.6982 21.2072 23.8745 21.3029 24.0577 21.3934C24.2374 21.4804 24.4206 21.5605 24.6073 21.6336C24.7905 21.7032 24.9755 21.7658 25.162 21.8214C25.3487 21.8771 25.5388 21.9242 25.7324 21.9623C25.926 21.9971 26.1195 22.025 26.3131 22.0459C26.5067 22.0633 26.7019 22.0738 26.899 22.0772C27.0995 22.0876 27.3015 22.0841 27.5055 22.0667C27.7095 22.0459 27.91 22.0094 28.107 21.9572C28.3039 21.905 28.4958 21.8388 28.6825 21.7587C28.8691 21.6753 29.0471 21.5779 29.2166 21.4666C29.3513 21.3673 29.4705 21.2473 29.5795 21.1169C29.6831 20.9864 29.7764 20.8454 29.8438 20.6889C29.9164 20.5375 29.9683 20.3756 29.9995 20.2139C30.0305 20.0468 30.0409 19.8745 30.0356 19.7076C30.0391 19.5544 30.027 19.4013 29.9995 19.2482C29.9718 19.0986 29.9268 18.9525 29.8646 18.8098C29.8023 18.6706 29.7246 18.5384 29.6313 18.4131C29.538 18.2913 29.4326 18.18 29.315 18.079C28.8345 17.6754 27.9411 17.331 26.6345 17.0456C24.9132 16.6733 23.6775 16.12 22.9275 15.3858C22.7407 15.1979 22.5697 14.9891 22.4246 14.7647C22.2793 14.5402 22.155 14.3002 22.0615 14.0496C21.9631 13.8043 21.8905 13.5433 21.8491 13.2771C21.8076 13.0162 21.7868 12.7447 21.8023 12.4785C21.7919 12.1706 21.8179 11.8574 21.8854 11.5547C21.9527 11.252 22.0513 10.9597 22.1913 10.683C22.326 10.4012 22.4971 10.1402 22.6942 9.90532C22.8911 9.67045 23.1193 9.45645 23.3681 9.27376C23.6534 9.06498 23.9591 8.8823 24.2755 8.72572C24.5918 8.56913 24.9236 8.44386 25.2606 8.33947C25.6028 8.23508 25.9449 8.16201 26.2975 8.12025C26.65 8.07328 27.0027 8.06284 27.3551 8.07328C27.5419 8.07328 27.7284 8.0785 27.9151 8.08893C28.1019 8.09937 28.2884 8.11503 28.4751 8.13592C28.6583 8.15332 28.8431 8.17767 29.0299 8.20898C29.2131 8.2403 29.3945 8.27684 29.5742 8.31859C29.7228 8.34991 29.8715 8.38819 30.0201 8.43342C30.1654 8.47517 30.3087 8.52216 30.4505 8.57435C30.5921 8.63003 30.7321 8.68918 30.8705 8.75182C31.0087 8.81792 31.1435 8.88752 31.2748 8.9606C32.0145 9.37815 32.3844 9.80616 32.3844 10.2446C32.3705 10.4047 32.3481 10.5612 32.3169 10.7143C32.2823 10.8709 32.2391 11.024 32.1873 11.1737C32.1355 11.3233 32.0732 11.4694 32.0007 11.6121C31.9316 11.7513 31.8539 11.887 31.7673 12.0192L31.3111 12.0558Z" fill="#141414"/>
<path d="M35.1581 8.27167C35.2065 8.26819 35.2549 8.26471 35.3033 8.26123C35.3517 8.25775 35.4018 8.25427 35.4537 8.25079C35.502 8.24731 35.5505 8.24558 35.5988 8.24558C35.6473 8.2421 35.6956 8.24036 35.7441 8.24036C37.2026 8.24036 37.9337 8.985 37.9372 10.4743V18.1365C37.9301 18.314 37.9285 18.4932 37.9319 18.6741C37.9388 18.8516 37.9492 19.0291 37.9631 19.2065C37.9804 19.3875 38.0028 19.5666 38.0305 19.7441C38.0581 19.9216 38.0909 20.0974 38.129 20.2713C38.1565 20.3757 38.1929 20.4783 38.2378 20.5793C38.2828 20.6768 38.3364 20.7707 38.3986 20.8612C38.4573 20.9515 38.5247 21.0351 38.6007 21.1117C38.6769 21.1882 38.7597 21.2577 38.8497 21.3204C38.9257 21.3761 39.0034 21.4266 39.0829 21.4718C39.1625 21.5205 39.2437 21.5639 39.3266 21.6023C39.4095 21.644 39.4943 21.6806 39.5807 21.7118C39.6671 21.7432 39.7553 21.7711 39.845 21.7954C39.9591 21.8233 40.0732 21.8476 40.1873 21.8685C40.3013 21.8893 40.4172 21.9049 40.5346 21.9154C40.6522 21.9294 40.7679 21.9381 40.882 21.9415C40.9996 21.945 41.117 21.9468 41.2346 21.9468C41.4039 21.9468 41.5716 21.9397 41.7375 21.9259C41.9069 21.912 42.0745 21.8893 42.2404 21.8581C42.4063 21.8233 42.5705 21.7832 42.733 21.7379C42.8954 21.6893 43.0545 21.6319 43.21 21.5657C43.3447 21.5135 43.4761 21.4544 43.6041 21.3882C43.7354 21.3222 43.8615 21.2491 43.9825 21.169C44.1034 21.0925 44.221 21.009 44.3351 20.9185C44.4492 20.828 44.558 20.7323 44.6617 20.6315C44.7412 20.5653 44.8121 20.4923 44.8743 20.4123C44.9399 20.3356 44.997 20.2522 45.0453 20.1616C45.0937 20.0713 45.1317 19.9772 45.1594 19.8799C45.1905 19.7789 45.2095 19.6781 45.2164 19.5771V8.27167C45.2682 8.26819 45.3185 8.26471 45.3668 8.26123C45.4153 8.25775 45.4636 8.25427 45.5119 8.25079C45.5604 8.24731 45.6087 8.24558 45.6572 8.24558C45.709 8.2421 45.7591 8.24036 45.8074 8.24036C47.2661 8.24036 47.9954 8.985 47.9954 10.4743V23.8833H45.2164V22.4375C44.1069 23.7318 42.4841 24.379 40.3481 24.379C40.1545 24.3826 39.9609 24.3773 39.7673 24.3634C39.5738 24.3529 39.3802 24.3338 39.1866 24.3059C38.993 24.2782 38.8012 24.2434 38.6111 24.2015C38.421 24.1564 38.2327 24.1059 38.046 24.0503C37.8905 24.0015 37.7401 23.9441 37.5949 23.8779C37.4463 23.8119 37.3028 23.737 37.1645 23.6536C37.0298 23.5666 36.8985 23.4727 36.7706 23.3717C36.6461 23.2708 36.5269 23.1629 36.4129 23.0481C36.3021 22.9228 36.1985 22.7923 36.1017 22.6567C36.005 22.5209 35.9151 22.3799 35.8321 22.2339C35.7527 22.0878 35.6818 21.9364 35.6196 21.7798C35.5609 21.6232 35.509 21.4649 35.4641 21.3048C35.4052 21.0438 35.3533 20.7827 35.3085 20.5218C35.2669 20.2573 35.2324 19.993 35.2047 19.7285C35.1805 19.464 35.1633 19.1978 35.1529 18.9299C35.146 18.6654 35.146 18.3992 35.1529 18.1313L35.1581 8.27167Z" fill="#141414"/>
<path d="M50.7434 2.0395C50.7918 2.03602 50.8402 2.0308 50.8887 2.02384C50.937 2.02036 50.9854 2.01688 51.0338 2.0134C51.0856 2.0134 51.1357 2.01166 51.1842 2.00818C51.2325 2.00818 51.281 2.00818 51.3293 2.00818C52.788 2.00818 53.5173 2.75283 53.5173 4.24213V20.7932C53.5138 20.901 53.512 21.0071 53.512 21.1115C53.5155 21.216 53.5224 21.3204 53.5328 21.4248C53.5466 21.5292 53.5623 21.6335 53.5795 21.7379C53.6002 21.8387 53.6243 21.9415 53.652 22.0459C53.6728 22.0981 53.6987 22.1485 53.7298 22.1973C53.7574 22.2424 53.792 22.2859 53.8335 22.3278C53.8715 22.3695 53.9147 22.406 53.9632 22.4373C54.008 22.4687 54.0565 22.4964 54.1083 22.5209C54.1878 22.5486 54.2674 22.5731 54.3467 22.5939C54.4263 22.6148 54.5075 22.6304 54.5906 22.6409C54.6735 22.6547 54.7563 22.6634 54.8394 22.667C54.9222 22.6705 55.0053 22.6705 55.0882 22.667V23.8518C54.9431 23.8936 54.7962 23.9301 54.6475 23.9614C54.4989 23.9928 54.3503 24.0171 54.2016 24.0345C54.0496 24.0554 53.8974 24.0693 53.7454 24.0762C53.5933 24.0831 53.4429 24.0849 53.2943 24.0815C53.1699 24.0849 53.0455 24.0815 52.921 24.0711C52.8 24.0641 52.679 24.0467 52.5581 24.0189C52.4371 23.9944 52.3179 23.9631 52.2003 23.9248C52.0829 23.8866 51.9671 23.8396 51.853 23.7839C51.7597 23.7352 51.6715 23.6779 51.5885 23.6117C51.5056 23.5456 51.4278 23.4725 51.3552 23.3925C51.2861 23.3124 51.2221 23.2254 51.1634 23.1315C51.1082 23.041 51.0614 22.9471 51.0234 22.8496C50.9646 22.6757 50.9163 22.4999 50.8783 22.3224C50.8368 22.1449 50.8056 21.9658 50.785 21.7849C50.7606 21.6039 50.7451 21.423 50.7383 21.2421C50.7314 21.0611 50.7331 20.8784 50.7434 20.694V2.0395Z" fill="#141414"/>
<path fill-rule="evenodd" clip-rule="evenodd" d="M59.1064 16.6855C59.1721 18.394 59.6128 19.7094 60.4285 20.6314C61.2477 21.55 62.4195 22.0093 63.9438 22.0093C64.3481 22.0303 64.7526 21.9989 65.1518 21.9259C65.551 21.8528 65.9398 21.7328 66.3131 21.5709C66.6865 21.4092 67.039 21.2056 67.3657 20.9654C67.6923 20.7254 67.9878 20.4487 68.2574 20.1356C68.3197 20.2156 68.3801 20.2957 68.4389 20.3756C68.4976 20.4556 68.5529 20.5374 68.6048 20.6209C68.6601 20.7045 68.7137 20.7897 68.7656 20.8767C68.8139 20.9636 68.8624 21.0506 68.9107 21.1378C68.9453 21.2003 68.9781 21.2647 69.0093 21.3307C69.0369 21.3934 69.0611 21.4596 69.0817 21.5292C69.1061 21.5952 69.1249 21.6632 69.1389 21.7328C69.1526 21.8024 69.163 21.8737 69.1699 21.9467C69.1561 22.0615 69.1302 22.1728 69.0921 22.2807C69.0542 22.3887 69.004 22.4913 68.9417 22.5887C68.8797 22.6862 68.807 22.7749 68.724 22.855C68.6411 22.9349 68.5494 23.0044 68.4493 23.0637C67.2741 23.9406 65.6841 24.3791 63.6793 24.3791C61.284 24.3791 59.4435 23.6674 58.1576 22.2442C56.8753 20.8176 56.2323 18.7453 56.2289 16.0278C56.2185 15.6624 56.2307 15.2971 56.2653 14.9317C56.2963 14.5629 56.3499 14.1992 56.4259 13.8408C56.5019 13.4824 56.5987 13.1275 56.7163 12.7761C56.8337 12.4281 56.972 12.0888 57.131 11.7582C57.2693 11.4764 57.4265 11.205 57.6029 10.944C57.7792 10.6865 57.9744 10.4412 58.1888 10.2081C58.403 9.9784 58.6312 9.76439 58.8731 9.56606C59.1185 9.36772 59.376 9.18851 59.6456 9.02845C59.9187 8.87187 60.2005 8.73267 60.4907 8.61088C60.7811 8.48909 61.0801 8.3882 61.3877 8.30816C61.6918 8.22812 61.9995 8.16897 62.3105 8.13069C62.6251 8.09242 62.9397 8.07502 63.2542 8.0785C63.548 8.06806 63.8435 8.0785 64.1408 8.10981C64.4345 8.14112 64.7249 8.19159 65.0118 8.26117C65.2987 8.33425 65.5787 8.42473 65.8517 8.5326C66.1283 8.64047 66.3944 8.76748 66.6502 8.91362C66.8853 9.0528 67.1064 9.20938 67.3137 9.38337C67.5246 9.55387 67.72 9.74004 67.8997 9.94186C68.0829 10.1437 68.2488 10.3594 68.3974 10.5891C68.5461 10.8153 68.6774 11.0519 68.7915 11.2989C68.9193 11.5738 69.0299 11.8574 69.1233 12.1497C69.22 12.4385 69.2979 12.7325 69.3566 13.0318C69.4189 13.3276 69.4638 13.6286 69.4913 13.9348C69.5225 14.2375 69.5345 14.542 69.5277 14.8482C69.5312 15.0013 69.5312 15.1544 69.5277 15.3075C69.5277 15.4606 69.5225 15.6137 69.5121 15.7668C69.5053 15.9199 69.4949 16.073 69.4809 16.2261C69.4672 16.3792 69.4499 16.5323 69.4291 16.6855H59.1064ZM66.7539 14.582C66.7539 11.7809 65.5441 10.3803 63.1246 10.3803C62.8653 10.3699 62.6061 10.3855 62.3469 10.4325C62.0928 10.4742 61.8387 10.5473 61.6003 10.6413C61.3566 10.7404 61.1285 10.8657 60.9107 11.0119C60.6981 11.158 60.496 11.325 60.3145 11.5129C60.1278 11.7217 59.9619 11.9462 59.8115 12.1863C59.6664 12.4263 59.5368 12.6769 59.4382 12.9379C59.3345 13.1988 59.2517 13.4702 59.1998 13.7469C59.1427 14.0235 59.1117 14.3054 59.1064 14.582H66.7539Z" fill="#141414"/>
<path d="M72.0887 3.70465C72.1371 3.70117 72.1854 3.69595 72.2339 3.689C72.2822 3.68552 72.3307 3.68378 72.379 3.68378C72.4275 3.6803 72.4775 3.67682 72.5294 3.67334C72.5777 3.67334 72.6262 3.67334 72.6745 3.67334C74.1332 3.67334 74.8625 4.41798 74.8625 5.90729V8.43874H79.731V10.8032H74.8625V19.2849C74.8625 21.0804 75.5711 21.9781 76.9883 21.9781C77.0815 21.9781 77.1748 21.9729 77.2683 21.9624C77.3615 21.952 77.4548 21.9381 77.5481 21.9207C77.638 21.8998 77.7279 21.8755 77.8177 21.8476C77.9076 21.8199 77.9958 21.7867 78.0822 21.7485C78.1721 21.7102 78.2603 21.6685 78.3467 21.6232C78.4331 21.5815 78.5177 21.5362 78.6007 21.4874C78.6836 21.4352 78.7649 21.3831 78.8444 21.3309C78.9238 21.2753 79.0015 21.2178 79.0777 21.1587C79.1364 21.1134 79.1934 21.0682 79.2487 21.0229C79.3041 20.9778 79.3577 20.9308 79.4095 20.8821C79.4614 20.8333 79.5115 20.7811 79.5598 20.7254C79.6083 20.6732 79.6548 20.6192 79.6998 20.5637C80.3324 21.3536 80.6486 21.9678 80.6486 22.4062C80.6348 22.5035 80.6107 22.5975 80.5761 22.6879C80.5415 22.782 80.4983 22.8707 80.4465 22.9542C80.3911 23.0342 80.3289 23.109 80.2598 23.1785C80.1871 23.2483 80.1094 23.3074 80.0265 23.356C79.9124 23.443 79.7948 23.5249 79.6739 23.6014C79.5529 23.6779 79.4302 23.7476 79.3059 23.8101C79.1779 23.8728 79.0465 23.9303 78.9118 23.9825C78.7804 24.0311 78.6455 24.0746 78.5073 24.1129C78.3484 24.1582 78.1894 24.1981 78.0303 24.2329C77.8679 24.2643 77.7054 24.292 77.543 24.3165C77.3806 24.3373 77.218 24.3529 77.0556 24.3634C76.8932 24.3739 76.7291 24.379 76.5631 24.379C74.3855 24.379 73.003 23.5561 72.4153 21.9102C72.3497 21.6806 72.2943 21.4493 72.2494 21.216C72.2044 20.9829 72.1681 20.7481 72.1406 20.5115C72.1129 20.2749 72.0939 20.0382 72.0835 19.8016C72.0766 19.5615 72.0783 19.3231 72.0887 19.0865V3.70465Z" fill="#141414"/>
</g>
</g>
<defs>
<clipPath id="clip0_13_1159">
<rect width="80" height="24" fill="white" transform="translate(0.674683 0.5)"/>
</clipPath>
</defs>
</svg>
