<svg width="124" height="25" viewBox="0 0 124 25" fill="none" xmlns="http://www.w3.org/2000/svg">
<g clip-path="url(#clip0_13_707)">
<path d="M6.21721 1.27002H0.674683V20.7484H6.19126C9.12476 20.7484 11.2405 20.0565 13.1032 18.4964C15.3098 16.6556 16.6208 13.8879 16.6208 11.0158C16.6143 5.27144 12.3438 1.27002 6.21721 1.27002ZM10.6305 15.9049C9.44279 16.982 7.89815 17.452 5.45788 17.452H4.44542V4.57299H5.45788C7.89815 4.57299 9.37789 5.01033 10.6305 6.14615C11.935 7.31458 12.7203 9.12928 12.7203 10.9962C12.7203 12.8631 11.935 14.7365 10.6305 15.9049Z" fill="#141414"/>
<path d="M22.1307 1.27002H18.3535V20.7484H22.1307V1.27002Z" fill="#141414"/>
<path d="M31.3731 8.74436C29.1079 7.90228 28.4395 7.3409 28.4395 6.28997C28.4395 5.06278 29.6272 4.12933 31.2562 4.12933C32.392 4.12933 33.3201 4.59931 34.3 5.709L36.2795 3.10448C34.6569 1.67494 32.7101 0.943848 30.5878 0.943848C27.161 0.943848 24.5454 3.33948 24.5454 6.52495C24.5454 9.2078 25.7655 10.5851 29.3091 11.8646C30.7888 12.3868 31.5418 12.7392 31.9182 12.9742C32.6709 13.4703 33.054 14.1688 33.054 14.9913C33.054 16.571 31.8077 17.7394 30.1204 17.7394C28.3227 17.7394 26.8688 16.8321 25.9992 15.1414L23.559 17.5044C25.2983 20.0763 27.3881 21.2121 30.2631 21.2121C34.1898 21.2121 36.9415 18.588 36.9415 14.815C36.9415 11.721 35.6694 10.3175 31.3731 8.73782V8.74436Z" fill="#141414"/>
<path d="M38.1353 11.0224C38.1353 16.7471 42.607 21.1859 48.3573 21.1859C49.9863 21.1859 51.375 20.866 53.095 20.0501V15.5787C51.5828 17.0996 50.2458 17.7132 48.5324 17.7132C44.7293 17.7132 42.0294 14.9389 42.0294 10.9963C42.0294 7.25592 44.8137 4.30546 48.3573 4.30546C50.1615 4.30546 51.5243 4.95168 53.095 6.49874V2.02732C51.4399 1.17873 50.0707 0.832764 48.4481 0.832764C42.7239 0.832764 38.1353 5.36292 38.1353 11.0289V11.0224Z" fill="#141414"/>
<path d="M83.0465 14.3514L77.8805 1.27002H73.7593L81.9757 21.251H84.0071L92.3793 1.27002H88.2775L83.0465 14.3514Z" fill="#141414"/>
<path d="M94.0865 20.7484H104.802V17.452H97.8572V12.1907H104.542V8.89427H97.8572V4.57299H104.802V1.27002H94.0865V20.7484Z" fill="#141414"/>
<path d="M119.761 7.02084C119.761 3.3719 117.262 1.27002 112.907 1.27002H107.307V20.7484H111.077V12.9218H111.57L116.801 20.7484H121.448L115.348 12.5432C118.197 11.9622 119.761 10.004 119.761 7.02084ZM112.181 10.239H111.077V4.33801H112.239C114.595 4.33801 115.873 5.3302 115.873 7.22321C115.873 9.11621 114.595 10.239 112.181 10.239Z" fill="#141414"/>
<path d="M122.772 2.28862C122.772 1.94919 122.539 1.75989 122.123 1.75989H121.578V3.47665H121.987V2.81083L122.467 3.47665H122.967L122.402 2.76514C122.642 2.69986 122.779 2.52362 122.779 2.28862H122.772ZM122.052 2.52362H121.981V2.07321H122.052C122.253 2.07321 122.357 2.14502 122.357 2.29515C122.357 2.44529 122.253 2.52362 122.045 2.52362H122.052Z" fill="#141414"/>
<path d="M122.201 1.12C121.37 1.12 120.715 1.78581 120.715 2.61482C120.715 3.44382 121.383 4.11617 122.201 4.11617C123.019 4.11617 123.674 3.44382 123.674 2.61482C123.674 1.78581 123.012 1.12 122.201 1.12ZM122.201 3.84853C121.546 3.84853 121.013 3.30022 121.013 2.62135C121.013 1.94247 121.539 1.39415 122.201 1.39415C122.863 1.39415 123.382 1.95553 123.382 2.62135C123.382 3.28716 122.857 3.84853 122.201 3.84853Z" fill="#141414"/>
<path d="M74.8307 10.9898C74.8307 16.6884 70.242 21.3035 64.5762 21.3035C58.9103 21.3035 54.3219 16.6819 54.3219 10.9898C54.3219 5.29776 58.9103 0.669678 64.5762 0.669678C70.242 0.669678 74.8307 5.29122 74.8307 10.9833V10.9898Z" fill="#141414"/>
</g>
<defs>
<clipPath id="clip0_13_707">
<rect width="123" height="24" fill="white" transform="translate(0.674683 0.5)"/>
</clipPath>
</defs>
</svg>
