<svg width="91" height="25" viewBox="0 0 91 25" fill="none" xmlns="http://www.w3.org/2000/svg">
<g clip-path="url(#clip0_13_1138)">
<mask id="mask0_13_1138" style="mask-type:luminance" maskUnits="userSpaceOnUse" x="0" y="0" width="91" height="25">
<path d="M90.6747 0.5H0.674683V24.5004H90.6747V0.5Z" fill="white"/>
</mask>
<g mask="url(#mask0_13_1138)">
<path d="M31.6232 18.0969C31.5731 20.1642 30.525 22.0802 28.7779 23.1895C27.2304 24.0971 25.5332 24.5509 23.7363 24.45C22.1888 24.5004 20.6914 24.1978 19.2437 23.6433C18.7946 23.4416 18.7445 23.2904 18.7445 22.4836C18.7445 20.9709 18.8943 19.7104 18.8943 19.2565C18.9443 18.9036 18.9942 18.7524 19.1439 18.7524C19.2937 18.7524 19.3934 18.8533 19.3934 19.1053C19.3934 19.5087 19.3934 19.8616 19.4933 20.2145C19.9925 22.4836 22.1888 23.3407 24.435 23.3407C27.6297 23.3407 29.1771 21.2231 29.1771 19.2565C29.1771 17.1389 28.2287 15.9288 25.3336 13.7607L23.836 12.6515C20.292 9.97914 19.4933 8.11358 19.4933 5.99589C19.5932 2.71853 22.2387 0.5 26.4816 0.5C27.53 0.5 28.5781 0.600842 29.5766 0.802525C29.9758 0.903367 30.3752 0.953789 30.7246 0.953789C30.9743 0.953789 31.074 1.00421 31.074 1.15547C31.074 1.30674 30.9242 2.31516 30.9242 4.38242C30.9242 4.88664 30.8744 5.08831 30.6747 5.08831C30.525 5.08831 30.4251 4.93705 30.4251 4.68495C30.3752 4.18073 30.2255 3.62611 29.9758 3.17231C29.7762 2.81936 28.8776 1.55884 25.8327 1.55884C23.5367 1.55884 21.7395 2.86978 21.7395 5.08831C21.7395 6.85305 22.688 7.86147 25.8327 10.2313L26.7812 10.8867C30.6747 13.7607 31.6232 15.6767 31.6232 18.0969ZM42.7545 10.9371L41.8061 10.2817C38.6613 7.91189 37.7628 6.90347 37.7628 5.13873C37.7628 2.9202 39.5599 1.60926 41.856 1.60926C44.9509 1.60926 45.8495 2.86978 46.0491 3.22273C46.2487 3.67653 46.3985 4.23116 46.4984 4.73536C46.5482 4.98747 46.5981 5.13873 46.7478 5.13873C46.8976 5.13873 46.9975 4.93705 46.9975 4.43284C46.9975 2.36558 47.1473 1.35716 47.1473 1.20589C47.1473 1.05463 47.0974 1.00421 46.7979 1.00421C46.3985 1.00421 45.9992 0.953789 45.6497 0.852947C44.6514 0.651263 43.6031 0.550421 42.5549 0.550421C38.312 0.550421 35.6663 2.76895 35.6663 6.04631C35.6663 8.164 36.465 10.0296 40.0092 12.7019L41.5066 13.8111C44.4017 15.9793 45.3501 17.1894 45.3501 19.3071C45.3501 21.2735 43.8029 23.3911 40.608 23.3911C38.3618 23.3911 36.1655 22.534 35.6663 20.2651C35.5666 19.9122 35.5666 19.5087 35.5666 19.1558C35.5666 18.9036 35.5166 18.8029 35.3169 18.8029C35.1672 18.8029 35.0673 18.9542 35.0673 19.3071C35.0174 19.8113 34.9175 21.0213 34.9175 22.534C34.9175 23.3407 34.9676 23.492 35.4168 23.6936C36.8144 24.2987 38.3618 24.5509 39.9093 24.5004C41.6564 24.5509 43.4034 24.0971 44.9509 23.2398C46.698 22.1305 47.7463 20.2145 47.7962 18.1474C47.5965 15.6767 46.698 13.7607 42.7545 10.9371ZM15.2504 19.9625C15.1006 19.9625 15.0008 20.0633 14.9509 20.4164C14.7013 21.6769 14.302 22.2818 13.4534 22.6349C12.6048 22.9878 11.1073 22.9878 10.2587 22.9878C7.01412 22.9878 6.46503 22.5844 6.3652 20.4667C6.31529 19.8113 6.3652 16.2818 6.3652 15.2229V12.5506C6.3652 12.4498 6.41512 12.3489 6.61479 12.3489C7.16386 12.3489 10.5083 12.3994 11.3569 12.5002C12.6547 12.601 12.9542 13.1557 13.104 13.559C13.2038 13.8616 13.2537 14.2145 13.2537 14.5675C13.2537 14.7187 13.2537 14.8196 13.5033 14.8196C13.7529 14.8196 13.7529 14.4666 13.7529 14.2649C13.7529 14.0633 13.8028 12.9036 13.9026 12.2985C14.0025 11.2901 14.1522 10.7859 14.1522 10.5842C14.1522 10.3825 14.1023 10.3321 14.0025 10.3321C13.9026 10.3321 13.8028 10.4329 13.5033 10.7355C13.1539 10.9876 12.6547 11.0884 11.856 11.1388C11.1073 11.1893 6.96421 11.1893 6.56486 11.1893C6.41512 11.1893 6.3652 11.0884 6.3652 10.8867V2.416C6.3652 2.21431 6.41512 2.11347 6.56486 2.11347C6.91427 2.11347 10.5582 2.16389 11.1572 2.21431C12.9542 2.416 13.3036 2.76895 13.5532 3.27316C13.703 3.62611 13.7529 3.97905 13.7529 4.38242C13.7529 4.63453 13.9026 4.78578 14.0025 4.78578C14.1023 4.78578 14.2021 4.58411 14.252 4.43284C14.302 4.07989 14.4018 2.71853 14.4018 2.416C14.5016 1.55884 14.6514 1.10505 14.6514 0.953789C14.6514 0.802525 14.7013 0.701684 14.5016 0.701684C14.3519 0.701684 14.2021 0.802525 14.0524 0.852947C13.6031 0.953789 13.104 1.00421 12.6048 1.00421H4.96752C4.81778 1.00421 2.72126 0.953789 1.22377 0.953789C0.824433 0.953789 0.674683 1.05463 0.674683 1.15547C0.674683 1.25631 0.824433 1.35716 0.924267 1.35716C1.3236 1.35716 1.67302 1.40758 2.07235 1.458C3.17053 1.65968 3.42011 2.21431 3.51994 3.17231C3.56986 4.18073 3.56986 5.03789 3.56986 9.82789V15.2229C3.56986 18.1474 3.56986 20.5676 3.42011 21.8785C3.27035 22.786 3.12061 23.4416 2.47169 23.5424C2.12227 23.5929 1.82277 23.6433 1.47335 23.6433C1.27368 23.6433 1.22377 23.744 1.22377 23.8449C1.22377 24.0465 1.37352 24.0971 1.77285 24.0971C2.7712 24.0971 4.86769 23.9962 5.06737 23.9962C6.01579 23.9962 8.26204 24.1978 13.3036 24.1978C14.6015 24.1978 14.851 24.1978 15.1006 23.3911C15.3003 22.4331 15.4501 21.4247 15.5499 20.4164C15.4501 20.2145 15.4001 19.9625 15.2504 19.9625ZM64.9176 19.9625C64.7678 19.9625 64.6681 20.0633 64.6181 20.4164C64.3686 21.6769 63.9692 22.2818 63.1206 22.6349C62.2719 22.9878 60.7745 22.9878 59.926 22.9878C56.6813 22.9878 56.1822 22.5844 56.0324 20.4667C55.9826 19.8113 56.0324 16.2818 56.0324 15.2229V12.5506C56.0324 12.4498 56.0823 12.3489 56.2821 12.3489C56.8311 12.3489 60.1755 12.3994 61.074 12.5002C62.3718 12.601 62.6714 13.1557 62.8211 13.559C62.921 13.8616 62.9709 14.2145 62.9709 14.5675C62.9709 14.7187 62.9709 14.8196 63.2204 14.8196C63.47 14.8196 63.47 14.4666 63.47 14.2649C63.47 14.0633 63.5199 12.9036 63.6198 12.2985C63.7197 11.2901 63.8694 10.7859 63.8694 10.5842C63.8694 10.3825 63.8194 10.3321 63.7197 10.3321C63.5699 10.3321 63.47 10.4834 63.2204 10.7355C62.921 11.038 62.4217 11.0884 61.6731 11.1893C60.9243 11.2397 56.7812 11.2397 56.3818 11.2397C56.232 11.2397 56.1822 11.1388 56.1822 10.9371V2.416C56.1822 2.21431 56.232 2.11347 56.3818 2.11347C56.7312 2.11347 60.3751 2.16389 60.9741 2.21431C62.7713 2.416 63.1206 2.76895 63.3203 3.27316C63.47 3.62611 63.5199 3.97905 63.5199 4.38242C63.5199 4.63453 63.6696 4.78578 63.7695 4.78578C63.9193 4.78578 63.9692 4.58411 64.019 4.43284C64.0691 4.07989 64.1688 2.71853 64.1688 2.416C64.2687 1.55884 64.4184 1.10505 64.4184 0.953789C64.4184 0.802525 64.4683 0.701684 64.2687 0.701684C64.1189 0.701684 63.9692 0.802525 63.8194 0.852947C63.3701 0.953789 62.871 1.00421 62.3718 1.00421H54.6347C54.4351 1.00421 52.3885 0.903367 50.8909 0.903367C50.5415 0.903367 50.3419 1.00421 50.3419 1.15547C50.3419 1.30674 50.4917 1.35716 50.5916 1.35716C50.9908 1.35716 51.3402 1.40758 51.7396 1.458C52.8378 1.7101 53.1373 2.21431 53.1872 3.22273C53.237 4.18073 53.237 5.03789 53.237 9.82789V15.2229C53.237 18.1474 53.237 20.5676 53.0873 21.8785C52.9375 22.786 52.7877 23.4416 52.1388 23.5424C51.7895 23.5929 51.4899 23.6433 51.1406 23.6433C50.9409 23.6433 50.8909 23.744 50.8909 23.8449C50.8909 24.0465 51.0407 24.0971 51.4401 24.0971C52.4384 24.0971 54.535 23.9962 54.6846 23.9962C55.633 23.9962 57.8794 24.1978 62.921 24.1978C64.2188 24.1978 64.4683 24.1978 64.718 23.3911C64.9176 22.4331 65.0673 21.4247 65.1672 20.4164C65.1172 20.2145 65.0673 19.9625 64.9176 19.9625ZM90.3752 23.6433C89.9759 23.6433 89.5765 23.5424 89.2271 23.4416C88.4285 23.2398 87.7295 22.7356 87.2804 22.0802C86.5815 21.2735 80.891 12.3489 80.2421 11.3909L85.633 3.97905C86.5815 2.66811 87.2304 1.76053 88.1788 1.50842C88.5282 1.40758 88.9276 1.35716 89.277 1.35716C89.5266 1.35716 89.6264 1.25631 89.6264 1.15547C89.6264 1.05463 89.4766 0.953789 89.0774 0.953789C87.9293 0.953789 86.5815 1.05463 86.282 1.05463C85.9824 1.05463 84.5849 0.953789 83.337 0.953789C82.9376 0.953789 82.7878 1.00421 82.7878 1.15547C82.7878 1.30674 82.8877 1.35716 83.0873 1.35716C83.4367 1.35716 83.7362 1.35716 84.0856 1.458C84.4352 1.55884 84.6348 1.81095 84.6348 2.01263C84.6348 2.416 84.485 2.76894 84.2854 3.12189C83.9358 3.77736 80.3918 9.02114 79.3935 10.3321C77.6465 7.7102 76.2986 5.44125 74.9009 3.02105C74.7013 2.71853 74.6014 2.36558 74.5515 2.01263C74.5515 1.76053 74.7013 1.55884 74.951 1.50842C75.2505 1.458 75.5498 1.40758 75.8493 1.40758C76.0491 1.40758 76.1488 1.35716 76.1488 1.20589C76.1488 1.05463 76.0491 1.00421 75.5999 1.00421C74.4516 1.00421 72.7046 1.10505 72.4551 1.10505C72.2054 1.10505 69.5099 1.00421 68.5615 1.00421C68.1122 1.00421 68.0125 1.10505 68.0125 1.20589C68.0125 1.30674 68.1122 1.40758 68.312 1.40758C68.7611 1.40758 69.2604 1.50842 69.7095 1.60926C70.8578 1.96221 71.5565 2.86978 72.3053 4.02947L77.6963 12.2481L71.6564 21.0213C70.5582 22.5844 69.9093 23.2398 68.9109 23.492C68.5116 23.5929 68.0624 23.6433 67.6631 23.6433C67.5134 23.6433 67.4135 23.744 67.4135 23.8449C67.4135 23.9458 67.4633 24.0465 67.7628 24.0465C68.861 24.0465 70.5084 23.9458 70.8077 23.9458C71.1072 23.9458 73.2039 24.0465 74.0025 24.0465C74.252 24.0465 74.4018 23.9458 74.4018 23.8449C74.4018 23.744 74.3019 23.6433 74.1523 23.6433C73.9525 23.6433 73.7529 23.5929 73.5032 23.5929C73.2039 23.5424 73.0041 23.2904 72.9542 23.0382C73.0041 22.534 73.1538 22.0802 73.4035 21.6769L78.5949 13.559C80.5914 16.6347 82.5383 19.66 84.3353 22.6853L84.9841 23.9962C86.6814 24.0465 88.2787 24.0465 90.3253 24.0465C90.6248 24.0465 90.7746 23.9458 90.7746 23.7945C90.7746 23.6433 90.5748 23.6433 90.3752 23.6433Z" fill="#141414"/>
</g>
</g>
<defs>
<clipPath id="clip0_13_1138">
<rect width="90" height="24" fill="white" transform="translate(0.674683 0.5)"/>
</clipPath>
</defs>
</svg>
