<svg width="164" height="27" viewBox="0 0 164 27" fill="none" xmlns="http://www.w3.org/2000/svg">
<g clip-path="url(#clip0_13_1179)">
<mask id="mask0_13_1179" style="mask-type:luminance" maskUnits="userSpaceOnUse" x="0" y="0" width="164" height="27">
<path d="M163.325 0H0.674683V26.9609H163.325V0Z" fill="white"/>
</mask>
<g mask="url(#mask0_13_1179)">
<path d="M0.674683 0.442611H11.0665L14.2995 13.8557L15.0885 17.5698L15.8582 13.8557L19.1105 0.442611H29.5023V26.499H22.8438V9.60276L21.9008 13.4708L18.4369 26.499H11.5861L8.12213 13.4708L7.1984 9.60276V26.499H0.674683V0.442611ZM56.675 15.8186C56.675 22.7849 52.0947 26.9416 44.4355 26.9416C36.7766 26.9416 32.1964 22.8042 32.1964 15.8186V11.1231C32.1964 4.1567 36.7766 0 44.4355 0C52.0947 0 56.675 4.13747 56.675 11.1231V15.8186ZM44.4163 5.77322C41.2602 5.77322 39.3166 7.5629 39.3166 10.5072V16.4729C39.3166 19.3787 41.2602 21.2069 44.4163 21.2069C47.5724 21.2069 49.5161 19.3787 49.5161 16.4729V10.5072C49.5161 7.5629 47.5916 5.77322 44.4163 5.77322ZM83.6551 15.8186C83.6551 22.7849 79.0749 26.9416 71.4156 26.9416C63.7568 26.9416 59.1765 22.8042 59.1765 15.8186V11.1231C59.1765 4.1567 63.7568 0 71.4156 0C79.0749 0 83.6551 4.13747 83.6551 11.1231V15.8186ZM71.4156 5.77322C68.2596 5.77322 66.3162 7.5629 66.3162 10.5072V16.4729C66.3162 19.3787 68.2596 21.2069 71.4156 21.2069C74.5717 21.2069 76.5154 19.3787 76.5154 16.4729V10.5072C76.5154 7.5629 74.5717 5.77322 71.4156 5.77322ZM109.423 15.0681C109.423 22.2846 104.804 26.499 96.7986 26.499H86.3105V0.442611H96.7986C104.804 0.442611 109.423 4.65704 109.423 11.8736V15.0681ZM96.7986 6.29279H93.3732V20.6681H96.7986C100.455 20.6681 102.264 18.8014 102.264 15.2028V11.7581C102.264 8.12098 100.436 6.29279 96.7986 6.29279ZM116.755 15.0488L107.248 0.442611H115.254L120.276 8.64059L125.26 0.442611H132.92L123.451 15.0488V26.5183H116.755V15.0488ZM133.651 0.442611H140.733V6.9471L136.191 13.0474H134.671L136.692 7.50519H133.651V0.442611ZM163.306 18.3973C163.306 23.8049 159.322 26.9609 152.51 26.9609C145.698 26.9609 141.753 23.8626 141.753 18.7052V17.5506H148.642V18.5512C148.642 20.3794 149.797 21.1492 152.51 21.1492C155.012 21.1492 156.301 20.3987 156.301 18.9939C156.301 17.3966 155.224 17.0502 153.626 16.8385L148.931 16.1265C145.871 15.6839 141.887 14.1251 141.887 8.48662C141.887 2.84812 145.813 0 152.529 0C159.246 0 163.017 3.0598 163.017 8.19795V9.19864H156.128V8.35191C156.128 6.5622 155.05 5.8117 152.51 5.8117C150.124 5.8117 148.892 6.52372 148.892 7.89005C148.892 9.41035 149.931 9.75673 151.433 9.9684L156.09 10.6805C159.342 11.1615 163.325 12.7395 163.306 18.3973Z" fill="#141414"/>
</g>
</g>
<defs>
<clipPath id="clip0_13_1179">
<rect width="162.651" height="27" fill="white" transform="translate(0.674683)"/>
</clipPath>
</defs>
</svg>
