<svg width="141" height="25" viewBox="0 0 141 25" fill="none" xmlns="http://www.w3.org/2000/svg">
<g clip-path="url(#clip0_13_1145)">
<mask id="mask0_13_1145" style="mask-type:luminance" maskUnits="userSpaceOnUse" x="0" y="0" width="141" height="25">
<path d="M140.675 0.5H0.674683V24.3491H140.675V0.5Z" fill="white"/>
</mask>
<g mask="url(#mask0_13_1145)">
<path d="M19.3622 0.944702H15.6122C15.6122 0.944702 15.6122 8.61556 15.6122 9.80803C14.4425 9.80803 6.29969 9.80803 5.13897 9.80803C5.13897 8.61556 5.13897 0.944702 5.13897 0.944702H0.674683V23.9395H5.13897C5.13897 23.9395 5.13897 14.9872 5.13897 13.7502C6.29969 13.7502 14.4425 13.7502 15.6122 13.7502C15.6122 14.9694 15.6122 23.9395 15.6122 23.9395H20.0765V0.944702H19.3622Z" fill="#141414"/>
<path fill-rule="evenodd" clip-rule="evenodd" d="M44.4157 12.4779C44.4157 14.7738 43.9067 16.8562 42.9158 18.6716C41.9156 20.5136 40.4605 21.9108 38.6211 22.8718C36.7997 23.8151 34.8173 24.2868 32.7193 24.2868C30.4423 24.2868 28.3621 23.7617 26.5585 22.7295C24.755 21.6883 23.3532 20.2378 22.4246 18.4224C21.496 16.6426 21.0228 14.7116 21.0228 12.736C21.0228 8.97176 22.13 5.99953 24.2996 3.83707C26.4871 1.67464 29.3086 0.580078 32.7372 0.580078C34.9781 0.580078 37.0139 1.09622 38.8174 2.09289C40.6212 3.10737 42.0497 4.5401 42.9961 6.35548C43.9425 8.16196 44.4157 10.2087 44.4157 12.4779ZM39.0229 8.19754C38.4604 6.9962 37.6389 6.1063 36.5228 5.44778C35.4157 4.79816 34.1568 4.46891 32.7728 4.46891C30.7727 4.46891 29.1121 5.09183 27.6746 6.35548C26.2907 7.59243 25.5764 9.75486 25.5764 12.7716C25.5764 15.1654 26.255 17.0787 27.6032 18.4224C28.9693 19.7839 30.6389 20.4514 32.7193 20.4514C34.8353 20.4514 36.5228 19.7839 37.871 18.4046C39.2192 17.0431 39.8979 15.0408 39.8979 12.4779C39.8979 10.8316 39.5855 9.39 39.0229 8.19754Z" fill="#141414"/>
<path d="M49.8265 19.9795C49.8265 18.6713 49.8265 0.944702 49.8265 0.944702H45.3622V23.9395H61.1032V19.9973C61.1211 19.9795 51.0854 19.9795 49.8265 19.9795Z" fill="#141414"/>
<path fill-rule="evenodd" clip-rule="evenodd" d="M82.2549 12.4779C82.2549 14.7738 81.7551 16.8562 80.755 18.6716C79.7551 20.5136 78.2997 21.9286 76.4603 22.8718C74.6389 23.8151 72.6479 24.2868 70.5585 24.2868C68.2818 24.2868 66.2193 23.7617 64.4159 22.7295C62.5945 21.6883 61.1925 20.2378 60.264 18.4224C59.3355 16.6426 58.8621 14.7293 58.8621 12.736C58.8621 8.97176 59.9515 5.99953 62.1389 3.83707C64.3086 1.67464 67.1302 0.580078 70.5585 0.580078C72.7996 0.580078 74.8355 1.09622 76.639 2.09289C78.4604 3.10737 79.8621 4.5401 80.8087 6.35548C81.7551 8.16196 82.2283 10.2087 82.2549 12.4779ZM76.8442 8.19754C76.273 6.9962 75.4515 6.1063 74.3444 5.44778C73.2373 4.79816 71.9784 4.46891 70.5943 4.46891C68.5853 4.46891 66.9336 5.09183 65.4871 6.35548C64.1034 7.59243 63.3978 9.75486 63.3978 12.7716C63.3978 15.2099 64.0496 17.0609 65.4157 18.4224C66.7819 19.7839 68.4605 20.4514 70.5409 20.4514C72.6479 20.4514 74.3444 19.7839 75.6926 18.4046C77.0408 17.0431 77.7105 15.0408 77.7105 12.4779C77.7105 10.8316 77.4067 9.39 76.8442 8.19754Z" fill="#141414"/>
<path d="M94.853 11.5168V15.459C94.853 15.459 100.469 15.459 101.594 15.459C101.594 16.3134 101.594 17.9329 101.594 18.4224C101.014 18.8584 100.228 19.2767 99.1924 19.6771C98.0228 20.1132 96.8085 20.3446 95.6031 20.3446C94.2014 20.3446 92.8529 20.0509 91.612 19.4725C90.3976 18.9118 89.505 18.0575 88.8621 16.8918C88.2282 15.7171 87.8978 14.2043 87.8978 12.4067C87.8978 10.9562 88.1744 9.59467 88.719 8.33992C89.0318 7.64582 89.4602 6.9962 90.0316 6.41777C90.5762 5.84824 91.3264 5.37659 92.2369 5.01173C93.1657 4.64983 94.2756 4.46891 95.5672 4.46891C96.6209 4.46891 97.6121 4.65578 98.4602 4.97615C99.2817 5.3054 99.9422 5.74144 100.362 6.26649C100.817 6.83601 101.192 7.61021 101.505 8.63358L101.71 9.26543L105.791 8.19754L105.603 7.50343C105.183 5.96392 104.549 4.69139 103.728 3.70359C102.889 2.70692 101.728 1.92381 100.282 1.38098C98.862 0.855945 97.2817 0.580078 95.5317 0.580078C93.1478 0.580078 90.996 1.05172 89.1566 1.98611C87.2818 2.92939 85.7994 4.39772 84.8175 6.33768C83.8352 8.25095 83.3441 10.3333 83.3441 12.5313C83.3441 14.7738 83.8532 16.8206 84.8351 18.6182C85.8353 20.4514 87.3532 21.8752 89.3174 22.8541C91.246 23.7973 93.4154 24.2868 95.7638 24.2868C97.5138 24.2868 99.228 23.9931 100.889 23.3969C102.523 22.8185 104.148 21.9286 105.692 20.7628L105.987 20.5492V11.5168H94.853Z" fill="#141414"/>
<path d="M111.54 0.944702H107.791V23.9395H112.255V0.944702H111.54Z" fill="#141414"/>
<path d="M130.996 14.8272L130.835 15.5125C130.451 17.1498 129.746 18.4046 128.683 19.2233C127.63 20.0509 126.353 20.4513 124.808 20.4513C123.529 20.4513 122.344 20.1428 121.255 19.5258C120.174 18.9296 119.416 18.0397 118.907 16.8028C118.371 15.5302 118.103 14.0085 118.103 12.2643C118.103 10.9384 118.317 9.63028 118.773 8.37552C119.21 7.17416 119.942 6.23087 120.996 5.52787C122.058 4.81596 123.424 4.45111 125.041 4.45111C126.425 4.45111 127.576 4.76258 128.469 5.39439C129.344 6.0173 130.049 7.04958 130.523 8.46452L130.728 9.06963L135.058 8.09966L134.844 7.37886C134.183 5.2342 133.005 3.54341 131.308 2.35986C129.63 1.1852 127.541 0.580078 125.112 0.580078C122.987 0.580078 120.996 1.05172 119.228 1.96831C117.425 2.8938 116.005 4.27312 115.041 6.05291C114.076 7.8149 113.585 9.89724 113.585 12.2643C113.585 14.409 114.023 16.4557 114.862 18.3334C115.737 20.2555 117.005 21.7239 118.666 22.7472C120.326 23.7617 122.478 24.269 125.058 24.269C127.594 24.269 129.782 23.6015 131.549 22.2934C133.335 20.9853 134.567 19.0364 135.246 16.5536L135.442 15.8417L130.996 14.8272Z" fill="#141414"/>
<path fill-rule="evenodd" clip-rule="evenodd" d="M138.139 6.17719C136.684 6.17719 135.666 5.09153 135.666 3.66771C135.666 2.16379 136.809 1.16711 138.139 1.16711C139.469 1.16711 140.603 2.16379 140.603 3.66771C140.603 5.18052 139.452 6.17719 138.139 6.17719ZM138.139 1.60316C137.05 1.60316 136.193 2.45746 136.193 3.66771C136.193 4.81567 136.943 5.74115 138.139 5.74115C139.22 5.74115 140.068 4.88686 140.068 3.66771C140.05 2.45746 139.22 1.60316 138.139 1.60316ZM137.175 5.10933V2.32397H138.228C138.907 2.32397 139.255 2.56424 139.255 3.12488C139.255 3.6321 138.943 3.8368 138.523 3.89019L139.309 5.10933H138.782L138.05 3.90799H137.612V5.10933H137.175ZM138.139 3.52533C138.487 3.52533 138.8 3.48972 138.8 3.08928C138.8 2.74222 138.469 2.70663 138.193 2.70663H137.648V3.52533H138.139Z" fill="#141414"/>
</g>
</g>
<defs>
<clipPath id="clip0_13_1145">
<rect width="140" height="24" fill="white" transform="translate(0.674683 0.5)"/>
</clipPath>
</defs>
</svg>
