<svg width="20" height="20" viewBox="0 0 20 20" fill="none" xmlns="http://www.w3.org/2000/svg">
<g clip-path="url(#clip0_4008_10532)">
<path d="M10.8333 1.66667C12.8224 1.66667 14.7301 2.45684 16.1366 3.86337C17.5431 5.26989 18.3333 7.17754 18.3333 9.16667M10.8333 5C11.9384 5 12.9982 5.43899 13.7796 6.22039C14.561 7.00179 15 8.0616 15 9.16667M11.5266 13.8067C11.6987 13.8857 11.8926 13.9038 12.0764 13.8579C12.2601 13.812 12.4227 13.7049 12.5375 13.5542L12.8333 13.1667C12.9885 12.9597 13.1898 12.7917 13.4213 12.676C13.6527 12.5602 13.9079 12.5 14.1666 12.5H16.6666C17.1087 12.5 17.5326 12.6756 17.8451 12.9882C18.1577 13.3007 18.3333 13.7246 18.3333 14.1667V16.6667C18.3333 17.1087 18.1577 17.5326 17.8451 17.8452C17.5326 18.1577 17.1087 18.3333 16.6666 18.3333C12.6884 18.3333 8.87307 16.753 6.06002 13.9399C3.24698 11.1269 1.66663 7.31158 1.66663 3.33333C1.66663 2.89131 1.84222 2.46738 2.15478 2.15482C2.46734 1.84226 2.89127 1.66667 3.33329 1.66667H5.83329C6.27532 1.66667 6.69924 1.84226 7.0118 2.15482C7.32436 2.46738 7.49996 2.89131 7.49996 3.33333V5.83333C7.49996 6.09208 7.43972 6.34726 7.32401 6.57869C7.20829 6.81012 7.04029 7.01142 6.83329 7.16667L6.44329 7.45917C6.29031 7.57598 6.18248 7.74215 6.13812 7.92946C6.09376 8.11676 6.11561 8.31365 6.19996 8.48667C7.33886 10.7999 9.21198 12.6707 11.5266 13.8067Z" stroke="#141414" stroke-width="1.5" stroke-linecap="round" stroke-linejoin="round"/>
</g>
<defs>
<clipPath id="clip0_4008_10532">
<rect width="20" height="20" fill="white"/>
</clipPath>
</defs>
</svg>
