<svg width="1290" height="229" viewBox="0 0 1290 229" fill="none" xmlns="http://www.w3.org/2000/svg">
<mask id="mask0_48_4459" style="mask-type:alpha" maskUnits="userSpaceOnUse" x="0" y="0" width="1290" height="229">
<path d="M48.3707 224.834H0V3.8816H85.3952C139.14 3.8816 169.596 29.8585 169.596 75.5419C169.596 104.206 157.354 124.51 132.87 137.05L171.686 224.834H118.837L85.6938 147.501H48.3707V224.834ZM48.3707 46.8778V105.102H85.0966C106.296 105.102 118.538 94.3528 118.538 75.5419C118.538 57.0297 106.893 46.8778 85.3952 46.8778H48.3707Z" fill="white"/>
<path d="M253.939 3.8816V224.834H205.569V3.8816H253.939Z" fill="white"/>
<path d="M283.023 48.6693V3.8816H456.8V48.6693H394.097V224.834H345.726V48.6693H283.023Z" fill="white"/>
<path d="M680.976 114.059C680.976 181.539 636.487 228.417 572.291 228.417C508.394 228.417 464.502 181.838 464.502 114.358C464.502 46.8778 508.693 0 572.59 0C636.785 0 680.976 46.5792 680.976 114.059ZM629.918 114.059C629.918 71.9589 608.42 46.5792 572.888 46.5792C537.058 46.5792 515.56 71.9589 515.56 114.059C515.56 156.458 537.058 181.838 572.888 181.838C608.42 181.838 629.918 155.861 629.918 114.059Z" fill="white"/>
<path d="M765.426 224.834L682.718 3.8816H734.374L776.175 115.552C781.251 129.287 785.432 143.022 790.209 162.131C795.882 140.932 800.062 128.69 804.84 115.552L846.044 3.8816H896.505L815.29 224.834H765.426Z" fill="white"/>
<path d="M1062.91 224.834H922.58V3.8816H1062.91V48.6693H970.951V91.9641H1052.46V134.363H970.951V180.047H1062.91V224.834Z" fill="white"/>
<path d="M1158.62 114.358L1087.56 3.8816H1145.19L1163.7 32.8443C1171.76 45.3849 1179.52 58.8212 1189.38 77.0348L1233.57 3.8816H1290L1220.13 114.358L1290 224.834H1232.67L1218.04 201.843C1206.99 184.227 1199.83 171.089 1189.08 151.382L1141.6 224.834H1084.87L1158.62 114.358Z" fill="white"/>
</mask>
<g mask="url(#mask0_48_4459)">
<g clip-path="url(#clip0_48_4459)">
<rect x="-8" y="-5" width="1307" height="31.75" fill="url(#paint0_linear_48_4459)"/>
<rect x="-8" y="13.75" width="1307" height="31.75" fill="url(#paint1_linear_48_4459)"/>
<rect x="-8" y="32.5" width="1307" height="31.75" fill="url(#paint2_linear_48_4459)"/>
<rect x="-8" y="51.25" width="1307" height="31.75" fill="url(#paint3_linear_48_4459)"/>
<rect x="-8" y="70" width="1307" height="31.75" fill="url(#paint4_linear_48_4459)"/>
<rect x="-8" y="88.75" width="1307" height="31.75" fill="url(#paint5_linear_48_4459)"/>
<rect x="-8" y="107.5" width="1307" height="31.75" fill="url(#paint6_linear_48_4459)"/>
<rect x="-8" y="126.25" width="1307" height="31.75" fill="url(#paint7_linear_48_4459)"/>
<rect x="-8" y="145" width="1307" height="31.75" fill="url(#paint8_linear_48_4459)"/>
<rect x="-8" y="163.75" width="1307" height="31.75" fill="url(#paint9_linear_48_4459)"/>
<rect x="-8" y="182.5" width="1307" height="31.75" fill="url(#paint10_linear_48_4459)"/>
<rect x="-8" y="201.25" width="1307" height="31.75" fill="url(#paint11_linear_48_4459)"/>
</g>
</g>
<defs>
<linearGradient id="paint0_linear_48_4459" x1="645.5" y1="-5" x2="645.5" y2="26.75" gradientUnits="userSpaceOnUse">
<stop stop-color="#F6F6F9" stop-opacity="0.8"/>
<stop offset="0.6" stop-color="#F6F6F9" stop-opacity="0.18"/>
<stop offset="0.6" stop-color="#F6F6F9" stop-opacity="0.163462"/>
<stop offset="1" stop-color="#F6F6F9" stop-opacity="0"/>
</linearGradient>
<linearGradient id="paint1_linear_48_4459" x1="645.5" y1="13.75" x2="645.5" y2="45.5" gradientUnits="userSpaceOnUse">
<stop stop-color="#F6F6F9" stop-opacity="0.8"/>
<stop offset="0.6" stop-color="#F6F6F9" stop-opacity="0.18"/>
<stop offset="0.6" stop-color="#F6F6F9" stop-opacity="0.163462"/>
<stop offset="1" stop-color="#F6F6F9" stop-opacity="0"/>
</linearGradient>
<linearGradient id="paint2_linear_48_4459" x1="645.5" y1="32.5" x2="645.5" y2="64.25" gradientUnits="userSpaceOnUse">
<stop stop-color="#F6F6F9" stop-opacity="0.8"/>
<stop offset="0.6" stop-color="#F6F6F9" stop-opacity="0.18"/>
<stop offset="0.6" stop-color="#F6F6F9" stop-opacity="0.163462"/>
<stop offset="1" stop-color="#F6F6F9" stop-opacity="0"/>
</linearGradient>
<linearGradient id="paint3_linear_48_4459" x1="645.5" y1="51.25" x2="645.5" y2="83" gradientUnits="userSpaceOnUse">
<stop stop-color="#F6F6F9" stop-opacity="0.8"/>
<stop offset="0.6" stop-color="#F6F6F9" stop-opacity="0.18"/>
<stop offset="0.6" stop-color="#F6F6F9" stop-opacity="0.163462"/>
<stop offset="1" stop-color="#F6F6F9" stop-opacity="0"/>
</linearGradient>
<linearGradient id="paint4_linear_48_4459" x1="645.5" y1="70" x2="645.5" y2="101.75" gradientUnits="userSpaceOnUse">
<stop stop-color="#F6F6F9" stop-opacity="0.8"/>
<stop offset="0.6" stop-color="#F6F6F9" stop-opacity="0.18"/>
<stop offset="0.6" stop-color="#F6F6F9" stop-opacity="0.163462"/>
<stop offset="1" stop-color="#F6F6F9" stop-opacity="0"/>
</linearGradient>
<linearGradient id="paint5_linear_48_4459" x1="645.5" y1="88.75" x2="645.5" y2="120.5" gradientUnits="userSpaceOnUse">
<stop stop-color="#F6F6F9" stop-opacity="0.8"/>
<stop offset="0.6" stop-color="#F6F6F9" stop-opacity="0.18"/>
<stop offset="0.6" stop-color="#F6F6F9" stop-opacity="0.163462"/>
<stop offset="1" stop-color="#F6F6F9" stop-opacity="0"/>
</linearGradient>
<linearGradient id="paint6_linear_48_4459" x1="645.5" y1="107.5" x2="645.5" y2="139.25" gradientUnits="userSpaceOnUse">
<stop stop-color="#F6F6F9" stop-opacity="0.8"/>
<stop offset="0.6" stop-color="#F6F6F9" stop-opacity="0.18"/>
<stop offset="0.6" stop-color="#F6F6F9" stop-opacity="0.163462"/>
<stop offset="1" stop-color="#F6F6F9" stop-opacity="0"/>
</linearGradient>
<linearGradient id="paint7_linear_48_4459" x1="645.5" y1="126.25" x2="645.5" y2="158" gradientUnits="userSpaceOnUse">
<stop stop-color="#F6F6F9" stop-opacity="0.8"/>
<stop offset="0.6" stop-color="#F6F6F9" stop-opacity="0.18"/>
<stop offset="0.6" stop-color="#F6F6F9" stop-opacity="0.163462"/>
<stop offset="1" stop-color="#F6F6F9" stop-opacity="0"/>
</linearGradient>
<linearGradient id="paint8_linear_48_4459" x1="645.5" y1="145" x2="645.5" y2="176.75" gradientUnits="userSpaceOnUse">
<stop stop-color="#F6F6F9" stop-opacity="0.8"/>
<stop offset="0.6" stop-color="#F6F6F9" stop-opacity="0.18"/>
<stop offset="0.6" stop-color="#F6F6F9" stop-opacity="0.163462"/>
<stop offset="1" stop-color="#F6F6F9" stop-opacity="0"/>
</linearGradient>
<linearGradient id="paint9_linear_48_4459" x1="645.5" y1="163.75" x2="645.5" y2="195.5" gradientUnits="userSpaceOnUse">
<stop stop-color="#F6F6F9" stop-opacity="0.8"/>
<stop offset="0.6" stop-color="#F6F6F9" stop-opacity="0.18"/>
<stop offset="0.6" stop-color="#F6F6F9" stop-opacity="0.163462"/>
<stop offset="1" stop-color="#F6F6F9" stop-opacity="0"/>
</linearGradient>
<linearGradient id="paint10_linear_48_4459" x1="645.5" y1="182.5" x2="645.5" y2="214.25" gradientUnits="userSpaceOnUse">
<stop stop-color="#F6F6F9" stop-opacity="0.8"/>
<stop offset="0.6" stop-color="#F6F6F9" stop-opacity="0.18"/>
<stop offset="0.6" stop-color="#F6F6F9" stop-opacity="0.163462"/>
<stop offset="1" stop-color="#F6F6F9" stop-opacity="0"/>
</linearGradient>
<linearGradient id="paint11_linear_48_4459" x1="645.5" y1="201.25" x2="645.5" y2="233" gradientUnits="userSpaceOnUse">
<stop stop-color="#F6F6F9" stop-opacity="0.8"/>
<stop offset="0.6" stop-color="#F6F6F9" stop-opacity="0.18"/>
<stop offset="0.6" stop-color="#F6F6F9" stop-opacity="0.163462"/>
<stop offset="1" stop-color="#F6F6F9" stop-opacity="0"/>
</linearGradient>
<clipPath id="clip0_48_4459">
<rect width="1307" height="238" fill="white" transform="translate(-8 -5)"/>
</clipPath>
</defs>
</svg>
