<svg width="17" height="16" viewBox="0 0 17 16" fill="none" xmlns="http://www.w3.org/2000/svg">
<path d="M15.5001 7.99991C15.5001 8.07094 15.4799 8.14052 15.4419 8.20053C15.4039 8.26055 15.3496 8.30854 15.2854 8.33891L1.7854 14.7139C1.71797 14.7466 1.64227 14.7582 1.56813 14.7473C1.49399 14.7364 1.42485 14.7035 1.36969 14.6528C1.31452 14.6021 1.27589 14.5359 1.25881 14.463C1.24172 14.39 1.24698 14.3136 1.2739 14.2437L3.4054 8.52341C3.53115 8.18573 3.53115 7.81408 3.4054 7.47641L1.27315 1.75616C1.24609 1.68614 1.24077 1.60959 1.25786 1.5365C1.27495 1.46341 1.31367 1.39717 1.36896 1.3464C1.42426 1.29564 1.49357 1.26272 1.56785 1.25193C1.64213 1.24114 1.71794 1.25298 1.7854 1.28591L15.2854 7.66091C15.3496 7.69128 15.4039 7.73926 15.4419 7.79928C15.4799 7.85929 15.5001 7.92887 15.5001 7.99991ZM15.5001 7.99991L3.4999 7.99991" stroke="#F6F6F9" stroke-width="1.5" stroke-linecap="round" stroke-linejoin="round"/>
</svg>
