<svg width="14" height="14" viewBox="0 0 14 14" fill="none" xmlns="http://www.w3.org/2000/svg">
<g clip-path="url(#clip0_2004_139)">
<path d="M12.7172 5.83321C12.9836 7.14063 12.7937 8.49987 12.1793 9.68425C11.5648 10.8686 10.5629 11.8066 9.34057 12.3416C8.11827 12.8767 6.74947 12.9766 5.46244 12.6246C4.17542 12.2726 3.04796 11.49 2.2681 10.4074C1.48823 9.32472 1.10309 8.00743 1.17691 6.67518C1.25072 5.34293 1.77903 4.07626 2.67373 3.08639C3.56843 2.09652 4.77544 1.44329 6.09347 1.23564C7.41151 1.02798 8.76089 1.27846 9.9166 1.94529M5.24994 6.41654L6.99994 8.16654L12.8333 2.33321" stroke="#FF7A52" stroke-opacity="0.98" stroke-width="1.2" stroke-linecap="round" stroke-linejoin="round"/>
</g>
<defs>
<clipPath id="clip0_2004_139">
<rect width="14" height="14" fill="white"/>
</clipPath>
</defs>
</svg>
