<svg width="127" height="28" viewBox="0 0 127 28" fill="none" xmlns="http://www.w3.org/2000/svg">
<path opacity="0.2" d="M1 13.7163L7 17V23.855L1.52 20.855C1.36293 20.7691 1.23181 20.6425 1.14035 20.4886C1.04888 20.3347 1.00041 20.159 1 19.98V13.7163ZM19 17V23.855L24.48 20.855C24.6371 20.7691 24.7682 20.6425 24.8597 20.4886C24.9511 20.3347 24.9996 20.159 25 19.98V13.7175L19 17ZM12.52 1.125L7.395 3.9325L13 7L18.6075 3.93L13.48 1.125C13.3328 1.04447 13.1678 1.00227 13 1.00227C12.8322 1.00227 12.6672 1.04447 12.52 1.125Z" fill="#1B1A27"/>
<path d="M24.96 6.26875L13.96 0.25C13.6659 0.0882787 13.3357 0.00348282 13 0.00348282C12.6643 0.00348282 12.3341 0.0882787 12.04 0.25L1.04 6.2725C0.725861 6.44438 0.463629 6.69745 0.28069 7.00528C0.0977502 7.31311 0.000812822 7.66441 0 8.0225V19.9775C0.000812822 20.3356 0.0977502 20.6869 0.28069 20.9947C0.463629 21.3025 0.725861 21.5556 1.04 21.7275L12.04 27.7488C12.3339 27.9111 12.6642 27.9963 13 27.9963C13.3358 27.9963 13.6661 27.9111 13.96 27.7488L24.96 21.7275C25.2741 21.5556 25.5364 21.3025 25.7193 20.9947C25.9023 20.6869 25.9992 20.3356 26 19.9775V8.0225C25.9999 7.66378 25.9032 7.31169 25.7203 7.00314C25.5373 6.69459 25.2747 6.44094 24.96 6.26875ZM18 17V23.2612L14 25.4513V14.5925L24 9.1175V13.1175L18.52 16.1175C18.3618 16.2041 18.23 16.3318 18.1384 16.4871C18.0469 16.6425 17.9991 16.8197 18 17ZM7.48 16.125L2 13.125V9.125L12 14.6V25.4587L8 23.2612V17C7.99959 16.821 7.95113 16.6453 7.85966 16.4914C7.76819 16.3375 7.63707 16.2109 7.48 16.125ZM7.3925 5.07375L12.5175 7.88C12.6647 7.96053 12.8297 8.00273 12.9975 8.00273C13.1653 8.00273 13.3303 7.96053 13.4775 7.88L18.6025 5.07375L22.9125 7.4325L13 12.86L3.0825 7.43L7.3925 5.07375ZM13 2L16.525 3.93L13 5.86125L9.475 3.93125L13 2ZM2 15.4025L6 17.5925V22.1663L2 19.9775V15.4025ZM20 22.1663V17.5925L24 15.4025V19.9775L20 22.1663Z" fill="#1B1A27"/>
<path d="M40.852 25H37.268V4.532H45.08C49.728 4.532 52.444 6.884 52.444 10.916C52.444 13.66 51.156 15.62 48.748 16.6L52.64 25H48.72L45.248 17.356H40.852V25ZM40.852 7.724V14.192H45.08C47.348 14.192 48.692 12.988 48.692 10.916C48.692 8.872 47.348 7.724 45.08 7.724H40.852Z" fill="#1B1A27"/>
<path d="M56.6698 8.396C55.4938 8.396 54.5698 7.472 54.5698 6.324C54.5698 5.176 55.4938 4.28 56.6698 4.28C57.7898 4.28 58.7138 5.176 58.7138 6.324C58.7138 7.472 57.7898 8.396 56.6698 8.396ZM54.9618 25V11.168H58.3778V25H54.9618Z" fill="#1B1A27"/>
<path d="M66.0511 25H62.6351V14.024H59.9751V11.168H62.6351V6.856H66.0511V11.168H68.7391V14.024H66.0511V25Z" fill="#1B1A27"/>
<path d="M69.354 18.056C69.354 13.744 72.462 10.776 76.746 10.776C81.03 10.776 84.138 13.744 84.138 18.056C84.138 22.368 81.03 25.336 76.746 25.336C72.462 25.336 69.354 22.368 69.354 18.056ZM72.77 18.056C72.77 20.576 74.394 22.284 76.746 22.284C79.098 22.284 80.722 20.576 80.722 18.056C80.722 15.536 79.098 13.828 76.746 13.828C74.394 13.828 72.77 15.536 72.77 18.056Z" fill="#1B1A27"/>
<path d="M89.5221 25L84.0341 11.168H87.6741L90.0821 17.524C90.6701 19.176 91.1461 20.604 91.3141 21.36C91.5101 20.492 92.0141 19.036 92.6021 17.524L95.1221 11.168H98.6501L92.8821 25H89.5221Z" fill="#1B1A27"/>
<path d="M105.558 25.364C101.442 25.364 98.5583 22.368 98.5583 18.084C98.5583 13.744 101.386 10.748 105.446 10.748C109.59 10.748 112.222 13.52 112.222 17.832V18.868L101.806 18.896C102.058 21.332 103.346 22.564 105.614 22.564C107.49 22.564 108.722 21.836 109.114 20.52H112.278C111.69 23.544 109.17 25.364 105.558 25.364ZM105.474 13.548C103.458 13.548 102.226 14.64 101.89 16.712H108.834C108.834 14.808 107.518 13.548 105.474 13.548Z" fill="#1B1A27"/>
<path d="M116.175 25H112.283L117.043 18.224L112.283 11.168H116.259L119.311 15.872L122.251 11.168H126.087L121.383 18.168L125.947 25H122.027L119.087 20.436L116.175 25Z" fill="#1B1A27"/>
</svg>
