<svg width="17" height="17" viewBox="0 0 17 17" fill="none" xmlns="http://www.w3.org/2000/svg">
<path opacity="0.2" d="M2.5 8.35809L5.5 9.99997V13.4275L2.76 11.9275C2.68147 11.8845 2.61591 11.8212 2.57017 11.7443C2.52444 11.6673 2.5002 11.5795 2.5 11.49V8.35809ZM11.5 9.99997V13.4275L14.24 11.9275C14.3185 11.8845 14.3841 11.8212 14.4298 11.7443C14.4756 11.6673 14.4998 11.5795 14.5 11.49V8.35872L11.5 9.99997ZM8.26 2.06246L5.6975 3.46621L8.5 4.99997L11.3038 3.46496L8.74 2.06246C8.66641 2.0222 8.58388 2.0011 8.5 2.0011C8.41612 2.0011 8.33359 2.0222 8.26 2.06246Z" fill="#141414"/>
<path d="M14.48 4.63434L8.98 1.62497C8.83294 1.54411 8.66783 1.50171 8.5 1.50171C8.33217 1.50171 8.16706 1.54411 8.02 1.62497L2.52 4.63622C2.36293 4.72216 2.23181 4.84869 2.14034 5.00261C2.04888 5.15652 2.00041 5.33217 2 5.51122V11.4887C2.00041 11.6678 2.04888 11.8434 2.14034 11.9973C2.23181 12.1512 2.36293 12.2778 2.52 12.3637L8.02 15.3743C8.16695 15.4555 8.33211 15.4981 8.5 15.4981C8.66789 15.4981 8.83305 15.4555 8.98 15.3743L14.48 12.3637C14.6371 12.2778 14.7682 12.1512 14.8597 11.9973C14.9511 11.8434 14.9996 11.6678 15 11.4887V5.51122C14.9999 5.33186 14.9516 5.15581 14.8601 5.00154C14.7686 4.84726 14.6373 4.72044 14.48 4.63434ZM11 9.99997V13.1306L9 14.2256V8.79622L14 6.05872V8.05872L11.26 9.55872C11.1809 9.60199 11.115 9.66585 11.0692 9.74352C11.0234 9.8212 10.9995 9.90981 11 9.99997ZM5.74 9.56247L3 8.06247V6.06247L8 8.79997V14.2293L6 13.1306V9.99997C5.9998 9.91044 5.97556 9.82262 5.92983 9.74566C5.88409 9.6687 5.81853 9.60544 5.74 9.56247ZM5.69625 4.03684L8.25875 5.43997C8.33234 5.48023 8.41487 5.50133 8.49875 5.50133C8.58263 5.50133 8.66516 5.48023 8.73875 5.43997L11.3013 4.03684L13.4563 5.21622L8.5 7.92997L3.54125 5.21497L5.69625 4.03684ZM8.5 2.49997L10.2625 3.46497L8.5 4.43059L6.7375 3.46559L8.5 2.49997ZM3 9.20122L5 10.2962V12.5831L3 11.4887V9.20122ZM12 12.5831V10.2962L14 9.20122V11.4887L12 12.5831Z" fill="#141414"/>
</svg>
