<svg width="16" height="18" viewBox="0 0 16 18" fill="none" xmlns="http://www.w3.org/2000/svg">
<path d="M8.09094 0L9.35994 6.80203L15.8852 4.5L10.6289 9L15.8852 13.5L9.35994 11.198L8.09094 18L6.82194 11.198L0.296714 13.5L5.55294 9L0.296714 4.5L6.82194 6.80203L8.09094 0Z" fill="white"/>
<path d="M8.86829 6.89355L8.97571 7.46777L9.52649 7.27344L13.5226 5.86328L10.3038 8.62012L9.86047 9L10.3038 9.37988L13.5226 12.1357L9.52649 10.7266L8.97571 10.5322L8.86829 11.1064L8.09094 15.2744L7.3136 11.1064L7.20618 10.5322L6.6554 10.7266L2.65833 12.1357L5.87805 9.37988L6.32141 9L5.87805 8.62012L2.65833 5.86328L6.6554 7.27344L7.20618 7.46777L7.3136 6.89355L8.09094 2.72461L8.86829 6.89355Z" stroke="white" stroke-opacity="0.1"/>
</svg>
