<svg width="18" height="19" viewBox="0 0 18 19" fill="none" xmlns="http://www.w3.org/2000/svg">
<g clip-path="url(#clip0_99_8115)">
<path d="M2.88789 6.96495C2.77842 6.47185 2.79523 5.95908 2.93676 5.47421C3.07828 4.98933 3.33995 4.54803 3.69749 4.19124C4.05503 3.83445 4.49687 3.57371 4.98204 3.4332C5.46722 3.29268 5.98001 3.27695 6.47289 3.38745C6.74417 2.96318 7.11789 2.61402 7.5596 2.37217C8.00131 2.13031 8.4968 2.00354 9.00039 2.00354C9.50398 2.00354 9.99946 2.13031 10.4412 2.37217C10.8829 2.61402 11.2566 2.96318 11.5279 3.38745C12.0215 3.27647 12.5352 3.29213 13.0211 3.43299C13.5071 3.57384 13.9495 3.83531 14.3073 4.19307C14.665 4.55083 14.9265 4.99326 15.0674 5.4792C15.2082 5.96515 15.2239 6.47883 15.1129 6.97245C15.5372 7.24373 15.8863 7.61745 16.1282 8.05916C16.37 8.50087 16.4968 8.99636 16.4968 9.49995C16.4968 10.0035 16.37 10.499 16.1282 10.9407C15.8863 11.3824 15.5372 11.7562 15.1129 12.0275C15.2234 12.5203 15.2077 13.0331 15.0671 13.5183C14.9266 14.0035 14.6659 14.4453 14.3091 14.8028C13.9523 15.1604 13.511 15.4221 13.0261 15.5636C12.5413 15.7051 12.0285 15.7219 11.5354 15.6125C11.2645 16.0384 10.8904 16.389 10.448 16.6319C10.0055 16.8749 9.50891 17.0022 9.00414 17.0022C8.49937 17.0022 8.00276 16.8749 7.56029 16.6319C7.11783 16.389 6.74382 16.0384 6.47289 15.6125C5.98001 15.723 5.46722 15.7072 4.98204 15.5667C4.49687 15.4262 4.05503 15.1655 3.69749 14.8087C3.33995 14.4519 3.07828 14.0106 2.93676 13.5257C2.79523 13.0408 2.77842 12.5281 2.88789 12.035C2.46036 11.7644 2.1082 11.3901 1.86418 10.9469C1.62015 10.5036 1.49219 10.0059 1.49219 9.49995C1.49219 8.994 1.62015 8.49626 1.86418 8.05304C2.1082 7.60982 2.46036 7.23552 2.88789 6.96495Z" stroke="#494852" stroke-width="2" stroke-linecap="round" stroke-linejoin="round"/>
<path d="M6.75 9.5L8.25 11L11.25 8" stroke="#494852" stroke-width="2" stroke-linecap="round" stroke-linejoin="round"/>
</g>
<defs>
<clipPath id="clip0_99_8115">
<rect width="18" height="18" fill="white" transform="translate(0 0.5)"/>
</clipPath>
</defs>
</svg>
