<svg width="111" height="86" viewBox="0 0 111 86" fill="none" xmlns="http://www.w3.org/2000/svg">
<path d="M55.5 1.64062L37.1406 10.981C39.9056 11.4074 42.9561 11.7365 46.2056 11.9563L54.5935 3.20117L47.5366 12.0366C48.5327 12.0936 49.5499 12.1377 50.5774 12.1743C51.3467 10.2042 53.2575 8.80077 55.5 8.80077C57.7424 8.80077 59.6533 10.2042 60.4226 12.1743C61.4511 12.1376 62.4664 12.0937 63.4634 12.0366L56.4065 3.20117L64.7944 11.9563C68.0434 11.7364 71.0925 11.4075 73.8594 10.981L55.5 1.64062ZM55.5 10.063C53.2766 10.063 51.4724 11.8672 51.4724 14.0906C51.4724 16.314 53.2766 18.1182 55.5 18.1182C57.7234 18.1182 59.5276 16.314 59.5276 14.0906C59.5276 11.8672 57.7234 10.063 55.5 10.063ZM37.1636 11.417L40.1699 15.8347C40.2903 15.7681 40.4161 15.7101 40.5486 15.6741C40.6761 15.6391 40.8066 15.6098 40.9387 15.6052C42.9209 15.5366 45.3643 18.7994 46.5728 23.2358C46.836 24.2023 47.015 25.1461 47.1235 26.0471L55.5 38.3594L63.888 26.0356C63.9967 25.1382 64.1766 24.1981 64.4387 23.2358C65.6472 18.7994 68.1021 15.5366 70.0843 15.6052C70.2164 15.6097 70.3469 15.6393 70.4744 15.6741C70.6019 15.709 70.7139 15.7602 70.8301 15.8232L73.8364 11.417C71.2003 12.0504 68.1676 12.5444 64.8748 12.8743L56.4065 34.699L63.429 13.012C62.5403 13.0859 61.6296 13.1466 60.7095 13.1955C60.7593 13.4871 60.7898 13.7848 60.7898 14.0906C60.7898 17.0115 58.4209 19.3804 55.5 19.3804C52.5791 19.3804 50.2102 17.0115 50.2102 14.0906C50.2102 13.7848 50.2407 13.4871 50.2905 13.1955C49.3692 13.1466 48.4607 13.0859 47.5711 13.012L54.5935 34.699L46.1253 12.8743C42.8319 12.5446 39.798 12.0503 37.1636 11.417ZM41.2715 16.9707C41.2029 16.9784 41.1441 16.9912 41.0764 17.0052C40.8635 17.0492 40.6585 17.1396 40.4683 17.2691C41.9946 18.6423 43.0627 23.4215 42.9812 29.1454C42.9394 32.083 42.6069 34.792 42.0747 36.9366C42.809 37.7616 43.576 38.1787 44.3123 38.0267C46.4775 37.5796 47.5158 32.5187 46.6187 26.7127C45.7776 21.2696 43.5381 17.1009 41.478 16.9708C41.4094 16.9663 41.3401 16.963 41.2715 16.9707ZM69.5335 16.9707C67.4734 17.1008 65.2339 21.2695 64.3928 26.7126C63.4957 32.5186 64.5341 37.5795 66.6992 38.0266C67.4355 38.1786 68.2025 37.7615 68.9368 36.9365C68.4047 34.7919 68.0721 32.0829 68.0303 29.1453C67.9488 23.4215 69.017 18.6422 70.5432 17.269C70.353 17.1395 70.148 17.0491 69.9351 17.0051C69.8674 16.9912 69.8086 16.9783 69.74 16.9706C69.6715 16.9629 69.6021 16.9661 69.5335 16.9706L69.5335 16.9707Z" fill="white"/>
<path d="M1.68 75V59.016C2.032 59 2.432 58.992 2.88 58.992C3.344 58.992 3.824 58.992 4.32 58.992C4.816 58.992 5.296 58.992 5.76 58.992C6.224 58.992 6.632 59 6.984 59.016C8.616 59.048 9.904 59.488 10.848 60.336C11.808 61.168 12.288 62.344 12.288 63.864C12.288 64.952 12.04 65.904 11.544 66.72C11.064 67.536 10.392 68.168 9.528 68.616C8.68 69.064 7.696 69.288 6.576 69.288H5.016V75H1.68ZM5.016 66.456H6.432C7.216 66.456 7.824 66.232 8.256 65.784C8.704 65.336 8.928 64.728 8.928 63.96C8.928 62.552 8.152 61.848 6.6 61.848H5.016V66.456ZM15.8794 60.6V57.48H19.7434V60.6H15.8794ZM14.0074 75V72.096H16.3114V65.544H14.0074V62.64H19.6954V72.096H21.7594V75H14.0074ZM31.1299 75.192L28.4659 71.208L25.9939 75H22.1539L26.7139 68.616L22.5859 62.64L26.3299 62.448L28.6579 65.952L30.8179 62.64H34.5139L30.4339 68.448L34.8739 75L31.1299 75.192ZM41.6004 75.36C39.6164 75.36 38.0484 74.784 36.8964 73.632C35.7444 72.48 35.1684 70.88 35.1684 68.832C35.1684 67.488 35.4164 66.328 35.9124 65.352C36.4084 64.376 37.1044 63.624 38.0004 63.096C38.9124 62.568 39.9764 62.304 41.1924 62.304C42.9844 62.304 44.3604 62.88 45.3204 64.032C46.2804 65.184 46.7604 66.848 46.7604 69.024C46.7604 69.168 46.7604 69.312 46.7604 69.456C46.7604 69.584 46.7524 69.712 46.7364 69.84H38.5764C38.8964 71.568 40.0404 72.432 42.0084 72.432C42.6164 72.432 43.2324 72.36 43.8564 72.216C44.4964 72.056 45.0564 71.848 45.5364 71.592L46.0884 74.304C44.7604 75.008 43.2644 75.36 41.6004 75.36ZM38.5524 67.296H43.5204C43.4724 66.608 43.2324 66.064 42.8004 65.664C42.3684 65.248 41.7924 65.04 41.0724 65.04C40.3844 65.04 39.8164 65.24 39.3684 65.64C38.9364 66.04 38.6644 66.592 38.5524 67.296ZM48.0255 75V72.096H50.2095V60.36H48.1455V57.48H53.5935V72.096H55.7775V75H48.0255ZM57.6394 75V59.016H67.4074V62.04H61.1194V65.688H66.3274V68.688H61.1194V75H57.6394ZM68.8858 75V72.096H71.0698V60.36H69.0058V57.48H74.4538V72.096H76.6378V75H68.8858ZM83.8104 75.36C82.5464 75.36 81.4424 75.088 80.4984 74.544C79.5544 74 78.8184 73.24 78.2904 72.264C77.7624 71.288 77.4984 70.144 77.4984 68.832C77.4984 67.52 77.7624 66.376 78.2904 65.4C78.8184 64.424 79.5544 63.664 80.4984 63.12C81.4424 62.576 82.5384 62.304 83.7864 62.304C85.0504 62.304 86.1464 62.576 87.0744 63.12C88.0184 63.648 88.7544 64.4 89.2824 65.376C89.8104 66.336 90.0744 67.464 90.0744 68.76C90.0744 70.072 89.8104 71.224 89.2824 72.216C88.7704 73.208 88.0424 73.984 87.0984 74.544C86.1544 75.088 85.0584 75.36 83.8104 75.36ZM83.7864 72.432C84.6504 72.432 85.3384 72.104 85.8504 71.448C86.3784 70.776 86.6424 69.896 86.6424 68.808C86.6424 67.72 86.3784 66.856 85.8504 66.216C85.3384 65.56 84.6504 65.232 83.7864 65.232C82.9224 65.232 82.2264 65.56 81.6984 66.216C81.1864 66.856 80.9304 67.72 80.9304 68.808C80.9304 69.896 81.1864 70.776 81.6984 71.448C82.2264 72.104 82.9224 72.432 83.7864 72.432ZM94.1936 75L90.5936 62.64H94.0496L96.2576 70.824L98.6336 62.712L102.45 62.4L105.018 71.064L107.274 62.64H110.49L106.722 75H103.026L100.482 66.024L97.8176 75H94.1936Z" fill="white"/>
</svg>
