<svg width="120" height="86" viewBox="0 0 120 86" fill="none" xmlns="http://www.w3.org/2000/svg">
<path d="M60 1.64062L54.6184 7.02221H47.0222V14.6184L41.6406 20L47.0222 25.3816V32.9892H54.6299L60 38.3594L65.3701 32.9892H72.9778V25.3816L78.3594 20L72.9778 14.6184V7.02221H65.3816L60 1.64062ZM60 6.60913L63.9243 10.5335H69.4665V16.0757L73.3794 20L69.4665 23.9128H66.8848C66.8893 23.8182 66.8963 23.7225 66.8963 23.626C66.8963 23.1815 66.8504 22.7504 66.77 22.3293L69.5125 18.7263L65.5996 19.6213C65.3366 19.2541 65.0445 18.9086 64.7161 18.6001L65.4963 14.0791L62.4326 17.1773C62.0751 17.0424 61.7026 16.9303 61.3196 16.856L60 12.3809L58.6804 16.856C58.2974 16.9303 57.9249 17.0424 57.5674 17.1773L54.5037 14.0791L55.2839 18.6001C54.9555 18.9086 54.6635 19.2541 54.4004 19.6213L50.4876 18.7263L53.23 22.3293C53.1497 22.7504 53.1038 23.1815 53.1038 23.626C53.1038 23.7226 53.1108 23.8181 53.1152 23.9128H50.5335L46.6091 20L50.5335 16.0757V10.5335H56.0757L60 6.60913ZM60 18.8296C60.1672 18.8296 60.3302 18.8451 60.4934 18.864C63.3206 19.1122 64.8973 21.4802 65.1636 23.9243H54.8364C55.1027 21.4802 56.6794 19.1122 59.5066 18.864C59.6673 18.8499 59.8312 18.8296 60 18.8296ZM50.5334 25.4734H69.4665V29.4551H63.9128L60 33.3909L56.0872 29.4551H50.5334V25.4734Z" fill="white"/>
<path d="M12.496 59.016C14.896 59.016 16.704 59.48 17.92 60.408C19.136 61.32 19.744 62.664 19.744 64.44C19.744 65.32 19.584 66.336 19.264 67.488C18.736 69.344 18.024 70.816 17.128 71.904C16.232 72.992 15.048 73.784 13.576 74.28C12.12 74.776 10.248 75.016 7.96 75L1.432 74.976C1.096 74.976 0.84 74.92 0.664 74.808C0.472 74.696 0.376 74.544 0.376 74.352C0.376 74.256 0.4 74.152 0.448 74.04C0.496 73.896 0.568 73.792 0.664 73.728C0.744 73.664 0.872 73.576 1.048 73.464C1.304 73.32 1.504 73.16 1.648 72.984C1.808 72.808 1.944 72.528 2.056 72.144L4.984 61.824C5.048 61.616 5.08 61.416 5.08 61.224C5.08 61.048 5.048 60.904 4.984 60.792C4.936 60.664 4.864 60.52 4.768 60.36C4.624 60.152 4.552 59.984 4.552 59.856C4.552 59.808 4.568 59.72 4.6 59.592C4.664 59.384 4.8 59.24 5.008 59.16C5.232 59.064 5.568 59.016 6.016 59.016H12.496ZM13.12 66.96C13.536 65.456 13.744 64.272 13.744 63.408C13.744 62.56 13.568 61.976 13.216 61.656C12.864 61.336 12.36 61.176 11.704 61.176H11.176L7.936 72.84H8.512C9.248 72.84 9.864 72.688 10.36 72.384C10.872 72.064 11.344 71.488 11.776 70.656C12.208 69.808 12.656 68.576 13.12 66.96ZM27.1951 62.184C29.2271 62.184 30.6991 62.512 31.6111 63.168C32.5231 63.808 32.9791 64.632 32.9791 65.64C32.9791 65.944 32.9471 66.224 32.8831 66.48C32.6431 67.536 31.9711 68.296 30.8671 68.76C29.7791 69.208 28.4911 69.432 27.0031 69.432C26.2511 69.432 25.5471 69.384 24.8911 69.288C24.8751 70.12 25.0991 70.704 25.5631 71.04C26.0271 71.376 26.6751 71.544 27.5071 71.544C27.8911 71.544 28.2591 71.504 28.6111 71.424C28.9631 71.328 29.4111 71.192 29.9551 71.016C30.4031 70.856 30.7071 70.776 30.8671 70.776C31.0431 70.776 31.1311 70.88 31.1311 71.088C31.1471 71.648 30.9391 72.24 30.5071 72.864C30.0751 73.472 29.4351 73.992 28.5871 74.424C27.7391 74.856 26.7151 75.072 25.5151 75.072C23.7391 75.072 22.2831 74.624 21.1471 73.728C20.0111 72.832 19.4431 71.528 19.4431 69.816C19.4431 69.336 19.5071 68.776 19.6351 68.136C20.0351 66.168 20.9071 64.688 22.2511 63.696C23.6111 62.688 25.2591 62.184 27.1951 62.184ZM25.0591 67.848C25.1231 67.864 25.2111 67.872 25.3231 67.872C25.9951 67.872 26.5071 67.56 26.8591 66.936C27.2111 66.312 27.3791 65.616 27.3631 64.848C27.3471 64.4 27.2191 64.176 26.9791 64.176C26.8031 64.176 26.5951 64.32 26.3551 64.608C26.1151 64.88 25.8751 65.296 25.6351 65.856C25.4111 66.416 25.2191 67.08 25.0591 67.848ZM43.7208 62.304C44.5688 62.304 45.2728 62.608 45.8328 63.216C46.3928 63.824 46.6728 64.656 46.6728 65.712C46.6728 67.136 46.1768 68.592 45.1848 70.08C44.1928 71.568 42.9368 72.8 41.4168 73.776C39.8968 74.736 38.4168 75.216 36.9768 75.216C35.6008 75.216 34.4808 74.936 33.6168 74.376C32.7688 73.816 32.3448 73.016 32.3448 71.976C32.3448 71.592 32.4168 71.16 32.5608 70.68L34.0728 65.52C34.1048 65.392 34.1208 65.296 34.1208 65.232C34.1208 65.072 34.0808 64.936 34.0008 64.824C33.9208 64.712 33.8088 64.592 33.6648 64.464C33.4248 64.256 33.3048 64.072 33.3048 63.912C33.2888 63.688 33.4248 63.448 33.7128 63.192C34.0008 62.936 34.4008 62.728 34.9128 62.568C35.4408 62.392 36.0328 62.304 36.6888 62.304C37.7608 62.304 38.5928 62.568 39.1848 63.096C39.7928 63.608 40.0968 64.28 40.0968 65.112C40.0968 65.48 40.0328 65.88 39.9048 66.312L38.3448 71.448C38.2968 71.592 38.2728 71.712 38.2728 71.808C38.2728 72.016 38.3448 72.176 38.4888 72.288C38.6328 72.4 38.8328 72.456 39.0888 72.456C39.4408 72.456 39.8488 72.304 40.3128 72C40.7928 71.68 41.2648 71.232 41.7288 70.656C42.1928 70.064 42.5688 69.368 42.8568 68.568C42.2168 68.008 41.7608 67.456 41.4888 66.912C41.2328 66.368 41.1048 65.808 41.1048 65.232C41.1048 64.416 41.3288 63.728 41.7768 63.168C42.2248 62.592 42.8728 62.304 43.7208 62.304ZM54.8719 58.872C55.7679 58.872 56.5919 58.984 57.3439 59.208C58.1119 59.416 58.8879 59.752 59.6719 60.216L60.2239 59.76C60.6079 59.456 60.9199 59.248 61.1599 59.136C61.4159 59.024 61.7039 58.968 62.0239 58.968C62.4079 58.968 62.7119 59.056 62.9359 59.232C63.1599 59.392 63.2719 59.632 63.2719 59.952C63.2719 60.08 63.2479 60.216 63.1999 60.36L62.1919 63.672C62.0799 64.056 61.9359 64.328 61.7599 64.488C61.5999 64.648 61.3519 64.728 61.0159 64.728C60.6639 64.728 60.3519 64.624 60.0799 64.416C59.8239 64.192 59.4159 63.744 58.8559 63.072C58.2959 62.432 57.7839 61.984 57.3199 61.728C56.8719 61.456 56.4079 61.32 55.9279 61.32C55.5759 61.32 55.2799 61.44 55.0399 61.68C54.7999 61.904 54.6799 62.184 54.6799 62.52C54.6799 62.904 54.8719 63.264 55.2559 63.6C55.6399 63.92 56.2399 64.328 57.0559 64.824C57.8879 65.32 58.5759 65.768 59.1199 66.168C59.6639 66.568 60.1279 67.064 60.5119 67.656C60.8959 68.248 61.0879 68.928 61.0879 69.696C61.0879 70.192 61.0079 70.688 60.8479 71.184C60.4639 72.464 59.7199 73.44 58.6159 74.112C57.5119 74.768 56.2239 75.096 54.7519 75.096C53.6479 75.096 52.7199 74.968 51.9679 74.712C51.2159 74.456 50.4479 74.024 49.6639 73.416L48.7999 74.136C48.3999 74.472 48.0719 74.704 47.8159 74.832C47.5599 74.944 47.2719 75 46.9519 75C46.5839 75 46.2879 74.912 46.0639 74.736C45.8559 74.56 45.7519 74.32 45.7519 74.016C45.7519 73.856 45.7839 73.688 45.8479 73.512L47.0239 69.936C47.1519 69.52 47.3279 69.224 47.5519 69.048C47.7759 68.872 48.0639 68.784 48.4159 68.784C48.7839 68.784 49.1119 68.912 49.3999 69.168C49.7039 69.424 50.0959 69.888 50.5759 70.56C51.0879 71.296 51.5599 71.808 51.9919 72.096C52.4399 72.384 52.9679 72.528 53.5759 72.528C54.0079 72.528 54.3359 72.464 54.5599 72.336C54.7999 72.192 54.9679 71.968 55.0639 71.664C55.0959 71.584 55.1119 71.464 55.1119 71.304C55.1119 70.92 54.9279 70.568 54.5599 70.248C54.1919 69.928 53.6239 69.544 52.8559 69.096C52.0399 68.6 51.3759 68.16 50.8639 67.776C50.3519 67.376 49.9039 66.88 49.5199 66.288C49.1519 65.696 48.9679 65 48.9679 64.2C48.9679 63.64 49.0559 63.088 49.2319 62.544C49.5679 61.44 50.2559 60.552 51.2959 59.88C52.3359 59.208 53.5279 58.872 54.8719 58.872ZM74.5148 62.208C75.7468 62.208 76.7148 62.616 77.4188 63.432C78.1228 64.248 78.4748 65.36 78.4748 66.768C78.4748 67.52 78.3708 68.312 78.1628 69.144C77.6828 71.128 76.7868 72.64 75.4748 73.68C74.1628 74.704 72.6428 75.216 70.9148 75.216C69.8108 75.216 68.8508 74.984 68.0348 74.52L67.2668 77.088C67.2028 77.264 67.1708 77.432 67.1708 77.592C67.1708 77.768 67.2108 77.912 67.2908 78.024C67.3708 78.152 67.4748 78.272 67.6028 78.384C67.7308 78.512 67.8108 78.616 67.8428 78.696C67.8908 78.776 67.8988 78.872 67.8668 78.984C67.8028 79.192 67.6508 79.336 67.4108 79.416C67.1708 79.512 66.8028 79.56 66.3068 79.56H60.8108C60.3948 79.56 60.0988 79.488 59.9228 79.344C59.7308 79.216 59.6748 79.048 59.7548 78.84C59.7868 78.712 59.8428 78.608 59.9228 78.528C60.0028 78.448 60.1148 78.376 60.2588 78.312C60.4988 78.152 60.6908 77.984 60.8348 77.808C60.9788 77.648 61.1068 77.384 61.2188 77.016L64.7228 65.52C64.7708 65.376 64.7948 65.256 64.7948 65.16C64.7948 64.984 64.7548 64.848 64.6748 64.752C64.5948 64.64 64.4748 64.528 64.3148 64.416C64.1548 64.288 64.0428 64.176 63.9788 64.08C63.9148 63.984 63.9068 63.856 63.9548 63.696C64.0508 63.328 64.5548 63.008 65.4668 62.736C66.3788 62.448 67.3308 62.304 68.3228 62.304C69.0268 62.304 69.6028 62.48 70.0508 62.832C70.5148 63.184 70.7788 63.672 70.8428 64.296C71.9308 62.904 73.1548 62.208 74.5148 62.208ZM71.7308 69.336C72.1148 67.912 72.3068 66.928 72.3068 66.384C72.3068 66.048 72.2508 65.832 72.1388 65.736C72.0428 65.624 71.8988 65.568 71.7068 65.568C71.5628 65.568 71.3788 65.64 71.1548 65.784C70.9308 65.912 70.7068 66.136 70.4828 66.456L68.5868 72.744C68.7788 72.936 69.0108 73.032 69.2828 73.032C69.7148 73.032 70.1228 72.792 70.5068 72.312C70.9068 71.816 71.3148 70.824 71.7308 69.336ZM86.6446 62.304C88.4846 62.304 89.9566 62.648 91.0606 63.336C92.1646 64.008 92.7166 65.04 92.7166 66.432C92.7166 66.96 92.6206 67.56 92.4286 68.232L91.4446 71.544C91.4286 71.608 91.4206 71.688 91.4206 71.784C91.4206 72.04 91.5246 72.168 91.7326 72.168C91.9246 72.168 92.0846 72.088 92.2126 71.928C92.3566 71.752 92.4526 71.664 92.5006 71.664C92.5806 71.664 92.6446 71.72 92.6926 71.832C92.7566 71.944 92.7886 72.072 92.7886 72.216C92.8046 72.648 92.6366 73.088 92.2846 73.536C91.9486 73.984 91.4926 74.352 90.9166 74.64C90.3406 74.928 89.7086 75.072 89.0206 75.072C88.1886 75.072 87.4766 74.92 86.8846 74.616C86.2926 74.312 85.8846 73.864 85.6606 73.272C85.1806 73.848 84.6126 74.296 83.9566 74.616C83.3006 74.92 82.5966 75.072 81.8446 75.072C80.9966 75.072 80.2846 74.912 79.7086 74.592C79.1326 74.256 78.7006 73.832 78.4126 73.32C78.1406 72.792 78.0046 72.24 78.0046 71.664C78.0046 71.408 78.0286 71.16 78.0766 70.92C78.3326 69.816 78.8846 68.984 79.7326 68.424C80.5966 67.864 81.6206 67.584 82.8046 67.584C84.1326 67.584 85.4366 67.792 86.7166 68.208L87.3166 66.624C87.5246 65.952 87.6286 65.432 87.6286 65.064C87.6126 64.68 87.4846 64.392 87.2446 64.2C87.0046 64.008 86.6366 63.912 86.1406 63.912C86.2366 64.168 86.2846 64.432 86.2846 64.704C86.2846 65.296 86.0606 65.808 85.6126 66.24C85.1646 66.672 84.5246 66.888 83.6926 66.888C82.9086 66.888 82.2926 66.72 81.8446 66.384C81.4126 66.032 81.1966 65.6 81.1966 65.088C81.1966 64.288 81.6446 63.624 82.5406 63.096C83.4366 62.568 84.8046 62.304 86.6446 62.304ZM85.3006 69.576C84.8526 69.576 84.4846 69.752 84.1966 70.104C83.9246 70.44 83.7886 70.808 83.7886 71.208C83.7886 71.464 83.8446 71.672 83.9566 71.832C84.0846 71.992 84.2606 72.072 84.4846 72.072C84.6926 72.072 84.9166 71.992 85.1566 71.832C85.4126 71.656 85.5966 71.4 85.7086 71.064L86.2126 69.648C85.9406 69.6 85.6366 69.576 85.3006 69.576ZM101.285 62.184C102.261 62.184 103.117 62.328 103.853 62.616C104.589 62.888 105.157 63.272 105.557 63.768C105.973 64.248 106.181 64.784 106.181 65.376C106.181 66.016 105.957 66.544 105.509 66.96C105.077 67.376 104.485 67.584 103.733 67.584C102.965 67.584 102.365 67.392 101.933 67.008C101.501 66.608 101.285 66.072 101.285 65.4C101.285 65.08 101.333 64.744 101.429 64.392C100.757 64.568 100.157 64.92 99.6291 65.448C99.1171 65.96 98.7731 66.64 98.5971 67.488C98.5011 67.968 98.4531 68.4 98.4531 68.784C98.4531 69.648 98.6931 70.304 99.1731 70.752C99.6531 71.2 100.341 71.424 101.237 71.424C101.749 71.424 102.189 71.376 102.557 71.28C102.925 71.168 103.301 71.024 103.685 70.848C104.005 70.688 104.237 70.608 104.381 70.608C104.477 70.608 104.541 70.632 104.573 70.68C104.605 70.712 104.621 70.792 104.621 70.92C104.637 71.512 104.389 72.136 103.877 72.792C103.381 73.432 102.685 73.976 101.789 74.424C100.909 74.856 99.9171 75.072 98.8131 75.072C97.6611 75.072 96.6371 74.864 95.7411 74.448C94.8611 74.016 94.1731 73.408 93.6771 72.624C93.1971 71.824 92.9571 70.896 92.9571 69.84C92.9571 69.344 93.0211 68.792 93.1491 68.184C93.5811 66.2 94.5331 64.704 96.0051 63.696C97.4931 62.688 99.2531 62.184 101.285 62.184ZM113.237 62.184C115.269 62.184 116.741 62.512 117.653 63.168C118.565 63.808 119.021 64.632 119.021 65.64C119.021 65.944 118.989 66.224 118.925 66.48C118.685 67.536 118.013 68.296 116.909 68.76C115.821 69.208 114.533 69.432 113.045 69.432C112.293 69.432 111.589 69.384 110.933 69.288C110.917 70.12 111.141 70.704 111.605 71.04C112.069 71.376 112.717 71.544 113.549 71.544C113.933 71.544 114.301 71.504 114.653 71.424C115.005 71.328 115.453 71.192 115.997 71.016C116.445 70.856 116.749 70.776 116.909 70.776C117.085 70.776 117.173 70.88 117.173 71.088C117.189 71.648 116.981 72.24 116.549 72.864C116.117 73.472 115.477 73.992 114.629 74.424C113.781 74.856 112.757 75.072 111.557 75.072C109.781 75.072 108.325 74.624 107.189 73.728C106.053 72.832 105.485 71.528 105.485 69.816C105.485 69.336 105.549 68.776 105.677 68.136C106.077 66.168 106.949 64.688 108.293 63.696C109.653 62.688 111.301 62.184 113.237 62.184ZM111.101 67.848C111.165 67.864 111.253 67.872 111.365 67.872C112.037 67.872 112.549 67.56 112.901 66.936C113.253 66.312 113.421 65.616 113.405 64.848C113.389 64.4 113.261 64.176 113.021 64.176C112.845 64.176 112.637 64.32 112.397 64.608C112.157 64.88 111.917 65.296 111.677 65.856C111.453 66.416 111.261 67.08 111.101 67.848Z" fill="white"/>
</svg>
