<svg width="81" height="86" viewBox="0 0 81 86" fill="none" xmlns="http://www.w3.org/2000/svg">
<path d="M27.2583 1.64077C26.0175 1.64077 24.8834 2.07993 23.9995 2.81118C23.871 2.91713 23.7498 3.02609 23.6323 3.14395C23.519 3.2577 23.4133 3.37563 23.3111 3.49966C23.3094 3.50191 23.3127 3.50889 23.3111 3.51114C23.2091 3.63525 23.1028 3.75625 23.0127 3.8898C23.011 3.89262 23.0144 3.89876 23.0127 3.90123C22.923 4.03478 22.8373 4.17216 22.7603 4.31432C22.7586 4.31713 22.762 4.32294 22.7603 4.32575C22.6836 4.46798 22.6055 4.61177 22.5423 4.76179C22.5406 4.76516 22.5439 4.77006 22.5423 4.77322C22.4794 4.92327 22.4187 5.07519 22.3701 5.2322C22.369 5.23558 22.3713 5.24019 22.3701 5.24363C22.3219 5.40074 22.2771 5.5623 22.2439 5.72557C22.2434 5.72952 22.2445 5.7334 22.2439 5.737C22.211 5.90034 22.1806 6.06172 22.1636 6.23041C22.1632 6.23434 22.164 6.23806 22.1636 6.24189C22.1469 6.41077 22.1406 6.58483 22.1406 6.75825C22.1406 6.76219 22.1406 6.76591 22.1406 6.76968V33.2301V33.2416C22.141 33.4149 22.1465 33.5891 22.1636 33.7579C22.164 33.7619 22.1632 33.7658 22.1636 33.7694C22.1809 33.9381 22.2107 34.0995 22.2439 34.2628C22.2445 34.2668 22.2434 34.2707 22.2439 34.2743C22.2775 34.4375 22.3216 34.599 22.3701 34.7562C22.3713 34.7596 22.369 34.7642 22.3701 34.7677C22.4191 34.9248 22.4791 35.0765 22.5423 35.2267C22.5439 35.23 22.5406 35.2349 22.5423 35.2381C22.6058 35.3883 22.6833 35.5318 22.7603 35.6742C22.762 35.677 22.7586 35.6827 22.7603 35.6857C22.8376 35.828 22.9228 35.9651 23.0127 36.0987C23.0144 36.1016 23.011 36.1075 23.0127 36.1102C23.103 36.2439 23.2089 36.3646 23.3111 36.4888C23.3127 36.4911 23.3094 36.498 23.3111 36.5003C23.4135 36.6245 23.5188 36.7421 23.6323 36.856C23.7498 36.9739 23.871 37.0828 23.9995 37.1888C24.8834 37.9176 26.0175 38.3592 27.2583 38.3592H53.7417C54.9825 38.3592 56.1166 37.92 57.0005 37.1888C57.129 37.0829 57.2502 36.9739 57.3676 36.856C57.4812 36.7421 57.5865 36.6245 57.6889 36.5003C57.6912 36.4981 57.6867 36.4912 57.6889 36.4888C57.7911 36.3646 57.897 36.2439 57.9873 36.1102C57.989 36.1074 57.9856 36.1014 57.9873 36.0987C58.0772 35.965 58.1624 35.828 58.2397 35.6857C58.2414 35.6829 58.238 35.6772 58.2397 35.6742C58.3167 35.5318 58.3942 35.3883 58.4577 35.2381C58.4589 35.2348 58.4566 35.23 58.4577 35.2267C58.5209 35.0765 58.5809 34.9248 58.6298 34.7677C58.631 34.7637 58.6287 34.7597 58.6298 34.7562C58.6784 34.599 58.7225 34.4375 58.7561 34.2743C58.7566 34.2703 58.7555 34.2664 58.7561 34.2628C58.7893 34.0995 58.819 33.9381 58.8364 33.7694C58.8368 33.7655 58.836 33.7617 58.8364 33.7579C58.8534 33.5891 58.859 33.4149 58.8594 33.2416V33.2301V6.76968C58.8594 6.76574 58.8594 6.76202 58.8594 6.75825C58.8594 6.58483 58.8531 6.41077 58.8364 6.24189C58.836 6.23795 58.8368 6.23423 58.8364 6.23041C58.8194 6.06172 58.7889 5.90034 58.7561 5.737C58.7555 5.73306 58.7566 5.72912 58.7561 5.72552C58.7228 5.56225 58.6781 5.4007 58.6298 5.24359C58.6287 5.24021 58.631 5.23548 58.6298 5.23216C58.5813 5.07513 58.5206 4.92322 58.4577 4.77317C58.4566 4.7698 58.4589 4.7649 58.4577 4.76169C58.3945 4.61168 58.3164 4.46788 58.2397 4.32566C58.238 4.32284 58.2414 4.31698 58.2397 4.31423C58.1627 4.17207 58.077 4.03469 57.9873 3.90114C57.9856 3.89833 57.989 3.89213 57.9873 3.88966C57.8972 3.7561 57.7909 3.63511 57.6889 3.511C57.6872 3.50875 57.6906 3.50166 57.6889 3.49952C57.5867 3.37548 57.481 3.25756 57.3676 3.1438C57.2502 3.02595 57.129 2.91699 57.0005 2.81104C56.1166 2.0798 54.9825 1.64062 53.7417 1.64062H27.2583V1.64077ZM30.4368 2.50137H30.5745C29.3753 3.0662 28.5435 4.39353 28.5435 5.94374V13.4366C28.5435 15.2035 29.6322 16.6609 31.1023 17.0511C30.8094 17.9841 30.6433 18.9707 30.6433 20.0001C30.6433 21.0295 30.8094 22.0162 31.1023 22.9491C29.6322 23.3393 28.5435 24.7967 28.5435 26.5636V34.0565C28.5435 35.6067 29.3753 36.934 30.5745 37.4989H30.4368C29.0846 37.4989 27.8669 36.9571 26.9829 36.076C26.8744 35.9678 26.7596 35.8612 26.6616 35.7432C26.6599 35.741 26.6633 35.7341 26.6616 35.7318C26.5641 35.6138 26.4725 35.4915 26.3862 35.3646C26.3846 35.3618 26.3879 35.3558 26.3862 35.3531C26.3003 35.2261 26.2077 35.0982 26.1338 34.963C26.1321 34.9602 26.1355 34.9545 26.1338 34.9516C26.0603 34.8164 25.9879 34.6811 25.9272 34.5385C25.9256 34.5351 25.9289 34.5303 25.9272 34.527C25.8669 34.3843 25.8134 34.2403 25.7666 34.091C25.7655 34.087 25.7677 34.083 25.7666 34.0795C25.7202 33.9301 25.684 33.7758 25.6519 33.6205C25.6513 33.6171 25.6524 33.6127 25.6519 33.6091C25.6201 33.4537 25.5882 33.2992 25.5715 33.1386C25.5711 33.1347 25.5719 33.1309 25.5715 33.1271C25.5553 32.9664 25.549 32.7988 25.5486 32.6337V32.6223V7.37815C25.5486 7.3742 25.5486 7.37049 25.5486 7.36666C25.5486 7.20148 25.5556 7.0341 25.5715 6.87326C25.5719 6.86932 25.5711 6.86555 25.5715 6.86183C25.5878 6.70116 25.6205 6.54692 25.6519 6.39137C25.6524 6.38743 25.6513 6.38348 25.6519 6.37988C25.6836 6.22444 25.7205 6.07048 25.7666 5.9209C25.7677 5.91752 25.7655 5.91284 25.7666 5.90947C25.8131 5.75999 25.8672 5.61627 25.9272 5.47343C25.9289 5.47005 25.9256 5.46516 25.9272 5.46195C25.9876 5.31915 26.0606 5.18424 26.1338 5.04887C26.1355 5.04605 26.1321 5.04014 26.1338 5.03738C26.2074 4.90198 26.3005 4.77444 26.3862 4.64724C26.3879 4.64443 26.3846 4.63823 26.3862 4.63576C26.4722 4.50866 26.5643 4.38669 26.6616 4.26857C26.6633 4.26632 26.6599 4.25923 26.6616 4.25709C26.7594 4.13894 26.8746 4.0327 26.9829 3.92433C27.8669 3.04321 29.0846 2.50148 30.4368 2.50148V2.50137ZM50.4255 2.50137H50.5632C51.9154 2.50137 53.1359 3.04309 54.0171 3.92422C54.125 4.03252 54.2295 4.13889 54.3269 4.25698C54.3286 4.25923 54.3252 4.26627 54.3269 4.26847C54.4239 4.38664 54.528 4.50848 54.6137 4.63566C54.6154 4.63847 54.6121 4.64466 54.6137 4.64709C54.6991 4.77422 54.7814 4.9019 54.8547 5.03723C54.8564 5.04004 54.853 5.04584 54.8547 5.04871C54.9276 5.18409 55.0011 5.31899 55.0612 5.46179C55.0624 5.46516 55.0601 5.47006 55.0612 5.47327C55.121 5.61611 55.1757 5.75984 55.2219 5.90931C55.223 5.91269 55.2208 5.9173 55.2219 5.92074C55.2678 6.07032 55.305 6.22428 55.3366 6.37973C55.3372 6.38366 55.3361 6.38755 55.3366 6.39121C55.3679 6.54677 55.4008 6.70102 55.417 6.86167C55.4174 6.86561 55.4166 6.86933 55.417 6.87316C55.4328 7.034 55.4399 7.20137 55.4399 7.36655C55.4399 7.3705 55.4399 7.37421 55.4399 7.37804V32.6221V32.6336C55.4395 32.7987 55.4332 32.9663 55.417 33.127C55.4166 33.131 55.4174 33.1349 55.417 33.1385C55.4004 33.299 55.3682 33.4535 55.3366 33.6089C55.3361 33.6129 55.3372 33.6168 55.3366 33.6204C55.3047 33.7757 55.2681 33.93 55.2219 34.0794C55.2208 34.0828 55.223 34.0874 55.2219 34.0909C55.1753 34.2402 55.1213 34.3842 55.0612 34.5269C55.0601 34.5303 55.0624 34.5351 55.0612 34.5384C55.0008 34.681 54.9279 34.8163 54.8547 34.9515C54.853 34.9543 54.8564 34.96 54.8547 34.963C54.7812 35.0981 54.6993 35.2262 54.6137 35.3531C54.6121 35.3559 54.6154 35.3619 54.6137 35.3646C54.5278 35.4916 54.4241 35.6138 54.3269 35.7318C54.3252 35.734 54.3286 35.7409 54.3269 35.7433C54.2293 35.8612 54.1252 35.9679 54.0171 36.076C53.1359 36.9571 51.9154 37.4989 50.5632 37.4989H50.4255C51.6226 36.934 52.4565 35.6067 52.4565 34.0565V26.5636C52.4565 24.7955 51.3784 23.3266 49.9092 22.9376C50.1993 22.0087 50.3567 21.0244 50.3567 20.0001C50.3567 18.9758 50.1993 17.9915 49.9092 17.0626C51.3784 16.6737 52.4565 15.2047 52.4565 13.4367V5.94375C52.4565 4.39354 51.6226 3.0662 50.4255 2.50137ZM32.2727 4.69302H48.7273C50.489 4.69302 51.9057 6.29039 51.9057 8.26162V11.1188C51.9057 13.0681 50.5191 14.6412 48.7846 14.6759C47.0302 11.954 43.9782 10.1435 40.5 10.1435C37.0218 10.1435 33.9698 11.954 32.2153 14.6759C30.4811 14.6412 29.1057 13.0681 29.1057 11.1188V8.26162C29.1057 6.29039 30.511 4.69302 32.2727 4.69302ZM40.5 12.2548C43.1172 12.2548 45.4773 13.1849 47.1438 14.6759C47.1582 14.6889 47.1754 14.6974 47.1897 14.7103C47.3183 14.8268 47.4369 14.9543 47.5569 15.0775C47.6272 15.1497 47.6961 15.2211 47.7634 15.2955C47.9105 15.4581 48.0447 15.6165 48.1765 15.7889C48.1933 15.8108 48.2058 15.8357 48.2224 15.8578C48.2954 15.9555 48.3725 16.0555 48.4404 16.1561C48.513 16.2636 48.5803 16.3782 48.6469 16.4889C48.6932 16.5656 48.7414 16.6401 48.7846 16.7184C48.865 16.864 48.9443 17.0154 49.0141 17.1659C49.4213 18.0433 49.6452 19.0004 49.6452 20.0001C49.6452 20.9997 49.4213 21.9569 49.0141 22.8343C48.9443 22.9847 48.865 23.1362 48.7846 23.2818C48.7414 23.36 48.6931 23.4345 48.6469 23.5113C48.5803 23.622 48.513 23.7366 48.4404 23.8441C48.3725 23.9447 48.2954 24.0447 48.2224 24.1424C48.2058 24.1645 48.1933 24.1893 48.1765 24.2113C48.0447 24.3837 47.9105 24.5421 47.7634 24.7047C47.6569 24.8224 47.5448 24.9366 47.4306 25.0489C47.3494 25.1288 47.2746 25.2129 47.1897 25.2899C47.1753 25.3029 47.1582 25.3114 47.1438 25.3243C45.4773 26.8153 43.1172 27.7454 40.5 27.7454C37.8828 27.7454 35.5226 26.8153 33.8562 25.3243C33.8419 25.3115 33.8245 25.3027 33.8103 25.2899C33.726 25.2134 33.65 25.1282 33.5693 25.0489C33.5276 25.0079 33.4838 24.9645 33.4431 24.9227C33.3899 24.8681 33.3339 24.8179 33.2825 24.762C33.2656 24.7438 33.2532 24.723 33.2366 24.7047C33.1656 24.6262 33.0975 24.5445 33.03 24.4637C32.9908 24.4166 32.9533 24.3738 32.9153 24.326C32.8846 24.2874 32.8534 24.2503 32.8235 24.2113C32.8066 24.1891 32.7943 24.1647 32.7776 24.1424C32.7029 24.0428 32.629 23.9467 32.5596 23.8441C32.487 23.7366 32.4197 23.6219 32.3531 23.5113C32.3228 23.4611 32.2902 23.413 32.2613 23.3621C32.2461 23.3354 32.2302 23.3088 32.2154 23.2818C32.1672 23.1947 32.1222 23.1067 32.0777 23.0179C32.0477 22.9577 32.0142 22.8952 31.9859 22.8343C31.5787 21.9569 31.3548 20.9997 31.3548 20.0001C31.3548 19.0004 31.5787 18.0433 31.9859 17.1659C32.0148 17.1038 32.047 17.0436 32.0777 16.9823C32.1043 16.9289 32.13 16.8743 32.158 16.8216C32.1765 16.7868 32.1963 16.7529 32.2154 16.7184C32.2587 16.6399 32.3068 16.5659 32.3531 16.4889C32.4197 16.3782 32.487 16.2636 32.5596 16.1561C32.5976 16.0998 32.6348 16.0394 32.6744 15.984C32.7061 15.9397 32.7449 15.9014 32.7776 15.8578C32.7943 15.8355 32.8066 15.8111 32.8235 15.7889C32.8894 15.7031 32.9604 15.6199 33.0301 15.5365C33.0774 15.4797 33.1186 15.42 33.1678 15.3644C33.1893 15.34 33.2148 15.3196 33.2366 15.2955C33.3028 15.2224 33.374 15.1485 33.4432 15.0775C33.4841 15.0354 33.5274 14.9926 33.5694 14.9513C33.6235 14.898 33.6742 14.8426 33.73 14.7906C33.758 14.7645 33.7819 14.7361 33.8103 14.7103C33.8245 14.6975 33.8419 14.6887 33.8562 14.6759C35.5227 13.1849 37.8828 12.2548 40.5 12.2548ZM40.5 14.9743C37.7232 14.9743 35.4741 17.2233 35.4741 20.0001C35.4741 22.7769 37.7232 25.026 40.5 25.026C43.2768 25.026 45.5259 22.7769 45.5259 20.0001C45.5259 17.2233 43.2768 14.9743 40.5 14.9743ZM40.5 18.3937C42.777 18.3937 44.6194 19.1115 44.6194 20.0001C44.6194 20.8887 42.777 21.6066 40.5 21.6066C38.223 21.6066 36.3806 20.8887 36.3806 20.0001C36.3806 19.1115 38.223 18.3937 40.5 18.3937ZM32.2153 25.3243C33.9698 28.0462 37.0218 29.8568 40.5 29.8568C43.9782 29.8568 47.0302 28.0462 48.7846 25.3243C50.5191 25.359 51.9057 26.9321 51.9057 28.8815V31.7386C51.9057 33.7099 50.489 35.3072 48.7273 35.3072H32.2727C30.511 35.3072 29.1057 33.7099 29.1057 31.7386V28.8815C29.1057 26.9321 30.4811 25.359 32.2153 25.3243Z" fill="white"/>
<path d="M16.0547 76.3438H14.0391V62.6797L9.63281 76.3438H7.89844L3.51562 62.6797V76.3438H1.47656V59.2344H4.26562L8.78906 73.1797L13.2422 59.2344H16.0547V76.3438ZM27.0591 76.3438H24.9497V75.1016C24.7934 75.3047 24.4419 75.5781 23.895 75.9219C23.5044 76.1406 23.0669 76.3125 22.5825 76.4375C22.1138 76.5469 21.5591 76.6016 20.9184 76.6016C20.6059 76.6016 20.2466 76.5312 19.8403 76.3906C19.4341 76.2344 19.0903 76.0156 18.8091 75.7344C18.4966 75.4531 18.2544 75.1172 18.0825 74.7266C17.9263 74.3203 17.8481 73.8672 17.8481 73.3672C17.8481 72.4609 18.0903 71.6797 18.5747 71.0234C19.0591 70.3516 19.6528 69.8906 20.3559 69.6406C20.8247 69.4688 21.3169 69.3438 21.8325 69.2656C22.3638 69.1875 22.8169 69.1484 23.1919 69.1484H24.9497V68.1641C24.9497 68.0078 24.9184 67.7812 24.8559 67.4844C24.8091 67.1719 24.6997 66.8828 24.5278 66.6172C24.3716 66.3672 24.1294 66.1562 23.8013 65.9844C23.4731 65.7969 23.0825 65.7031 22.6294 65.7031C22.0513 65.7031 21.5434 65.8672 21.1059 66.1953C20.6841 66.5234 20.4731 67 20.4731 67.625H18.1294C18.1294 67.0938 18.2153 66.625 18.3872 66.2188C18.5747 65.8125 18.8481 65.4453 19.2075 65.1172C19.5825 64.7734 20.0669 64.5 20.6606 64.2969C21.2544 64.0781 21.9106 63.9688 22.6294 63.9688C24.0825 63.9688 25.1841 64.3672 25.9341 65.1641C26.6841 65.9609 27.0591 66.9297 27.0591 68.0703V76.3438ZM24.9497 71.7969V70.7656C24.7153 70.7656 24.3716 70.7734 23.9184 70.7891C23.4809 70.7891 22.9341 70.8516 22.2778 70.9766C21.7153 71.0703 21.2153 71.2812 20.7778 71.6094C20.2622 72.0312 20.0044 72.5391 20.0044 73.1328C20.0044 73.7578 20.1684 74.2031 20.4966 74.4688C20.8247 74.7188 21.2309 74.8438 21.7153 74.8438C21.9028 74.8438 22.1684 74.8047 22.5122 74.7266C22.8559 74.6328 23.1606 74.5 23.4263 74.3281C23.9888 73.9531 24.4263 73.5 24.7388 72.9688C24.8794 72.6719 24.9497 72.2812 24.9497 71.7969ZM36.7509 73.1094C36.7509 73.6094 36.6572 74.0859 36.4697 74.5391C36.2822 74.9766 36.0244 75.3359 35.6963 75.6172C35.3056 75.9453 34.7822 76.1953 34.1259 76.3672C33.4853 76.5234 32.7822 76.6016 32.0166 76.6016C31.1259 76.6016 30.0009 76.3906 28.6416 75.9688V73.7188C29.0947 74.0312 29.6494 74.2969 30.3056 74.5156C30.9619 74.7188 31.5322 74.8203 32.0166 74.8203C32.8291 74.8203 33.4306 74.7188 33.8213 74.5156C34.3681 74.1875 34.6416 73.7578 34.6416 73.2266C34.6416 72.8672 34.54 72.5625 34.3369 72.3125C34.1494 72.0625 33.8916 71.8438 33.5634 71.6562C33.2197 71.4688 32.7588 71.2656 32.1806 71.0469C31.6181 70.8125 31.0713 70.5625 30.54 70.2969C30.0869 70.0781 29.665 69.7266 29.2744 69.2422C28.8838 68.7578 28.6884 68.125 28.6884 67.3438C28.6884 66.2656 29.0713 65.4375 29.8369 64.8594C30.6025 64.2656 31.6025 63.9688 32.8369 63.9688C33.8525 63.9688 34.9306 64.1562 36.0713 64.5312V66.6406C35.6181 66.3906 35.1025 66.1719 34.5244 65.9844C33.9463 65.7812 33.3369 65.6797 32.6963 65.6797C32.165 65.6797 31.7041 65.8125 31.3134 66.0781C30.9384 66.3281 30.7509 66.6797 30.7509 67.1328C30.7509 67.4453 30.8056 67.7031 30.915 67.9062C31.04 68.1094 31.2588 68.3203 31.5713 68.5391C31.8525 68.7109 32.3213 68.9297 32.9775 69.1953C33.6494 69.4609 34.2275 69.7188 34.7119 69.9688C35.2588 70.25 35.7353 70.6484 36.1416 71.1641C36.5478 71.6797 36.7509 72.3281 36.7509 73.1094ZM45.7163 73.1094C45.7163 73.6094 45.6225 74.0859 45.435 74.5391C45.2475 74.9766 44.9897 75.3359 44.6616 75.6172C44.2709 75.9453 43.7475 76.1953 43.0913 76.3672C42.4506 76.5234 41.7475 76.6016 40.9819 76.6016C40.0913 76.6016 38.9663 76.3906 37.6069 75.9688V73.7188C38.06 74.0312 38.6147 74.2969 39.2709 74.5156C39.9272 74.7188 40.4975 74.8203 40.9819 74.8203C41.7944 74.8203 42.3959 74.7188 42.7866 74.5156C43.3334 74.1875 43.6069 73.7578 43.6069 73.2266C43.6069 72.8672 43.5053 72.5625 43.3022 72.3125C43.1147 72.0625 42.8569 71.8438 42.5288 71.6562C42.185 71.4688 41.7241 71.2656 41.1459 71.0469C40.5834 70.8125 40.0366 70.5625 39.5053 70.2969C39.0522 70.0781 38.6303 69.7266 38.2397 69.2422C37.8491 68.7578 37.6538 68.125 37.6538 67.3438C37.6538 66.2656 38.0366 65.4375 38.8022 64.8594C39.5678 64.2656 40.5678 63.9688 41.8022 63.9688C42.8178 63.9688 43.8959 64.1562 45.0366 64.5312V66.6406C44.5834 66.3906 44.0678 66.1719 43.4897 65.9844C42.9116 65.7812 42.3022 65.6797 41.6616 65.6797C41.1303 65.6797 40.6694 65.8125 40.2788 66.0781C39.9038 66.3281 39.7163 66.6797 39.7163 67.1328C39.7163 67.4453 39.7709 67.7031 39.8803 67.9062C40.0053 68.1094 40.2241 68.3203 40.5366 68.5391C40.8178 68.7109 41.2866 68.9297 41.9428 69.1953C42.6147 69.4609 43.1928 69.7188 43.6772 69.9688C44.2241 70.25 44.7006 70.6484 45.1069 71.1641C45.5131 71.6797 45.7163 72.3281 45.7163 73.1094ZM58.4081 76.3438H55.6894L49.455 68.6328V76.3438H47.3222V59.2344H49.455V66.2422L55.2441 59.2344H57.8456L51.1425 67.2734L58.4081 76.3438ZM66.5062 70.2969C66.5062 69.6719 66.4359 69.0547 66.2953 68.4453C66.1547 67.8359 65.9437 67.3281 65.6625 66.9219C65.3969 66.5 65.0687 66.1875 64.6781 65.9844C64.2875 65.7812 63.8891 65.6797 63.4828 65.6797C63.0766 65.6797 62.6781 65.7812 62.2875 65.9844C61.8969 66.1875 61.5687 66.5 61.3031 66.9219C61.0219 67.3281 60.8109 67.8359 60.6703 68.4453C60.5297 69.0547 60.4594 69.6719 60.4594 70.2969C60.4594 70.9219 60.5297 71.5391 60.6703 72.1484C60.8109 72.7422 61.0219 73.2422 61.3031 73.6484C61.5687 74.0703 61.8969 74.3828 62.2875 74.5859C62.6781 74.7734 63.0766 74.8672 63.4828 74.8672C63.8891 74.8672 64.2875 74.7734 64.6781 74.5859C65.0687 74.3828 65.3969 74.0703 65.6625 73.6484C65.9437 73.2422 66.1547 72.7422 66.2953 72.1484C66.4359 71.5391 66.5062 70.9219 66.5062 70.2969ZM68.7094 70.2969C68.7094 71.1562 68.5844 71.9844 68.3344 72.7812C68.0844 73.5781 67.7406 74.2578 67.3031 74.8203C66.8187 75.3984 66.2406 75.8438 65.5687 76.1562C64.8969 76.4531 64.2016 76.6016 63.4828 76.6016C62.7641 76.6016 62.0687 76.4531 61.3969 76.1562C60.725 75.8438 60.1469 75.3984 59.6625 74.8203C59.225 74.2578 58.8812 73.5781 58.6312 72.7812C58.3812 71.9844 58.2562 71.1562 58.2562 70.2969C58.2562 69.4375 58.3812 68.6094 58.6312 67.8125C58.8812 67.0156 59.225 66.3281 59.6625 65.75C60.1469 65.1562 60.725 64.7109 61.3969 64.4141C62.0687 64.1172 62.7641 63.9688 63.4828 63.9688C64.2016 63.9688 64.8969 64.1172 65.5687 64.4141C66.2406 64.7109 66.8187 65.1562 67.3031 65.75C67.7406 66.3281 68.0844 67.0156 68.3344 67.8125C68.5844 68.6094 68.7094 69.4375 68.7094 70.2969ZM79.7138 64.25L75.5419 76.3438H73.6903L69.12 64.25H71.2997L74.6044 73.4141L77.6747 64.25H79.7138Z" fill="white"/>
</svg>
