<svg width="102" height="86" viewBox="0 0 102 86" fill="none" xmlns="http://www.w3.org/2000/svg">
<path d="M64.0976 6.90217C67.8125 10.617 67.8197 16.6403 64.1175 20.3425C60.4153 24.0447 54.4084 24.0211 50.6935 20.3062C46.9786 16.5913 46.9551 10.5844 50.6574 6.88221C54.3597 3.18003 60.3827 3.18722 64.0976 6.90217ZM67.8833 12.8377C70.7389 19.5309 69.4532 27.5567 64.0081 33.0019C63.828 33.182 63.6401 33.3522 63.4545 33.5232L63.4792 33.58C63.2994 33.7233 63.1172 33.8596 62.9337 33.9955C55.7302 40.1421 44.8725 39.7945 38.0391 32.9611C31.2057 26.1277 30.8581 15.2701 37.0048 8.06655C37.1407 7.88315 37.2769 7.70076 37.4202 7.52106L37.477 7.54553C37.648 7.35994 37.8182 7.17197 37.9983 6.9919C43.4434 1.54676 51.4693 0.261112 58.1624 3.11663C54.7031 2.61186 51.0528 3.6912 48.3964 6.34757C43.9226 10.8214 43.9327 18.0893 48.4219 22.5785C52.911 27.0677 60.1789 27.0778 64.6528 22.604C67.3092 19.9476 68.3885 16.2973 67.8837 12.8379L67.8833 12.8377ZM62.9738 8.02596C60.9306 5.98275 57.6173 5.98589 55.5702 8.03291C53.5232 10.0799 53.512 13.4014 55.5551 15.4446C57.5983 17.4878 60.9198 17.4765 62.9669 15.4295C65.0139 13.3825 65.0169 10.0691 62.9738 8.02596ZM66.3756 24.2618L66.3432 24.2944C64.8441 25.7935 63.0743 26.8677 61.1902 27.5291L62.5293 31.0832C64.4377 29.0973 65.6986 26.7477 66.3758 24.2618L66.3756 24.2618ZM46.738 4.62414C44.252 5.30128 41.9024 6.56225 39.9165 8.47063L43.4625 9.80159C44.1251 7.91914 45.2071 6.15506 46.7054 4.65671L46.7378 4.62417L46.738 4.62414ZM57.3981 28.2812C56.3086 28.3462 55.2125 28.2862 54.1358 28.0971L52.3712 35.9254C54.8252 35.7233 57.2438 34.9559 59.4108 33.6164L57.3981 28.2812ZM42.7186 13.6017L37.3834 11.589C36.0439 13.756 35.2765 16.1746 35.0744 18.6286L42.9027 16.864C42.7137 15.7872 42.6536 14.6912 42.7186 13.6017ZM50.492 26.929C49.6991 26.5457 48.929 26.0817 48.2072 25.5399L41.1876 32.5595C43.3769 34.2831 45.8917 35.3608 48.4986 35.7826L50.492 26.929ZM44.0708 20.5077L35.2091 22.5093C35.6348 25.1103 36.7194 27.6275 38.4402 29.8122L45.4599 22.7925C44.9181 22.0708 44.4541 21.3007 44.0708 20.5077Z" fill="white"/>
<path d="M16.7422 76.5312H14.3516V63.8516L10.2734 76.5312H8.25781L4.20312 63.8516V76.5312H1.78906V59.0469H4.90625L9.28906 72.5938L13.6016 59.0469H16.7422V76.5312ZM27.7466 76.5312H25.2622V75.4297C25.0591 75.6328 24.8013 75.8438 24.4888 76.0625C24.0981 76.3125 23.6528 76.5 23.1528 76.625C22.6528 76.7344 22.0669 76.7891 21.395 76.7891C21.0825 76.7891 20.7075 76.7109 20.27 76.5547C19.8481 76.3984 19.4888 76.1719 19.1919 75.875C18.8481 75.5781 18.5903 75.2188 18.4184 74.7969C18.2466 74.375 18.1606 73.8984 18.1606 73.3672C18.1606 72.4141 18.4106 71.5859 18.9106 70.8828C19.4263 70.1797 20.0513 69.7031 20.7856 69.4531C21.27 69.2812 21.7778 69.1562 22.3091 69.0781C22.8403 69 23.2856 68.9609 23.645 68.9609H25.2622V68.1406C25.2622 68.0156 25.2309 67.8125 25.1684 67.5312C25.1216 67.2344 25.02 66.9688 24.8638 66.7344C24.7231 66.5 24.5044 66.3047 24.2075 66.1484C23.9106 65.9922 23.5513 65.9141 23.1294 65.9141C22.5981 65.9141 22.1372 66.0625 21.7466 66.3594C21.3716 66.6406 21.1841 67.125 21.1841 67.8125H18.4419C18.4419 67.125 18.5278 66.5703 18.6997 66.1484C18.8872 65.7109 19.1841 65.3203 19.5903 64.9766C19.9809 64.6172 20.4809 64.3281 21.0903 64.1094C21.7153 63.875 22.395 63.7578 23.1294 63.7578C24.6294 63.7578 25.77 64.1797 26.5513 65.0234C27.3481 65.8672 27.7466 66.875 27.7466 68.0469V76.5312ZM25.2622 71.8438V70.9766C25.1528 70.9766 24.8794 70.9844 24.4419 71C24.0044 71 23.4575 71.0547 22.8013 71.1641C22.27 71.2578 21.8013 71.4531 21.395 71.75C20.9263 72.1406 20.6919 72.6016 20.6919 73.1328C20.6919 73.6953 20.8325 74.0938 21.1138 74.3281C21.4106 74.5469 21.7778 74.6562 22.2153 74.6562C22.3872 74.6562 22.6372 74.6172 22.9653 74.5391C23.2934 74.4609 23.5825 74.3359 23.8325 74.1641C24.3638 73.8047 24.77 73.3672 25.0513 72.8516C25.1919 72.6016 25.2622 72.2656 25.2622 71.8438ZM37.4384 73.1094C37.4384 73.6562 37.3369 74.1641 37.1338 74.6328C36.9463 75.0859 36.6728 75.4609 36.3134 75.7578C35.9072 76.1016 35.3681 76.3594 34.6963 76.5312C34.0244 76.7031 33.2978 76.7891 32.5166 76.7891C31.6103 76.7891 30.4228 76.5625 28.9541 76.1094V73.4375C29.6572 73.875 30.3056 74.1875 30.8994 74.375C31.5088 74.5469 32.0478 74.6328 32.5166 74.6328C33.2978 74.6328 33.8681 74.5391 34.2275 74.3516C34.7119 74.0703 34.9541 73.6953 34.9541 73.2266C34.9541 72.9141 34.8681 72.6484 34.6963 72.4297C34.5244 72.2109 34.2822 72.0078 33.9697 71.8203C33.6416 71.6484 33.1884 71.4453 32.6103 71.2109C32.0478 70.9766 31.4931 70.7266 30.9463 70.4609C30.4775 70.2266 30.0322 69.8594 29.6103 69.3594C29.2041 68.8438 29.0009 68.1719 29.0009 67.3438C29.0009 66.2031 29.3994 65.3203 30.1963 64.6953C31.0088 64.0703 32.0478 63.7578 33.3134 63.7578C34.3603 63.7578 35.5088 63.9688 36.7588 64.3906V66.9219C36.1338 66.5625 35.54 66.2969 34.9775 66.125C34.415 65.9531 33.8291 65.8672 33.2197 65.8672C32.7041 65.8672 32.2744 65.9844 31.9306 66.2188C31.6025 66.4375 31.4384 66.75 31.4384 67.1562C31.4384 67.4219 31.4853 67.6484 31.5791 67.8359C31.6884 68.0078 31.8838 68.1875 32.165 68.375C32.4463 68.5469 32.915 68.7656 33.5713 69.0312C34.2275 69.2969 34.8056 69.5547 35.3056 69.8047C35.8681 70.1016 36.3603 70.5156 36.7822 71.0469C37.2197 71.5781 37.4384 72.2656 37.4384 73.1094ZM46.4038 73.1094C46.4038 73.6562 46.3022 74.1641 46.0991 74.6328C45.9116 75.0859 45.6381 75.4609 45.2788 75.7578C44.8725 76.1016 44.3334 76.3594 43.6616 76.5312C42.9897 76.7031 42.2631 76.7891 41.4819 76.7891C40.5756 76.7891 39.3881 76.5625 37.9194 76.1094V73.4375C38.6225 73.875 39.2709 74.1875 39.8647 74.375C40.4741 74.5469 41.0131 74.6328 41.4819 74.6328C42.2631 74.6328 42.8334 74.5391 43.1928 74.3516C43.6772 74.0703 43.9194 73.6953 43.9194 73.2266C43.9194 72.9141 43.8334 72.6484 43.6616 72.4297C43.4897 72.2109 43.2475 72.0078 42.935 71.8203C42.6069 71.6484 42.1538 71.4453 41.5756 71.2109C41.0131 70.9766 40.4584 70.7266 39.9116 70.4609C39.4428 70.2266 38.9975 69.8594 38.5756 69.3594C38.1694 68.8438 37.9663 68.1719 37.9663 67.3438C37.9663 66.2031 38.3647 65.3203 39.1616 64.6953C39.9741 64.0703 41.0131 63.7578 42.2788 63.7578C43.3256 63.7578 44.4741 63.9688 45.7241 64.3906V66.9219C45.0991 66.5625 44.5053 66.2969 43.9428 66.125C43.3803 65.9531 42.7944 65.8672 42.185 65.8672C41.6694 65.8672 41.2397 65.9844 40.8959 66.2188C40.5678 66.4375 40.4038 66.75 40.4038 67.1562C40.4038 67.4219 40.4506 67.6484 40.5444 67.8359C40.6538 68.0078 40.8491 68.1875 41.1303 68.375C41.4116 68.5469 41.8803 68.7656 42.5366 69.0312C43.1928 69.2969 43.7709 69.5547 44.2709 69.8047C44.8334 70.1016 45.3256 70.5156 45.7475 71.0469C46.185 71.5781 46.4038 72.2656 46.4038 73.1094ZM50.3066 62.0703H47.4238V59.0469H50.3066V62.0703ZM50.1659 76.5312H47.6113V64.0625H50.1659V76.5312ZM69.1391 59.0469L66.0219 76.5312H63.3266L60.1625 63.3828L56.975 76.5312H54.2797L51.1625 59.0469H53.6234L55.7797 72.0078L58.9437 59.0469H61.3578L64.5453 72.0078L66.7016 59.0469H69.1391ZM78.1747 76.5312H75.6903V75.4297C75.4872 75.6328 75.2294 75.8438 74.9169 76.0625C74.5263 76.3125 74.0809 76.5 73.5809 76.625C73.0809 76.7344 72.495 76.7891 71.8231 76.7891C71.5106 76.7891 71.1356 76.7109 70.6981 76.5547C70.2763 76.3984 69.9169 76.1719 69.62 75.875C69.2763 75.5781 69.0184 75.2188 68.8466 74.7969C68.6747 74.375 68.5888 73.8984 68.5888 73.3672C68.5888 72.4141 68.8388 71.5859 69.3388 70.8828C69.8544 70.1797 70.4794 69.7031 71.2138 69.4531C71.6981 69.2812 72.2059 69.1562 72.7372 69.0781C73.2684 69 73.7138 68.9609 74.0731 68.9609H75.6903V68.1406C75.6903 68.0156 75.6591 67.8125 75.5966 67.5312C75.5497 67.2344 75.4481 66.9688 75.2919 66.7344C75.1513 66.5 74.9325 66.3047 74.6356 66.1484C74.3388 65.9922 73.9794 65.9141 73.5575 65.9141C73.0263 65.9141 72.5653 66.0625 72.1747 66.3594C71.7997 66.6406 71.6122 67.125 71.6122 67.8125H68.87C68.87 67.125 68.9559 66.5703 69.1278 66.1484C69.3153 65.7109 69.6122 65.3203 70.0184 64.9766C70.4091 64.6172 70.9091 64.3281 71.5184 64.1094C72.1434 63.875 72.8231 63.7578 73.5575 63.7578C75.0575 63.7578 76.1981 64.1797 76.9794 65.0234C77.7763 65.8672 78.1747 66.875 78.1747 68.0469V76.5312ZM75.6903 71.8438V70.9766C75.5809 70.9766 75.3075 70.9844 74.87 71C74.4325 71 73.8856 71.0547 73.2294 71.1641C72.6981 71.2578 72.2294 71.4531 71.8231 71.75C71.3544 72.1406 71.12 72.6016 71.12 73.1328C71.12 73.6953 71.2606 74.0938 71.5419 74.3281C71.8388 74.5469 72.2059 74.6562 72.6434 74.6562C72.8153 74.6562 73.0653 74.6172 73.3934 74.5391C73.7216 74.4609 74.0106 74.3359 74.2606 74.1641C74.7919 73.8047 75.1981 73.3672 75.4794 72.8516C75.62 72.6016 75.6903 72.2656 75.6903 71.8438ZM90.0462 64.0625L85.7572 76.5312H83.6244L78.9134 64.0625H81.515L84.6791 72.875L87.6087 64.0625H90.0462ZM92.8475 69.0781H97.7459C97.7459 68.2188 97.6053 67.4844 97.3241 66.875C97.1522 66.5938 96.9256 66.3672 96.6444 66.1953C96.3631 66.0078 96.0272 65.9141 95.6366 65.9141C94.8553 65.9141 94.1913 66.2734 93.6444 66.9922C93.2225 67.5078 92.9569 68.2031 92.8475 69.0781ZM92.9178 71.2109C92.9647 71.5078 93.0428 71.8047 93.1522 72.1016C93.2772 72.4922 93.4725 72.875 93.7381 73.25C94.0194 73.6094 94.3709 73.9375 94.7928 74.2344C94.9334 74.3281 95.16 74.4219 95.4725 74.5156C95.8006 74.5938 96.1834 74.6328 96.6209 74.6328C96.9334 74.6328 97.3475 74.5859 97.8631 74.4922C98.3788 74.3984 99.0741 74.1016 99.9491 73.6016V75.8047C99.1834 76.2734 98.4256 76.5703 97.6756 76.6953C96.9256 76.8203 96.1756 76.8438 95.4256 76.7656C94.7694 76.7031 94.1131 76.5156 93.4569 76.2031C92.8163 75.875 92.2928 75.4922 91.8866 75.0547C91.4178 74.4922 91.0194 73.7891 90.6913 72.9453C90.3788 72.1016 90.2225 71.1328 90.2225 70.0391C90.2225 69.1328 90.3397 68.3047 90.5741 67.5547C90.8084 66.7891 91.1522 66.1328 91.6053 65.5859C92.0584 65.0391 92.6209 64.6016 93.2928 64.2734C93.9647 63.9297 94.7459 63.7578 95.6366 63.7578C96.3709 63.7578 97.0663 63.9219 97.7225 64.25C98.3788 64.5625 98.8944 64.9688 99.2694 65.4688C99.9569 66.375 100.301 67.8203 100.301 69.8047V71.2109H92.9178Z" fill="white"/>
</svg>
