<svg width="109" height="86" viewBox="0 0 109 86" fill="none" xmlns="http://www.w3.org/2000/svg">
<path d="M54.5 1.64062L51.869 7.10074C47.6429 7.01372 41.5946 4.69662 38.2385 3.52643C38.5697 5.86291 41.0634 11.3215 41.2057 14.2055L36.1406 15.258L41.3216 20.8716C41.2779 25.4716 38.1927 31.4886 36.9636 34.7193C38.0186 34.5848 42.6648 32.9589 43.8367 32.8554L43.3267 38.3594L52.3905 33.2391C52.3025 32.9886 52.2515 32.7194 52.2515 32.4387C52.2515 31.1613 53.2389 30.1202 54.5 30.0266C55.7611 30.1202 56.7486 31.1613 56.7486 32.4387C56.7486 32.7194 56.6976 32.9886 56.6095 33.2391L65.6733 38.3594L65.1633 32.8554C66.3352 32.9589 70.9815 34.5848 72.0365 34.7193C70.8074 31.4886 67.7221 25.4716 67.6784 20.8716L72.8594 15.258L67.7943 14.2055C67.9366 11.3215 70.4303 5.86291 70.7615 3.52643C67.4054 4.69662 61.3571 7.01372 57.131 7.10074L54.5 1.64062ZM40.5566 6.09204C43.4078 7.23303 47.7782 8.74112 50.8722 8.84403L49.9681 10.4119C50.8834 10.7603 51.5328 11.6265 51.5328 12.6595C51.5328 13.9986 50.4351 15.0826 49.0873 15.0826C47.8759 15.0826 46.8787 14.2034 46.688 13.0542L43.0254 13.8217C42.8972 11.7884 41.434 8.23418 40.5566 6.09204ZM68.4434 6.09204C67.566 8.23418 66.1028 11.7884 65.9746 13.8217L62.312 13.0542C62.1214 14.2034 61.1242 15.0826 59.9128 15.0826C58.5649 15.0826 57.4672 13.9986 57.4672 12.6595C57.4672 11.6265 58.1167 10.7603 59.0319 10.4119L58.1279 8.84403C61.2218 8.74111 65.5922 7.23303 68.4434 6.09204ZM54.5 12.5609L56.5052 16.0365C56.0795 16.1985 55.7866 16.5976 55.7866 17.0781C55.7866 17.7009 56.2955 18.2074 56.9225 18.2074C57.4859 18.2074 57.9465 17.8099 58.0351 17.2754L62.9379 18.2951L59.5998 21.9132C59.3925 21.6305 59.0513 21.4637 58.6726 21.4637C58.0457 21.4637 57.5367 21.9592 57.5367 22.582C57.5367 23.2048 58.0457 23.7113 58.6726 23.7113C58.8005 23.7113 58.9169 23.6841 59.0319 23.6455L59.5998 28.5574L55.3925 26.6497C55.4335 26.5332 55.4388 26.4184 55.4388 26.2879C55.4388 25.729 55.0354 25.2785 54.5 25.1915C53.9646 25.2785 53.5612 25.729 53.5612 26.2879C53.5612 26.4184 53.5668 26.5332 53.6076 26.6497L49.4002 28.5574L49.9681 23.6455C50.0831 23.6842 50.1995 23.7113 50.3274 23.7113C50.9543 23.7113 51.4633 23.2048 51.4633 22.582C51.4633 21.9592 50.9543 21.4637 50.3274 21.4637C49.9488 21.4637 49.6075 21.6305 49.4002 21.9132L46.0621 18.2951L50.9649 17.2754C51.0536 17.8099 51.5142 18.2074 52.0776 18.2074C52.7045 18.2074 53.2135 17.7009 53.2135 17.0781C53.2135 16.5976 52.9206 16.1985 52.4949 16.0365L54.5 12.5609ZM45.1581 21.979C45.5642 21.979 45.942 22.0706 46.2824 22.2312C46.3542 22.265 46.4231 22.3008 46.491 22.3408C46.5174 22.3562 46.5463 22.368 46.5721 22.3847C46.5791 22.3886 46.5883 22.3913 46.5952 22.3957C47.2991 22.8202 47.7659 23.5881 47.7659 24.4679C47.7659 25.807 46.6797 26.891 45.3319 26.891C45.0568 26.891 44.791 26.8426 44.5437 26.7594L44.0337 31.145C43.5007 31.2011 40.8377 31.8596 40.3364 31.9235C41 30.317 41.8134 27.3577 42.6429 24.7091C42.6271 24.6004 42.6197 24.4931 42.6197 24.3802C42.6197 23.826 42.8194 23.3173 43.1529 22.911C43.1569 22.8971 43.1614 22.8809 43.1647 22.8672L43.1765 22.8782C43.6415 22.3308 44.3583 21.9791 45.1584 21.9791L45.1581 21.979ZM63.842 21.979C64.6421 21.979 65.3589 22.3306 65.824 22.8781L65.8357 22.867C65.8397 22.881 65.8442 22.8971 65.8475 22.9109C66.181 23.3171 66.3806 23.8259 66.3806 24.38C66.3806 24.493 66.3733 24.6002 66.3575 24.709C67.187 27.3575 68.0003 30.3168 68.664 31.9233C68.1627 31.8595 65.4998 31.2009 64.9666 31.1449L64.4567 26.7593C64.2094 26.8424 63.9436 26.8908 63.6685 26.8908C62.3206 26.8908 61.2345 25.8068 61.2345 24.4678C61.2345 23.588 61.7012 22.82 62.4051 22.3955C62.4121 22.391 62.4213 22.389 62.4283 22.3845C62.454 22.368 62.483 22.3562 62.5094 22.3406C62.5772 22.3007 62.6461 22.2649 62.718 22.231C63.0585 22.0705 63.4361 21.9788 63.8423 21.9788L63.842 21.979Z" fill="white"/>
<path d="M11.2344 76.5312H1.78906V59.0469H4.34375V74.2109H11.2344V76.5312ZM19.6606 70.2969C19.6606 69.6875 19.5903 69.0859 19.4497 68.4922C19.3091 67.8984 19.1059 67.4141 18.8403 67.0391C18.5903 66.6328 18.2856 66.3359 17.9263 66.1484C17.5669 65.9609 17.1997 65.8672 16.8247 65.8672C16.4497 65.8672 16.0825 65.9609 15.7231 66.1484C15.3638 66.3359 15.0513 66.6328 14.7856 67.0391C14.5356 67.4141 14.3403 67.8984 14.1997 68.4922C14.0591 69.0859 13.9888 69.6875 13.9888 70.2969C13.9888 70.9062 14.0591 71.5078 14.1997 72.1016C14.3403 72.6797 14.5356 73.1562 14.7856 73.5312C15.0513 73.9375 15.3638 74.2344 15.7231 74.4219C16.0825 74.5938 16.4497 74.6797 16.8247 74.6797C17.1997 74.6797 17.5669 74.5938 17.9263 74.4219C18.2856 74.2344 18.5903 73.9375 18.8403 73.5312C19.1059 73.1562 19.3091 72.6797 19.4497 72.1016C19.5903 71.5078 19.6606 70.9062 19.6606 70.2969ZM22.2388 70.2969C22.2388 71.1719 22.1138 72.0234 21.8638 72.8516C21.6138 73.6641 21.2544 74.3672 20.7856 74.9609C20.2856 75.5547 19.6841 76.0078 18.9809 76.3203C18.2934 76.6328 17.5747 76.7891 16.8247 76.7891C16.0747 76.7891 15.3481 76.6328 14.645 76.3203C13.9575 76.0078 13.3638 75.5547 12.8638 74.9609C12.395 74.3672 12.0356 73.6641 11.7856 72.8516C11.5356 72.0234 11.4106 71.1719 11.4106 70.2969C11.4106 69.4219 11.5356 68.5781 11.7856 67.7656C12.0356 66.9375 12.395 66.2266 12.8638 65.6328C13.3638 65.0078 13.9575 64.5391 14.645 64.2266C15.3481 63.9141 16.0747 63.7578 16.8247 63.7578C17.5747 63.7578 18.2934 63.9141 18.9809 64.2266C19.6841 64.5391 20.2856 65.0078 20.7856 65.6328C21.2544 66.2266 21.6138 66.9375 21.8638 67.7656C22.1138 68.5781 22.2388 69.4219 22.2388 70.2969ZM30.6416 66.2656C29.9384 66.2656 29.3759 66.3203 28.9541 66.4297C28.5322 66.5391 28.1338 66.7031 27.7588 66.9219C27.3994 67.125 27.0634 67.4219 26.7509 67.8125C26.4541 68.2031 26.2588 68.6641 26.165 69.1953C26.04 69.8516 25.9775 70.5781 25.9775 71.375V76.5312H23.5166V64.0625H25.9775V65.7734C26.3056 65.3047 26.7275 64.8984 27.2431 64.5547C28.04 64.0391 29.1728 63.7734 30.6416 63.7578V66.2656ZM33.0444 69.0781H37.9428C37.9428 68.2188 37.8022 67.4844 37.5209 66.875C37.3491 66.5938 37.1225 66.3672 36.8412 66.1953C36.56 66.0078 36.2241 65.9141 35.8334 65.9141C35.0522 65.9141 34.3881 66.2734 33.8412 66.9922C33.4194 67.5078 33.1537 68.2031 33.0444 69.0781ZM33.1147 71.2109C33.1616 71.5078 33.2397 71.8047 33.3491 72.1016C33.4741 72.4922 33.6694 72.875 33.935 73.25C34.2162 73.6094 34.5678 73.9375 34.9897 74.2344C35.1303 74.3281 35.3569 74.4219 35.6694 74.5156C35.9975 74.5938 36.3803 74.6328 36.8178 74.6328C37.1303 74.6328 37.5444 74.5859 38.06 74.4922C38.5756 74.3984 39.2709 74.1016 40.1459 73.6016V75.8047C39.3803 76.2734 38.6225 76.5703 37.8725 76.6953C37.1225 76.8203 36.3725 76.8438 35.6225 76.7656C34.9662 76.7031 34.31 76.5156 33.6537 76.2031C33.0131 75.875 32.4897 75.4922 32.0834 75.0547C31.6147 74.4922 31.2162 73.7891 30.8881 72.9453C30.5756 72.1016 30.4194 71.1328 30.4194 70.0391C30.4194 69.1328 30.5366 68.3047 30.7709 67.5547C31.0053 66.7891 31.3491 66.1328 31.8022 65.5859C32.2553 65.0391 32.8178 64.6016 33.4897 64.2734C34.1616 63.9297 34.9428 63.7578 35.8334 63.7578C36.5678 63.7578 37.2631 63.9219 37.9194 64.25C38.5756 64.5625 39.0912 64.9688 39.4662 65.4688C40.1537 66.375 40.4975 67.8203 40.4975 69.8047V71.2109H33.1147ZM56.6816 76.5312H54.2675V69.4766C54.2675 69.0234 54.2441 68.5625 54.1972 68.0938C54.1503 67.625 54.08 67.2656 53.9863 67.0156C53.8613 66.7031 53.6972 66.4844 53.4941 66.3594C53.3066 66.2344 53.0644 66.1719 52.7675 66.1719C52.2519 66.1719 51.7909 66.4531 51.3847 67.0156C50.9784 67.5625 50.705 68.3594 50.5644 69.4062C50.5175 69.75 50.4863 70.0547 50.4706 70.3203C50.455 70.5703 50.4472 70.8516 50.4472 71.1641V76.5312H48.08V69.4766C48.08 69.0234 48.0566 68.5781 48.0097 68.1406C47.9784 67.6875 47.9081 67.3125 47.7988 67.0156C47.6738 66.7031 47.5097 66.4844 47.3066 66.3594C47.1191 66.2344 46.8613 66.1719 46.5331 66.1719C46.1738 66.1719 45.8534 66.2969 45.5722 66.5469C45.2909 66.7969 45.0488 67.1797 44.8456 67.6953C44.6581 68.2109 44.5175 68.75 44.4238 69.3125C44.3456 69.875 44.2988 70.4766 44.2831 71.1172V76.5312H41.8456V64.0625H44.2831V65.2109C44.5175 64.8672 44.8534 64.5391 45.2909 64.2266C45.7284 63.9141 46.205 63.7578 46.7206 63.7578C47.7363 63.7578 48.5488 64.0547 49.1581 64.6484C49.4394 64.9141 49.6894 65.2656 49.9081 65.7031C50.0331 65.4844 50.1972 65.25 50.4003 65C51.0253 64.1719 51.8847 63.7578 52.9784 63.7578C54.0409 63.7578 54.9238 64.1406 55.6269 64.9062C56.33 65.6562 56.6816 66.8047 56.6816 68.3516V76.5312ZM68.1547 71.6562C68.1547 73.4062 67.6078 74.7031 66.5141 75.5469C65.4359 76.375 63.9828 76.7891 62.1547 76.7891C61.4672 76.7891 60.7719 76.7109 60.0687 76.5547C59.3656 76.3984 58.7016 76.2188 58.0766 76.0156V73.3438C58.7953 73.6562 59.4437 73.9062 60.0219 74.0938C60.3344 74.1875 60.7016 74.2812 61.1234 74.375C61.5453 74.4531 61.9516 74.4922 62.3422 74.4922C62.7641 74.4922 63.1547 74.4531 63.5141 74.375C63.8891 74.2969 64.225 74.1484 64.5219 73.9297C64.8031 73.7422 65.0453 73.4922 65.2484 73.1797C65.4516 72.8516 65.5531 72.4453 65.5531 71.9609C65.5531 71.4922 65.4594 71.0938 65.2719 70.7656C65.0844 70.4375 64.8578 70.1641 64.5922 69.9453C64.0141 69.4453 63.3969 69.0234 62.7406 68.6797C62.2875 68.4297 61.7797 68.1484 61.2172 67.8359C60.6703 67.5078 60.1469 67.1406 59.6469 66.7344C59.1469 66.3281 58.7328 65.8516 58.4047 65.3047C58.0922 64.7422 57.9359 64.1094 57.9359 63.4062C57.9359 61.7969 58.4203 60.6172 59.3891 59.8672C60.3578 59.1016 61.6078 58.7188 63.1391 58.7188C63.5297 58.7188 63.9203 58.7578 64.3109 58.8359C64.7016 58.8984 65.0531 58.9688 65.3656 59.0469C65.9594 59.1875 66.5609 59.3594 67.1703 59.5625V62.0938C66.5766 61.7656 65.9047 61.5 65.1547 61.2969C64.4047 61.0781 63.6859 60.9688 62.9984 60.9688C62.2797 60.9688 61.6781 61.1719 61.1937 61.5781C60.7094 61.9688 60.4672 62.5234 60.4672 63.2422C60.4672 63.5391 60.5375 63.8047 60.6781 64.0391C60.8344 64.2578 61.0141 64.4688 61.2172 64.6719C61.4359 64.9062 61.6859 65.125 61.9672 65.3281C62.2484 65.5156 62.5609 65.6953 62.9047 65.8672C63.9984 66.4609 64.8266 66.9453 65.3891 67.3203C65.9516 67.6797 66.4125 68.0312 66.7719 68.375C67.1937 68.7656 67.5219 69.2188 67.7562 69.7344C67.9906 70.2344 68.1234 70.875 68.1547 71.6562ZM75.6669 66.1953H72.6434V72.2891C72.6434 72.6484 72.6434 72.9766 72.6434 73.2734C72.6434 73.5547 72.6981 73.8359 72.8075 74.1172C72.8856 74.2891 73.0106 74.4219 73.1825 74.5156C73.37 74.5938 73.6356 74.6328 73.9794 74.6328C74.3075 74.6328 74.8544 74.5625 75.62 74.4219V76.6484C74.9638 76.7422 74.2763 76.7891 73.5575 76.7891C72.4325 76.7891 71.5809 76.5156 71.0028 75.9688C70.4247 75.4062 70.1356 74.6328 70.1356 73.6484V66.1953H68.3075V64.0625H70.1356V61.4609L72.6434 60.1719V64.0625H75.6669V66.1953ZM85.7103 76.5312H83.2259V75.4297C83.0228 75.6328 82.765 75.8438 82.4525 76.0625C82.0619 76.3125 81.6166 76.5 81.1166 76.625C80.6166 76.7344 80.0306 76.7891 79.3587 76.7891C79.0462 76.7891 78.6712 76.7109 78.2337 76.5547C77.8119 76.3984 77.4525 76.1719 77.1556 75.875C76.8119 75.5781 76.5541 75.2188 76.3822 74.7969C76.2103 74.375 76.1244 73.8984 76.1244 73.3672C76.1244 72.4141 76.3744 71.5859 76.8744 70.8828C77.39 70.1797 78.015 69.7031 78.7494 69.4531C79.2337 69.2812 79.7416 69.1562 80.2728 69.0781C80.8041 69 81.2494 68.9609 81.6087 68.9609H83.2259V68.1406C83.2259 68.0156 83.1947 67.8125 83.1322 67.5312C83.0853 67.2344 82.9837 66.9688 82.8275 66.7344C82.6869 66.5 82.4681 66.3047 82.1712 66.1484C81.8744 65.9922 81.515 65.9141 81.0931 65.9141C80.5619 65.9141 80.1009 66.0625 79.7103 66.3594C79.3353 66.6406 79.1478 67.125 79.1478 67.8125H76.4056C76.4056 67.125 76.4916 66.5703 76.6634 66.1484C76.8509 65.7109 77.1478 65.3203 77.5541 64.9766C77.9447 64.6172 78.4447 64.3281 79.0541 64.1094C79.6791 63.875 80.3587 63.7578 81.0931 63.7578C82.5931 63.7578 83.7337 64.1797 84.515 65.0234C85.3119 65.8672 85.7103 66.875 85.7103 68.0469V76.5312ZM83.2259 71.8438V70.9766C83.1166 70.9766 82.8431 70.9844 82.4056 71C81.9681 71 81.4212 71.0547 80.765 71.1641C80.2337 71.2578 79.765 71.4531 79.3587 71.75C78.89 72.1406 78.6556 72.6016 78.6556 73.1328C78.6556 73.6953 78.7962 74.0938 79.0775 74.3281C79.3744 74.5469 79.7416 74.6562 80.1791 74.6562C80.3509 74.6562 80.6009 74.6172 80.9291 74.5391C81.2572 74.4609 81.5462 74.3359 81.7962 74.1641C82.3275 73.8047 82.7337 73.3672 83.015 72.8516C83.1556 72.6016 83.2259 72.2656 83.2259 71.8438ZM97.0428 68.4219H94.4178C94.4178 67.6562 94.2459 67.0469 93.9022 66.5938C93.5584 66.1406 93.0506 65.9141 92.3788 65.9141C91.5975 65.9141 90.9256 66.2734 90.3631 66.9922C89.8163 67.7109 89.5428 68.7344 89.5428 70.0625C89.5428 70.375 89.5663 70.7109 89.6131 71.0703C89.6756 71.4141 89.7694 71.7578 89.8944 72.1016C90.0194 72.5078 90.2147 72.8906 90.4803 73.25C90.7616 73.6094 91.1131 73.9375 91.535 74.2344C91.6756 74.3281 91.9022 74.4219 92.2147 74.5156C92.5428 74.5938 92.9256 74.6328 93.3631 74.6328C93.6756 74.6328 94.0819 74.5938 94.5819 74.5156C95.0819 74.4219 95.785 74.1172 96.6913 73.6016V75.8047C95.9256 76.2734 95.1678 76.5703 94.4178 76.6953C93.6678 76.8203 92.9178 76.8438 92.1678 76.7656C91.5116 76.7031 90.8553 76.5156 90.1991 76.2031C89.5584 75.875 89.035 75.4922 88.6288 75.0547C88.16 74.4922 87.7616 73.7891 87.4334 72.9453C87.1209 72.1016 86.9647 71.1328 86.9647 70.0391C86.9647 69.1328 87.0819 68.3047 87.3163 67.5547C87.5506 66.7891 87.8944 66.1328 88.3475 65.5859C88.8006 65.0234 89.3709 64.5781 90.0584 64.25C90.7459 63.9219 91.535 63.7578 92.4256 63.7578C93.0663 63.7578 93.66 63.8594 94.2069 64.0625C94.7538 64.2656 95.2303 64.5547 95.6366 64.9297C96.0584 65.2891 96.3944 65.7344 96.6444 66.2656C96.91 66.7969 97.0428 67.5156 97.0428 68.4219ZM108.469 76.5312H105.328L100.875 71.375V76.5312H98.3909V59.0469H100.875V68.3047L105.118 64.0625H108.422L102.586 69.6641L108.469 76.5312Z" fill="white"/>
</svg>
