<svg width="18" height="17" viewBox="0 0 18 17" fill="none" xmlns="http://www.w3.org/2000/svg">
<path d="M8.60416 0.912737C8.64068 0.838954 8.69709 0.776847 8.76704 0.733425C8.83698 0.690002 8.91767 0.666992 8.99999 0.666992C9.08232 0.666992 9.16301 0.690002 9.23295 0.733425C9.30289 0.776847 9.35931 0.838954 9.39583 0.912737L11.3208 4.8119C11.4476 5.06854 11.6348 5.29058 11.8663 5.45895C12.0979 5.62732 12.3668 5.737 12.65 5.77857L16.955 6.40857C17.0366 6.42039 17.1132 6.4548 17.1762 6.5079C17.2393 6.56101 17.2862 6.63069 17.3117 6.70908C17.3372 6.78746 17.3402 6.87141 17.3205 6.95143C17.3007 7.03146 17.259 7.10436 17.2 7.1619L14.0867 10.1936C13.8813 10.3937 13.7277 10.6406 13.639 10.9133C13.5503 11.1859 13.5292 11.476 13.5775 11.7586L14.3125 16.0419C14.3269 16.1234 14.3181 16.2074 14.2871 16.2841C14.2561 16.3609 14.2041 16.4274 14.1371 16.4761C14.0701 16.5247 13.9908 16.5536 13.9082 16.5593C13.8256 16.5651 13.7431 16.5475 13.67 16.5086L9.82166 14.4852C9.56809 14.3521 9.28598 14.2825 8.99958 14.2825C8.71318 14.2825 8.43106 14.3521 8.17749 14.4852L4.32999 16.5086C4.25694 16.5472 4.17449 16.5646 4.09204 16.5588C4.00958 16.5529 3.93043 16.524 3.86357 16.4754C3.79672 16.4268 3.74485 16.3604 3.71387 16.2838C3.68289 16.2071 3.67404 16.1233 3.68833 16.0419L4.42249 11.7594C4.47099 11.4767 4.44998 11.1864 4.36128 10.9136C4.27257 10.6408 4.11883 10.3937 3.91333 10.1936L0.799994 7.16274C0.740489 7.10526 0.698322 7.03223 0.678296 6.95197C0.658271 6.8717 0.661192 6.78742 0.686727 6.70873C0.712261 6.63004 0.759383 6.56011 0.822725 6.50689C0.886066 6.45367 0.96308 6.41932 1.04499 6.40774L5.34916 5.77857C5.63271 5.73732 5.90199 5.62779 6.13381 5.45939C6.36564 5.291 6.55308 5.0688 6.67999 4.8119L8.60416 0.912737Z" fill="#141414"/>
</svg>
