<svg width="60" height="60" viewBox="0 0 60 60" fill="none" xmlns="http://www.w3.org/2000/svg">
<ellipse cx="21" cy="20.5" rx="21" ry="20.5" fill="#494852" fill-opacity="0.1"/>
<path d="M20.3816 21.1283C27.6294 13.8804 48.2456 2.36436 53.0775 7.11573C57.9094 11.9476 45.9101 32.0806 38.5817 39.3284M43.9774 32.9664C43.8968 33.7717 42.7694 49.717 32.3808 54.71C32.3808 54.71 23.7639 43.7577 19.8178 39.8922C15.8718 35.9461 23.7639 43.7577 19.3347 39.3284C14.9054 34.8992 5 27.3292 5 27.3292C10.3151 17.1017 27.2268 15.6521 27.2268 15.6521M24.9719 45.6099C23.4418 47.14 29.2401 58.2534 15.3081 44.4019C1.37607 30.4699 12.57 36.2682 14.1001 34.7381M40.5145 7.92105L51.95 19.4371M34.5552 33.047C32.3808 35.2213 28.8374 35.2213 26.663 33.047C24.4887 30.8726 24.4887 27.3292 26.663 25.1548C28.8374 22.9805 35.2799 20.0008 37.4543 22.1752C39.6287 24.3495 36.7295 30.8726 34.5552 33.047Z" stroke="#141414" stroke-width="1.875"/>
</svg>
