<svg width="60" height="60" viewBox="0 0 60 60" fill="none" xmlns="http://www.w3.org/2000/svg">
<ellipse cx="21" cy="20.5" rx="21" ry="20.5" fill="#494852" fill-opacity="0.1"/>
<path d="M30.2837 22.0965L17.4697 9.28232C16.5237 8.33631 16.0507 7.86331 15.5052 7.68608C15.0255 7.53019 14.5087 7.53019 14.0289 7.68608C13.4835 7.86331 13.0105 8.33631 12.0644 9.2823L10.7132 10.6336C9.76715 11.5796 9.29414 12.0526 9.11692 12.598C8.96103 13.0778 8.96103 13.5946 9.11692 14.0744C9.29414 14.6198 9.76715 15.0928 10.7132 16.0388L23.5273 28.8531M37.0404 28.8531L49.8539 41.6666C50.7999 42.6125 51.2728 43.0855 51.4501 43.6311C51.6061 44.1108 51.6061 44.6277 51.4501 45.1074C51.2728 45.6527 50.7999 46.1257 49.8539 47.0719L48.5026 48.423C47.5566 49.3692 47.0836 49.8422 46.5383 50.0194C46.0584 50.1752 45.5417 50.1752 45.0618 50.0194C44.5164 49.8422 44.0434 49.3692 43.0975 48.423L30.2837 35.6095M20.9912 17.055L23.1154 14.928M42.4902 38.5547L44.6265 36.4392M38.9061 13.4774L45.6625 20.2339M9.04667 50.5032L9.16001 49.7096C9.56112 46.9018 9.76168 45.4982 10.2179 44.1875C10.6227 43.0244 11.1757 41.9183 11.8632 40.8967C12.638 39.7455 13.6408 38.7427 15.6463 36.7371L43.4708 8.91251C45.3367 7.04675 48.3616 7.04675 50.2275 8.91249C52.0932 10.7783 52.0932 13.8032 50.2275 15.669L21.8922 44.0042C20.0728 45.8235 19.1631 46.7334 18.1269 47.4568C17.2072 48.0989 16.2153 48.6308 15.1715 49.0417C13.9955 49.5047 12.7344 49.7591 10.2122 50.2679L9.04667 50.5032Z" stroke="black" stroke-width="2" stroke-linecap="round" stroke-linejoin="round"/>
</svg>
