<svg width="60" height="60" viewBox="0 0 60 60" fill="none" xmlns="http://www.w3.org/2000/svg">
<ellipse cx="21" cy="20.5" rx="21" ry="20.5" fill="#494852" fill-opacity="0.1"/>
<path d="M16.5 42.5C16.5 43.0523 16.9477 43.5 17.5 43.5C18.0523 43.5 18.5 43.0523 18.5 42.5H16.5ZM18.5 30C18.5 29.4477 18.0523 29 17.5 29C16.9477 29 16.5 29.4477 16.5 30H18.5ZM26.5 42.5C26.5 43.0523 26.9477 43.5 27.5 43.5C28.0523 43.5 28.5 43.0523 28.5 42.5H26.5ZM28.5 37.5C28.5 36.9477 28.0523 36.5 27.5 36.5C26.9477 36.5 26.5 36.9477 26.5 37.5H28.5ZM51.7929 38.2071C52.1834 38.5976 52.8166 38.5976 53.2071 38.2071C53.5976 37.8166 53.5976 37.1834 53.2071 36.7929L51.7929 38.2071ZM46.1321 29.7179C45.7416 29.3274 45.1084 29.3274 44.7179 29.7179C44.3274 30.1084 44.3274 30.7416 44.7179 31.1321L46.1321 29.7179ZM43.5 42.5C43.5 41.9477 43.0523 41.5 42.5 41.5C41.9477 41.5 41.5 41.9477 41.5 42.5H43.5ZM7.5 50H6.5H7.5ZM10 7.5V6.5V7.5ZM40 8.5C40.5523 8.5 41 8.05228 41 7.5C41 6.94772 40.5523 6.5 40 6.5V8.5ZM47.5 25H46.5C46.5 28.5898 43.5898 31.5 40 31.5V32.5V33.5C44.6944 33.5 48.5 29.6944 48.5 25H47.5ZM40 32.5V31.5C36.4101 31.5 33.5 28.5898 33.5 25H32.5H31.5C31.5 29.6944 35.3056 33.5 40 33.5V32.5ZM32.5 25H33.5C33.5 21.4101 36.4101 18.5 40 18.5V17.5V16.5C35.3056 16.5 31.5 20.3056 31.5 25H32.5ZM40 17.5V18.5C43.5898 18.5 46.5 21.4101 46.5 25H47.5H48.5C48.5 20.3056 44.6944 16.5 40 16.5V17.5ZM17.5 42.5H18.5V30H17.5H16.5V42.5H17.5ZM27.5 42.5H28.5V37.5H27.5H26.5V42.5H27.5ZM52.5 37.5L53.2071 36.7929L46.1321 29.7179L45.425 30.425L44.7179 31.1321L51.7929 38.2071L52.5 37.5ZM32.5 25H31.5C31.5 26.6811 31.9985 28.3245 32.9325 29.7223L33.764 29.1668L34.5954 28.6112C33.8812 27.5423 33.5 26.2856 33.5 25H32.5ZM33.764 29.1668L32.9325 29.7223C33.8665 31.1202 35.194 32.2096 36.7472 32.853L37.1299 31.9291L37.5126 31.0052C36.3248 30.5132 35.3097 29.6801 34.5954 28.6112L33.764 29.1668ZM37.1299 31.9291L36.7472 32.853C38.3004 33.4963 40.0094 33.6646 41.6583 33.3367L41.4632 32.3559L41.2681 31.3751C40.0072 31.6259 38.7003 31.4972 37.5126 31.0052L37.1299 31.9291ZM41.4632 32.3559L41.6583 33.3367C43.3071 33.0087 44.8217 32.1991 46.0104 31.0104L45.3033 30.3033L44.5962 29.5962C43.6871 30.5052 42.529 31.1243 41.2681 31.3751L41.4632 32.3559ZM45.3033 30.3033L46.0104 31.0104C47.1992 29.8217 48.0087 28.3071 48.3367 26.6583L47.3559 26.4632L46.3751 26.2681C46.1243 27.529 45.5052 28.6871 44.5962 29.5962L45.3033 30.3033ZM47.3559 26.4632L48.3367 26.6583C48.6646 25.0094 48.4963 23.3004 47.853 21.7472L46.9291 22.1299L46.0052 22.5126C46.4972 23.7003 46.6259 25.0072 46.3751 26.2681L47.3559 26.4632ZM46.9291 22.1299L47.853 21.7472C47.2096 20.194 46.1202 18.8665 44.7223 17.9325L44.1668 18.764L43.6112 19.5954C44.6801 20.3097 45.5132 21.3248 46.0052 22.5126L46.9291 22.1299ZM44.1668 18.764L44.7223 17.9325C43.3245 16.9985 41.6811 16.5 40 16.5V17.5V18.5C41.2856 18.5 42.5423 18.8812 43.6112 19.5954L44.1668 18.764ZM40 17.5V16.5C37.7457 16.5 35.5836 17.3955 33.9896 18.9896L34.6967 19.6967L35.4038 20.4038C36.6228 19.1848 38.2761 18.5 40 18.5V17.5ZM34.6967 19.6967L33.9896 18.9896C32.3955 20.5836 31.5 22.7457 31.5 25H32.5H33.5C33.5 23.2761 34.1848 21.6228 35.4038 20.4038L34.6967 19.6967ZM42.5 42.5H41.5V50H42.5H43.5V42.5H42.5ZM42.5 50H41.5C41.5 50.3978 41.342 50.7794 41.0607 51.0607L41.7678 51.7678L42.4749 52.4749C43.1313 51.8185 43.5 50.9283 43.5 50H42.5ZM41.7678 51.7678L41.0607 51.0607C40.7794 51.342 40.3978 51.5 40 51.5V52.5V53.5C40.9283 53.5 41.8185 53.1313 42.4749 52.4749L41.7678 51.7678ZM40 52.5V51.5H10V52.5V53.5H40V52.5ZM10 52.5V51.5C9.60217 51.5 9.22064 51.342 8.93934 51.0607L8.23223 51.7678L7.52513 52.4749C8.1815 53.1313 9.07174 53.5 10 53.5V52.5ZM8.23223 51.7678L8.93934 51.0607C8.65804 50.7794 8.5 50.3978 8.5 50H7.5H6.5C6.5 50.9283 6.86875 51.8185 7.52513 52.4749L8.23223 51.7678ZM7.5 50H8.5V10H7.5H6.5V50H7.5ZM7.5 10H8.5C8.5 9.60217 8.65804 9.22064 8.93934 8.93934L8.23223 8.23223L7.52513 7.52513C6.86875 8.1815 6.5 9.07174 6.5 10H7.5ZM8.23223 8.23223L8.93934 8.93934C9.22064 8.65804 9.60217 8.5 10 8.5V7.5V6.5C9.07174 6.5 8.1815 6.86875 7.52513 7.52513L8.23223 8.23223ZM10 7.5V8.5H40V7.5V6.5H10V7.5Z" fill="#141414"/>
</svg>
